<?xml version="1.0" encoding="UTF-8"?>
<svg width="43px" height="51px" viewBox="0 0 43 51" version="1.1" xmlns="http://www.w3.org/2000/svg" xmlns:xlink="http://www.w3.org/1999/xlink">
    <!-- Generator: Sketch 54.1 (76490) - https://sketchapp.com -->
    <title>android</title>
    <desc>Created with Sketch.</desc>
    <g id="Page-1" stroke="none" stroke-width="1" fill="none" fill-rule="evenodd">
        <g id="linkedin-banner" transform="translate(-784.000000, -369.000000)" fill="#67C203">
            <g id="logos" transform="translate(416.000000, 362.000000)">
                <path d="M376.673866,44.9444756 C376.673866,46.0979736 377.62149,47.0417447 378.779698,47.0417447 L380.885529,47.0417447 L380.885529,54.3821863 C380.885529,56.1229196 382.296436,57.5280899 384.044276,57.5280899 C385.792117,57.5280899 387.203024,56.1229196 387.203024,54.3821863 L387.203024,47.0417447 L391.414687,47.0417447 L391.414687,54.3821863 C391.414687,56.1229196 392.825594,57.5280899 394.573434,57.5280899 C396.321274,57.5280899 397.732181,56.1229196 397.732181,54.3821863 L397.732181,47.0417447 L399.838013,47.0417447 C400.99622,47.0417447 401.943844,46.0979736 401.943844,44.9444756 L401.943844,23.9717852 L376.673866,23.9717852 L376.673866,44.9444756 L376.673866,44.9444756 Z M371.409287,23.9717852 C369.661447,23.9717852 368.25054,25.3769554 368.25054,27.1176887 L368.25054,41.7985721 C368.25054,43.5393054 369.661447,44.9444756 371.409287,44.9444756 C373.157127,44.9444756 374.568035,43.5393054 374.568035,41.7985721 L374.568035,27.1176887 C374.568035,25.3769554 373.157127,23.9717852 371.409287,23.9717852 L371.409287,23.9717852 Z M407.208423,23.9717852 C405.460583,23.9717852 404.049676,25.3769554 404.049676,27.1176887 L404.049676,41.7985721 C404.049676,43.5393054 405.460583,44.9444756 407.208423,44.9444756 C408.956263,44.9444756 410.367171,43.5393054 410.367171,41.7985721 L410.367171,27.1176887 C410.367171,25.3769554 408.956263,23.9717852 407.208423,23.9717852 L407.208423,23.9717852 Z M396.742441,11.723734 L399.490551,8.98679786 C399.901188,8.57783039 399.901188,7.91719064 399.490551,7.50822318 C399.079914,7.09925572 398.416577,7.09925572 398.00594,7.50822318 L394.889309,10.601695 C393.204644,9.77327375 391.319924,9.29090187 389.308855,9.29090187 C387.287257,9.29090187 385.392009,9.77327375 383.696814,10.6121814 L380.569654,7.49773683 C380.159017,7.08876937 379.49568,7.08876937 379.085043,7.49773683 C378.674406,7.9067043 378.674406,8.56734405 379.085043,8.97631151 L381.843683,11.723734 C378.716523,14.0202436 376.673866,17.7114371 376.673866,21.8745161 L401.943844,21.8745161 C401.943844,17.7009507 399.890659,14.0097572 396.742441,11.723734 L396.742441,11.723734 Z M394.573434,17.6773565 C395.154943,17.6773565 395.62635,17.2078668 395.62635,16.6287219 C395.62635,16.0495771 395.154943,15.5800874 394.573434,15.5800874 C393.991925,15.5800874 393.520518,16.0495771 393.520518,16.6287219 C393.520518,17.2078668 393.991925,17.6773565 394.573434,17.6773565 Z M384.044276,17.6773565 C384.625786,17.6773565 385.097192,17.2078668 385.097192,16.6287219 C385.097192,16.0495771 384.625786,15.5800874 384.044276,15.5800874 C383.462767,15.5800874 382.991361,16.0495771 382.991361,16.6287219 C382.991361,17.2078668 383.462767,17.6773565 384.044276,17.6773565 Z" id="android"></path>
            </g>
        </g>
    </g>
</svg>