<?xml version="1.0" encoding="UTF-8"?>
<svg width="50px" height="58px" viewBox="0 0 50 58" version="1.1" xmlns="http://www.w3.org/2000/svg" xmlns:xlink="http://www.w3.org/1999/xlink">
    <!-- Generator: Sketch 54.1 (76490) - https://sketchapp.com -->
    <title>Apple logo</title>
    <desc>Created with Sketch.</desc>
    <g id="Page-1" stroke="none" stroke-width="1" fill="none" fill-rule="evenodd">
        <g id="linkedin-banner" transform="translate(-866.000000, -362.000000)" fill="#666666">
            <g id="logos" transform="translate(416.000000, 362.000000)">
                <path d="M484.031366,9.49464455 C480.823855,14.5389544 474.362383,14.3830113 474.362383,14.3830113 C474.362383,14.3830113 473.282783,9.20461045 477.392894,4.60230522 C481.503006,0 486.495184,0 486.495184,0 C486.495184,0 487.238876,4.45033466 484.031366,9.49464455 Z M491.76056,14.4857209 C495.763527,16.0524887 498.173821,19.4467446 498.173821,19.4467446 C498.173821,19.4467446 491.489389,22.6957282 491.760562,30.7607466 C492.031734,38.825765 500,42.2626473 500,42.2626473 C500,42.2626473 496.945605,48.8103467 493.911124,52.6285561 C492.262133,54.7034387 488.735663,57.5280899 486.179935,57.5280899 C484.522749,57.5280899 482.971055,56.6085475 481.217543,55.9472101 C479.653779,55.3574365 479.184832,54.9660533 476.967205,54.8526381 C475.182228,54.7613498 472.724848,55.458319 471.403724,56.1469961 C469.984853,56.8866275 467.159341,58.1626981 464.360543,57.0901574 C461.176931,55.8701503 458.312247,52.5862432 455.98045,48.639315 C451.598708,41.2225369 450.774785,35.0862197 450.692605,31.3540298 C450.662648,29.9935372 450.553869,25.3353425 453.576254,20.5055016 C456.598639,15.6756607 460.885805,14.4857209 460.885805,14.4857209 C460.885805,14.4857209 464.859882,12.7900956 470.102187,14.4857209 C473.112903,15.4595379 474.650291,16.4446962 476.608697,16.2691526 C478.567104,16.093609 479.524528,15.2858269 482.226446,14.4857209 C484.85686,13.706789 488.92759,13.3768919 491.76056,14.4857209 Z" id="Apple-logo"></path>
            </g>
        </g>
    </g>
</svg>