<?xml version="1.0" encoding="UTF-8"?>
<svg width="148px" height="47px" viewBox="0 0 148 47" version="1.1" xmlns="http://www.w3.org/2000/svg" xmlns:xlink="http://www.w3.org/1999/xlink">
    <!-- Generator: Sketch 54.1 (76490) - https://sketchapp.com -->
    <title>business_insider</title>
    <desc>Created with Sketch.</desc>
    <g id="Page-1" stroke="none" stroke-width="1" fill="none" fill-rule="evenodd" opacity="0.25">
        <g id="final" transform="translate(-636.000000, -1078.000000)" fill="#000000">
            <g id="as-seen-in" transform="translate(0.000000, 912.000000)">
                <g id="business_insider" transform="translate(636.000000, 166.000000)">
                    <path d="M45.6526851,0.305912281 C46.8514033,-0.00329824561 48.1089945,-0.0123684211 49.3306077,0.150070175 C50.6928619,0.338070175 52.029768,0.790754386 53.1859669,1.55017544 C53.1876022,2.63035088 53.1876022,3.71052632 53.1859669,4.79070175 C52.4631381,4.23907018 51.692884,3.74021053 50.850674,3.39554386 C49.7386298,2.92636842 48.5186519,2.73177193 47.3174807,2.82 C46.7426519,2.86864912 46.1620994,2.99480702 45.6575912,3.28505263 C45.3280663,3.47222807 45.0394254,3.74103509 44.861989,4.08075439 C44.6289503,4.50952632 44.6019669,5.02240351 44.6837348,5.49652632 C44.7548729,5.91622807 44.9846409,6.30047368 45.3076243,6.57340351 C45.7311823,6.93703509 46.2520442,7.15389474 46.765547,7.35178947 C47.844884,7.74757895 48.9225856,8.14501754 50.0019227,8.53998246 C50.9283536,8.88712281 51.8359779,9.33733333 52.5759779,10.0085263 C53.2816354,10.6368421 53.7804199,11.4935614 53.9840221,12.421193 C54.1876243,13.3752105 54.2097017,14.3844737 53.9472265,15.3302456 C53.7109171,16.1853158 53.2145856,16.9612281 52.5481768,17.5392456 C51.8384309,18.1634386 50.9643315,18.5748947 50.0607956,18.820614 C48.8252818,19.1504386 47.528442,19.1949649 46.262674,19.0589123 C44.6812818,18.8799825 43.0949834,18.4207018 41.7719779,17.5054386 C41.7752486,16.4071228 41.7711602,15.3096316 41.7744309,14.2113158 C43.3623646,15.5025789 45.3558674,16.3205439 47.4074254,16.3452807 C48.2749834,16.3584737 49.176884,16.2718947 49.9585856,15.8645614 C50.4009503,15.6328596 50.7828066,15.2601579 50.9643315,14.7852105 C51.167116,14.2665614 51.1638453,13.6745263 50.993768,13.146807 C50.8228729,12.6232105 50.4034033,12.2249474 49.942232,11.9520175 C49.1368177,11.4721228 48.2349171,11.2024912 47.3640884,10.8759649 C46.306011,10.481 45.2144088,10.1528246 44.2307403,9.58387719 C43.4833812,9.16087719 42.7989834,8.59192982 42.3378122,7.85559649 C41.7147403,6.86612281 41.5438453,5.64989474 41.649326,4.49963158 C41.7556243,3.41945614 42.2634033,2.38463158 43.0622762,1.6557193 C43.787558,0.983701754 44.7033591,0.548333333 45.6526851,0.305912281" id="Fill-1"></path>
                    <path d="M118.088464,1.11645614 C119.337061,0.309210526 120.852221,0.00577192982 122.320773,0.0412280702 C124.149105,0.0568947368 126.001149,0.531017544 127.540022,1.54440351 C127.536751,2.62210526 127.542475,3.69980702 127.537569,4.77833333 C126.874431,4.27535088 126.174497,3.81442105 125.414055,3.47552632 C124.095956,2.88184211 122.607779,2.64436842 121.177657,2.86947368 C120.413945,3.00140351 119.597901,3.34277193 119.212773,4.06426316 C118.811293,4.85089474 118.938033,5.92942105 119.61589,6.52475439 C120.138387,6.9922807 120.812155,7.22810526 121.458939,7.46640351 C122.521105,7.86136842 123.589812,8.24066667 124.648707,8.64305263 C125.592309,9.02564912 126.513834,9.52945614 127.216221,10.2847544 C127.864641,10.9666667 128.268575,11.8637895 128.406762,12.7947193 C128.55558,13.8105789 128.517149,14.8825088 128.115669,15.839 C127.778785,16.6561404 127.191691,17.3603158 126.471315,17.8624737 C125.628287,18.4611053 124.633171,18.8065965 123.623337,18.9797544 C122.216928,19.2131053 120.770453,19.142193 119.378762,18.847 C118.223381,18.5905614 117.085171,18.1716842 116.110497,17.4848246 C116.115403,16.3873333 116.108862,15.2898421 116.114586,14.1915263 C117.357459,15.1983158 118.835823,15.9305263 120.413945,16.2026316 C121.096707,16.3279649 121.795823,16.3568246 122.489215,16.3172456 C123.19242,16.262 123.914431,16.1185263 124.516243,15.7276842 C124.981503,15.4324912 125.329834,14.9443509 125.423867,14.3943684 C125.539978,13.7512105 125.431227,13.0297193 124.997039,12.5217895 C124.616,12.0715789 124.079602,11.8027719 123.554652,11.5636491 C122.695271,11.1934211 121.804,10.9081228 120.929083,10.5799474 C120.082785,10.2773333 119.229945,9.96812281 118.45642,9.50059649 C117.743403,9.07677193 117.095801,8.51359649 116.65916,7.79870175 C116.224972,7.09205263 116.015646,6.26336842 115.978033,5.43715789 C115.932243,4.68845614 116.025459,3.9224386 116.311646,3.22650877 C116.659978,2.35412281 117.30758,1.62108772 118.088464,1.11645614" id="Fill-2"></path>
                    <path d="M138.021039,0.503807018 C138.889414,0.190473684 139.815845,0.0371052632 140.738188,0.0412280702 C142.622122,0.00989473684 144.53958,0.462578947 146.143867,1.47926316 C146.210917,1.50729825 146.233812,1.5765614 146.227271,1.64747368 C146.226453,2.6897193 146.226453,3.73278947 146.227271,4.77503509 C145.491359,4.20773684 144.69821,3.70640351 143.837193,3.35678947 C142.755403,2.91317544 141.572221,2.72435088 140.407845,2.80350877 C139.815845,2.84885965 139.218122,2.97749123 138.698895,3.27680702 C138.322762,3.49119298 138.000597,3.81689474 137.837061,4.22340351 C137.524707,5.01168421 137.689878,6.02342105 138.366099,6.57010526 C139.100376,7.17203509 140.041525,7.40126316 140.907448,7.74180702 C141.920552,8.13182456 142.962276,8.45340351 143.950851,8.90691228 C144.85684,9.33733333 145.716221,9.92854386 146.303315,10.7597018 C146.941105,11.6469298 147.19295,12.7642105 147.181503,13.8468596 C147.200309,14.8124211 146.947646,15.7928246 146.410431,16.5975965 C145.87158,17.4139123 145.068619,18.0290351 144.185525,18.424 C143.23947,18.8511228 142.205105,19.0514912 141.174829,19.1042632 C140.024354,19.1611579 138.864884,19.0465439 137.745481,18.7703158 C136.716022,18.5064561 135.700464,18.115614 134.827182,17.4963684 C134.793657,16.3964035 134.821459,15.2931404 134.813282,14.1923509 C136.404486,15.4885614 138.40453,16.3114737 140.46263,16.3320877 C141.351448,16.3469298 142.280331,16.2545789 143.071845,15.8167368 C143.48232,15.5842105 143.837193,15.2296491 144.011359,14.7819123 C144.214961,14.2517193 144.213326,13.6473158 144.034254,13.1105263 C143.859271,12.6042456 143.454519,12.2175263 143.007249,11.9495439 C142.186298,11.4589298 141.264773,11.1843509 140.376773,10.8520526 C139.321149,10.4570877 138.231182,10.1289123 137.251602,9.55749123 C136.464994,9.10480702 135.74789,8.48885965 135.294077,7.68821053 C134.801834,6.82984211 134.636663,5.8172807 134.671006,4.83687719 C134.705348,3.92408772 134.993171,3.01542105 135.539381,2.28238596 C136.153459,1.44298246 137.056994,0.856719298 138.021039,0.503807018" id="Fill-3"></path>
                    <path d="M74.0253481,0.0527719298 C78.2126851,4.07745614 82.3934807,8.1095614 86.5816354,12.1325965 C86.5881768,8.20273684 86.5808177,4.27370175 86.5849061,0.343842105 C87.5832928,0.343842105 88.5808619,0.343842105 89.5792486,0.343017544 C89.580884,6.60721053 89.5817017,12.8714035 89.5792486,19.1355965 C86.7590718,16.3683684 83.933989,13.6060877 81.1138122,10.8405088 C79.7482873,9.51214035 78.3982983,8.1672807 77.0254144,6.84633333 C77.0156022,10.8421579 77.0303204,14.8379825 77.0172376,18.8329825 C76.0204862,18.826386 75.0237348,18.8321579 74.0269834,18.8305088 C74.0237127,12.5712632 74.0278011,6.31201754 74.0253481,0.0527719298" id="Fill-4"></path>
                    <path d="M0.000817679558,0.343842105 C1.60346961,0.343842105 3.20612155,0.343842105 4.8079558,0.343842105 C5.93390055,0.353736842 7.06883978,0.292719298 8.18333702,0.488140351 C9.24141436,0.667894737 10.2970387,1.04966667 11.1163536,1.76785965 C11.7852155,2.34340351 12.2504751,3.14322807 12.4508066,4.00489474 C12.6683094,4.97292982 12.6699448,6.00857895 12.3624972,6.95682456 C12.0362431,7.97598246 11.2921547,8.87970175 10.2904972,9.27549123 C10.4564862,9.38515789 10.6486409,9.43792982 10.821989,9.53440351 C11.7345193,10.0060526 12.4589834,10.8215439 12.8522873,11.7747368 C13.1580994,12.4945789 13.2480442,13.2927544 13.1801768,14.0686667 C13.110674,15.0696842 12.7852376,16.0707018 12.1499006,16.8540351 C11.4336133,17.7511579 10.3706298,18.303614 9.27493923,18.5732456 C8.3321547,18.813193 7.35420994,18.8453509 6.38607735,18.8305088 C4.25765746,18.8296842 2.12923757,18.8305088 0.000817679558,18.8296842 C-0.000817679558,12.6677368 -0.000817679558,6.50578947 0.000817679558,0.343842105 Z M3.02377901,3.06324561 C3.0278674,4.74535088 3.01560221,6.42663158 3.02950276,8.10708772 C4.25683978,8.09636842 5.48499448,8.11038596 6.71233149,8.10049123 C7.48585635,8.0625614 8.31171271,7.91001754 8.91025414,7.37817544 C9.3518011,6.98898246 9.57012155,6.40024561 9.60609945,5.82057895 C9.65107182,5.18401754 9.54722652,4.49221053 9.12939227,3.98922807 C8.76061878,3.53819298 8.19969061,3.29989474 7.64366851,3.1852807 C7.01569061,3.055 6.3721768,3.06407018 5.73438674,3.06324561 C4.83085083,3.06324561 3.92731492,3.06159649 3.02377901,3.06324561 Z M3.02296133,10.7143509 C3.02459669,12.5127193 3.02296133,14.3110877 3.02377901,16.1102807 C4.32716022,16.1119298 5.63054144,16.1102807 6.93310497,16.1111053 C7.67310497,16.1028596 8.4441768,15.9816491 9.07379006,15.5652456 C9.61018785,15.2189298 9.98304972,14.6400877 10.0934365,14.0092982 C10.2177238,13.3199649 10.145768,12.569614 9.77862983,11.9635614 C9.48262983,11.4704737 8.99038674,11.1233333 8.45644199,10.9394561 C7.96746961,10.7695965 7.44742541,10.7044561 6.93228729,10.7127018 C5.62972376,10.7151754 4.32634254,10.7118772 3.02296133,10.7143509 L3.02296133,10.7143509 Z" id="Fill-5"></path>
                    <path d="M19.832,0.343842105 C20.8663646,0.343842105 21.901547,0.343842105 22.9359116,0.343842105 C22.9367293,3.525 22.9359116,6.70615789 22.9367293,9.88731579 C22.9383646,11.0078947 22.8925746,12.1457895 23.1673149,13.2416316 C23.3790939,14.1346316 23.8230939,15.0070175 24.5663646,15.5635965 C25.3006409,16.1201754 26.239337,16.3197193 27.1428729,16.3188947 C28.0611271,16.3238421 29.0227182,16.1275965 29.765989,15.5553509 C30.3898785,15.0878246 30.8011713,14.3861228 31.039116,13.650614 C31.3187624,12.7765789 31.3907182,11.8489474 31.3809061,10.9353333 C31.3817238,7.4045614 31.3800884,3.87461404 31.3825414,0.343842105 C32.4169061,0.343842105 33.4512707,0.343842105 34.486453,0.343842105 C34.486453,4.01973684 34.486453,7.69563158 34.486453,11.3715263 C34.5109834,12.8862456 34.254232,14.4397193 33.529768,15.7812807 C32.9042431,16.9562807 31.8788729,17.8995789 30.6719779,18.4380175 C29.2990939,19.055614 27.7610387,19.2139298 26.2744972,19.0935439 C25.2352265,19.0036667 24.2000442,18.7439298 23.276884,18.2450702 C22.5998453,17.8814386 21.985768,17.3932982 21.4935249,16.7987895 C20.9080663,16.1012105 20.4918674,15.2692281 20.2277569,14.3960175 C19.9284862,13.3999474 19.8189171,12.3527544 19.8311823,11.313807 C19.832,7.65687719 19.8303646,4.00077193 19.832,0.343842105" id="Fill-6"></path>
                    <path d="M62.0994917,0.34054386 C63.132221,0.347140351 64.165768,0.342192982 65.1993149,0.343842105 C65.2058564,6.50249123 65.1919558,12.6627895 65.2058564,18.8222632 C64.1690387,18.8412281 63.132221,18.8247368 62.096221,18.8305088 C62.096221,12.6677368 62.0888619,6.50414035 62.0994917,0.34054386" id="Fill-7"></path>
                    <path d="M97.8410829,0.338894737 C101.533724,0.349614035 105.227182,0.34054386 108.920641,0.343842105 C108.921459,1.27229825 108.920641,2.20157895 108.920641,3.13168421 C106.241923,3.13250877 103.564022,3.13085965 100.885304,3.13168421 C100.884486,4.606 100.884486,6.07949123 100.885304,7.55380702 C103.286829,7.55545614 105.688354,7.55380702 108.089061,7.55380702 C108.090696,8.46989474 108.090696,9.38515789 108.089061,10.3012456 C105.688354,10.3020702 103.286829,10.3004211 100.885304,10.3020702 C100.884486,12.2059825 100.884486,14.1098947 100.885304,16.0146316 C103.563204,16.0154561 106.241923,16.0154561 108.919006,16.0146316 C108.922276,16.9529825 108.920641,17.8913333 108.919823,18.8305088 C105.227182,18.8321579 101.532906,18.8255614 97.8394475,18.833807 C97.8263646,13.838614 97.8378122,8.84177193 97.8337238,3.84575439 C97.8386298,2.67652632 97.8247293,1.50729825 97.8410829,0.338894737" id="Fill-8"></path>
                    <path d="M24.1665193,28.1200175 C28.3219669,32.0861579 32.4765967,36.0539474 36.6361326,40.0159649 C36.6410387,36.1495965 36.6369503,32.2832281 36.6394033,28.4176842 C37.6279779,28.4176842 38.6181878,28.4176842 39.6067624,28.4176842 C39.6083978,34.5755088 39.6067624,40.7333333 39.6083978,46.8919825 C35.4464088,42.8689474 31.3015912,38.8285965 27.145326,34.800614 C27.145326,38.7345965 27.1461436,42.6677544 27.1445083,46.6017368 C26.1502099,46.6017368 25.1567293,46.603386 24.1632486,46.6017368 C24.164884,40.440614 24.1583425,34.2803158 24.1665193,28.1200175" id="Fill-9"></path>
                    <path d="M50.1760884,28.777193 C51.3519116,28.2346316 52.6667403,28.0598246 53.9504972,28.1183684 C55.6651713,28.1843333 57.3855691,28.6460877 58.8369503,29.583614 C58.8410387,30.6497719 58.8394033,31.7159298 58.8385856,32.7812632 C58.1116685,32.2296316 57.3356906,31.7332456 56.4893923,31.3910526 C55.3716243,30.9276491 54.145105,30.7429474 52.9422983,30.8410702 C52.3707403,30.8979649 51.7934586,31.0307193 51.2963094,31.3308596 C50.9234475,31.5526667 50.6127293,31.8940351 50.465547,32.3087895 C50.2300552,33.0096667 50.342895,33.8754561 50.8874696,34.4048246 C51.3093923,34.8302982 51.8719558,35.0652982 52.4198011,35.2788596 C53.512221,35.6795965 54.6062762,36.0745614 55.6995138,36.4736491 C56.5670718,36.7944035 57.4150055,37.210807 58.1247514,37.8176842 C58.819779,38.4064211 59.3430939,39.2021228 59.5753149,40.0901754 C59.8050829,40.9889474 59.8508729,41.9437895 59.6603536,42.8541053 C59.4771934,43.7330877 59.0192928,44.5502281 58.3676022,45.1628772 C57.6840221,45.825 56.8123757,46.2620175 55.9080221,46.5275263 C54.7796243,46.8631228 53.5899006,46.926614 52.4206188,46.8548772 C51.2096354,46.7715965 50.0051934,46.5135088 48.883337,46.0410351 C48.4033591,45.8299474 47.9258343,45.5974211 47.5030939,45.281614 C47.5137238,44.200614 47.5039116,43.119614 47.5088177,42.0377895 C49.0918453,43.3257544 51.0869834,44.1288772 53.1328177,44.1445439 C54.0060994,44.1569123 54.9169945,44.0629123 55.6962431,43.6349649 C56.1492376,43.3842982 56.5286409,42.9744912 56.6807293,42.4706842 C56.832,41.9685263 56.8172818,41.4119474 56.6300331,40.9213333 C56.4321547,40.4092807 55.9938785,40.0382281 55.5294365,39.7760175 C54.7338343,39.3291053 53.8564641,39.0627719 53.0052597,38.7477895 C52.0354917,38.385807 51.037105,38.0848421 50.1221215,37.5892807 C49.2979006,37.1514386 48.5350055,36.5470351 48.0378564,35.7422632 C47.5366188,34.9325439 47.3403757,33.9628596 47.3559116,33.0170877 C47.3501878,32.1207895 47.6003978,31.2162456 48.1065414,30.4757895 C48.6143204,29.7213158 49.3584088,29.1523684 50.1760884,28.777193" id="Fill-10"></path>
                    <path d="M12.2594696,28.4176842 C13.2938343,28.4176842 14.3281989,28.4176842 15.3633812,28.4176842 C15.3633812,34.4790351 15.3633812,40.540386 15.3633812,46.6017368 C14.3281989,46.603386 13.2938343,46.6025614 12.2594696,46.6017368 C12.2586519,40.540386 12.2570166,34.4790351 12.2594696,28.4176842" id="Fill-11"></path>
                    <path d="M67.7341215,28.4176842 C68.7643978,28.4176842 69.794674,28.4168596 70.8249503,28.4176842 C70.8249503,34.4790351 70.8249503,40.540386 70.8249503,46.6017368 C69.794674,46.603386 68.7643978,46.6017368 67.7341215,46.6017368 C67.7333039,40.540386 67.7324862,34.4790351 67.7341215,28.4176842" id="Fill-12"></path>
                    <path d="M79.815337,28.4176842 C82.1980552,28.4176842 84.5799558,28.4176842 86.962674,28.4176842 C88.8122652,28.4424211 90.6986519,28.9297368 92.2097238,30.0371228 C93.4885746,30.9556842 94.4436243,32.2964211 94.975116,33.779807 C95.4199337,35.0100526 95.5990055,36.3260526 95.587558,37.6321579 C95.5712044,39.4973158 95.143558,41.4020526 94.1140994,42.9728421 C93.2653481,44.2962632 91.9914033,45.3261404 90.5424751,45.9099298 C89.409989,46.3733333 88.1859227,46.5860702 86.9675801,46.603386 C84.5832265,46.6017368 82.1988729,46.603386 79.815337,46.6017368 C79.8145193,40.540386 79.8137017,34.4790351 79.815337,28.4176842 Z M82.8922652,31.1519298 C82.8930829,35.3819298 82.8930829,39.6111053 82.8922652,43.8411053 C83.8693923,43.8427544 84.8457017,43.8411053 85.8228287,43.8419298 C86.4213702,43.837807 87.0231823,43.8633684 87.6200884,43.7842105 C88.7558453,43.6506316 89.8826077,43.2127895 90.7199116,42.4096667 C91.4631823,41.7112632 91.9537901,40.7729123 92.2121768,39.7900351 C92.4664751,38.8195263 92.5318895,37.8053158 92.4664751,36.8059474 C92.4059669,35.9088246 92.2236243,35.0125263 91.8507624,34.1912632 C91.4950718,33.3996842 90.9447735,32.6905614 90.2399337,32.1859298 C89.4296133,31.5938947 88.442674,31.2896316 87.4549171,31.1923333 C86.858011,31.1304912 86.2578343,31.1560526 85.6601105,31.1502807 C84.737768,31.1511053 83.8146077,31.1494561 82.8922652,31.1519298 L82.8922652,31.1519298 Z" id="Fill-13"></path>
                    <path d="M102.070939,28.4176842 C105.74232,28.4160351 109.414519,28.4193333 113.086718,28.4160351 C113.091624,29.328 113.087536,30.2391404 113.088354,31.1502807 C110.427624,31.1511053 107.767713,31.1502807 105.107801,31.1502807 C105.109436,32.6072807 105.102895,34.0634561 105.111072,35.5204561 C107.492972,35.5163333 109.874873,35.518807 112.257591,35.518807 C112.260862,36.4134561 112.252685,37.3089298 112.260862,38.2035789 C109.877326,38.2200702 107.492155,38.2052281 105.106983,38.211 C105.106983,40.0877018 105.106983,41.9644035 105.106983,43.8419298 C107.767713,43.8419298 110.427624,43.8411053 113.088354,43.8419298 C113.089171,44.7621404 113.089171,45.6815263 113.087536,46.6017368 C109.415337,46.6025614 105.74232,46.603386 102.070939,46.6017368 C102.070122,40.540386 102.070122,34.4790351 102.070939,28.4176842" id="Fill-14"></path>
                    <path d="M122.270077,28.4168596 C124.520331,28.4176842 126.771403,28.4168596 129.022475,28.4176842 C130.141061,28.4399474 131.278453,28.6221754 132.289923,29.1218596 C133.089613,29.5069298 133.793635,30.1105088 134.258895,30.8757018 C134.813282,31.7752982 135.036508,32.8521754 135.018519,33.9026667 C135.027514,34.9778947 134.84926,36.0894035 134.298961,37.0261053 C133.887669,37.7302807 133.246608,38.2819123 132.512331,38.6199825 C131.978387,38.8714737 131.403558,39.0207193 130.823006,39.1163684 C132.994762,41.6114912 135.16979,44.1033158 137.339094,46.6009123 C136.168994,46.6042105 134.998895,46.6017368 133.828796,46.6017368 C131.720818,44.1445439 129.619381,41.6815789 127.50895,39.2268596 C126.788575,39.2276842 126.067381,39.2260351 125.347823,39.2276842 C125.342917,41.6865263 125.354365,44.1453684 125.341282,46.6050351 C124.317547,46.5992632 123.292994,46.6042105 122.26926,46.6017368 C122.26926,40.540386 122.267624,34.4790351 122.270077,28.4168596 Z M125.347823,31.0958596 C125.346188,32.9453509 125.346188,34.7948421 125.347823,36.6443333 C126.535912,36.6443333 127.725635,36.6443333 128.914541,36.6443333 C129.722409,36.6303158 130.57116,36.4167544 131.178696,35.8535789 C131.591624,35.4742807 131.847558,34.9424386 131.930961,34.3891579 C132.034807,33.6907544 131.939956,32.9379298 131.552376,32.3368246 C131.189326,31.7637544 130.575249,31.3943509 129.930099,31.2335614 C129.279227,31.0562807 128.600552,31.0999825 127.934961,31.0958596 C127.072309,31.0958596 126.209657,31.0950351 125.347823,31.0958596 L125.347823,31.0958596 Z" id="Fill-15"></path>
                </g>
            </g>
        </g>
    </g>
</svg>