<?xml version="1.0" encoding="UTF-8"?>
<svg width="50px" height="50px" viewBox="0 0 50 50" version="1.1" xmlns="http://www.w3.org/2000/svg" xmlns:xlink="http://www.w3.org/1999/xlink">
    <!-- Generator: Sketch 54.1 (76490) - https://sketchapp.com -->
    <title>chrome</title>
    <desc>Created with Sketch.</desc>
    <defs>
        <path d="M21.675773,49.5783184 C9.44543447,47.9888471 0,37.5431069 0,24.8938453 C0,19.9019825 1.47101418,15.2532921 4.0036865,11.3566516 L14.479441,29.479988 C16.2460941,33.4878027 20.2573787,36.2859439 24.9229687,36.2859439 C26.7727264,36.2859439 28.5196357,35.8461126 30.0645883,35.0654427 L21.675773,49.5783184 Z M23.5279989,49.7493545 L33.666904,32.2087765 C35.3281289,30.2297584 36.3283951,27.6784777 36.3283951,24.8938453 C36.3283951,20.7912756 34.1572354,17.1952148 30.8999858,15.1894649 L47.8811939,15.1894649 C49.1462607,18.1716131 49.8459374,21.4511155 49.8459374,24.8938453 C49.8459374,38.6423364 38.6875443,49.7876905 24.9229687,49.7876905 C24.4548523,49.7876905 23.9897503,49.7747998 23.5279989,49.7493545 Z M5.0753453,9.83521519 C9.62765937,3.85839175 16.8241991,0 24.9229687,0 C34.5774706,0 42.9498224,5.48312279 47.0889537,13.5017466 L24.5005455,13.5017466 L24.5005455,13.5094153 C18.5430888,13.726067 13.7515092,18.5065616 13.5258558,24.4548234 L5.07534635,9.83521523 Z M24.9229687,33.7543664 C20.023713,33.7543664 16.0520816,29.787376 16.0520816,24.8938453 C16.0520816,20.0003145 20.023713,16.0333241 24.9229687,16.0333241 C29.8222244,16.0333241 33.7938559,20.0003145 33.7938559,24.8938453 C33.7938559,29.787376 29.8222244,33.7543664 24.9229687,33.7543664 Z" id="path-1"></path>
    </defs>
    <g id="Page-1" stroke="none" stroke-width="1" fill="none" fill-rule="evenodd">
        <g id="linkedin-banner" transform="translate(-416.000000, -372.000000)">
            <g id="logos" transform="translate(416.000000, 362.000000)">
                <g id="chrome" transform="translate(0.000000, 10.067416)">
                    <g id="img" transform="translate(0.000000, 0.000000)">
                        <mask id="mask-2" fill="white">
                            <use xlink:href="#path-1"></use>
                        </mask>
                        <use id="Oval-1" fill="#56AFEF" xlink:href="#path-1"></use>
                        <polygon id="Path-14" fill="#DF412C" mask="url(#mask-2)" points="3.75478121 7.50737984 13.7345293 26.7257778 15.0438762 21.12697 18.7062523 16.4742075 25.0417752 14.7988504 31.4796038 14.4313102 55.1196271 14.1057981 30.5926801 -3.02767437 13.6990523 0.0453244667"></polygon>
                        <polygon id="Path-15" fill="#FAD843" mask="url(#mask-2)" points="28.6645492 14.3604392 32.4902843 18.2838899 34.9513945 22.2073405 34.9513945 25.5036654 33.1115434 30.5725889 22.3414019 50.8400422 28.0490654 51.1531931 40.442071 46.9767495 49.1793008 36.164804 52.1057366 25.2992932 50.8500176 16.783238 49.2758311 14.5293759"></polygon>
                        <polygon id="Path-16" fill="#58BA5A" mask="url(#mask-2)" points="3.87523782 9.90545617 8.16547343 17.1136945 14.3920904 26.575795 17.5297377 31.8004699 20.2507371 33.8433672 23.76213 34.8380332 28.5292418 34.7292545 31.2626169 33.6266339 21.5303824 51.3930007 4.424718 44.7574988 -2.68882267 29.2449941 -1.90420458 17.5900135"></polygon>
                    </g>
                </g>
            </g>
        </g>
    </g>
</svg>