<svg width="59" height="61" viewBox="0 0 59 61" fill="none" xmlns="http://www.w3.org/2000/svg">
<g clip-path="url(#clip0_1276_5482)">
<path d="M58.6413 31.7174C58.4964 32.8623 58.399 34.0185 58.2781 35.1672C58.2566 35.3716 58.2345 35.5766 58.2148 35.7803L58.1959 35.9406C58.1845 36.0377 58.1731 36.1348 58.1604 36.2307C58.1446 36.3613 58.1275 36.4919 58.1104 36.6218C58.0934 36.7518 58.0738 36.8918 58.0535 37.0261C58.0333 37.1605 58.0124 37.2955 57.9902 37.4299C57.9795 37.4986 57.9681 37.5667 57.9561 37.6355C57.9333 37.7673 57.9105 37.8992 57.8852 38.0304C57.8726 38.0966 57.8605 38.1628 57.8466 38.2297C57.8327 38.2966 57.82 38.3622 57.8068 38.4284C57.7954 38.4852 57.7827 38.5413 57.7707 38.5974C57.7587 38.6536 57.7467 38.7072 57.734 38.7621C57.7176 38.839 57.6992 38.9154 57.6809 38.9923C57.665 39.0586 57.6492 39.1235 57.6328 39.1891C57.6163 39.2547 57.5992 39.3197 57.5822 39.3847C57.1329 41.0878 56.4136 42.7127 55.159 44.1844C53.4248 46.2187 51.7538 48.2845 50.0538 50.24C49.8366 50.4923 49.6183 50.741 49.399 50.9862C45.5446 55.3266 41.486 59.0079 36.1632 60.4026C35.7975 60.4998 35.4257 60.5839 35.0477 60.6549C34.8946 60.6852 34.7402 60.7123 34.5859 60.7388H34.5738C34.4226 60.7641 34.2702 60.7868 34.117 60.8095C32.5265 61.0285 30.9154 61.0569 29.3181 60.894C28.2925 60.7943 27.2416 60.6758 26.1819 60.5326C25.9921 60.5067 25.8023 60.4802 25.6125 60.4525C25.4726 60.4335 25.3334 60.4127 25.1936 60.3894C19.8791 59.5933 14.4411 58.1337 10.8145 55.273C10.5935 55.0981 10.3795 54.9183 10.1724 54.7337C9.18391 53.8684 8.35725 52.8351 7.73082 51.6819C6.94186 50.2072 6.07065 48.7803 5.2045 47.3591L5.01469 47.0488C2.66869 43.1909 0.417587 39.3065 0.051894 34.4254C0.0303826 34.146 0.0158308 33.8627 0.00760586 33.5776C-0.0106882 32.9375 0.00324842 32.2968 0.0493632 31.6581C0.0944949 31.0324 0.151437 30.4041 0.220189 29.7733C0.240013 29.5958 0.261103 29.4182 0.283458 29.2403C0.299275 29.1085 0.315092 28.9773 0.332174 28.846C0.340399 28.7798 0.348624 28.7136 0.357482 28.648C0.395443 28.3591 0.435935 28.071 0.478958 27.7838C0.490346 27.7062 0.501735 27.6299 0.514388 27.5529C0.527675 27.4608 0.542227 27.37 0.557411 27.2792C1.64184 20.5379 4.16373 13.9745 8.58432 9.66811C8.70368 9.55205 8.82453 9.43724 8.94685 9.3237C9.01011 9.26756 9.06959 9.21079 9.13159 9.15591C9.44034 8.8771 9.75816 8.60965 10.085 8.35355C10.2072 8.25767 10.3312 8.16431 10.4564 8.07095C12.3859 6.63087 14.602 5.61894 16.956 5.10308C17.0762 5.07659 17.1965 5.04946 17.3167 5.02045H17.3211C17.4394 4.99269 17.5577 4.96368 17.6754 4.93466C17.6788 4.93419 17.6822 4.93419 17.6855 4.93466L18.0291 4.84824C18.1999 4.80345 18.372 4.75678 18.5434 4.7101C18.6327 4.68676 18.7219 4.66153 18.8111 4.6363L19.0686 4.56312C19.2286 4.51771 19.3849 4.47166 19.5469 4.42435L19.6582 4.39218L19.6892 4.38272L19.8316 4.34045C19.8588 4.71199 19.8949 5.0974 19.9524 5.48723C20.0361 6.12648 20.1767 6.75702 20.3725 7.3714C20.8736 8.8853 21.7803 10.0245 23.4019 9.75201C27.6485 9.03859 26.0591 12.9116 29.7287 14.9958C30.0929 15.205 30.4788 15.3742 30.8796 15.5004C31.2903 15.6276 31.7154 15.7027 32.145 15.7237C33.1573 15.7754 34.0728 15.5427 34.9794 15.4285C35.3039 15.3839 35.6313 15.364 35.9588 15.3692C36.2966 15.3759 36.6321 15.4257 36.9572 15.5174C37.0759 15.5504 37.1929 15.5893 37.3077 15.6341C37.4912 15.7051 37.6693 15.7894 37.8404 15.8865C38.1465 16.0605 38.4345 16.2644 38.7002 16.4952C38.7078 16.5002 38.7142 16.5071 38.7211 16.5128C38.8255 16.6024 38.9305 16.6857 39.0375 16.7614C39.1745 16.8619 39.3178 16.9538 39.4664 17.0364C39.736 17.1874 40.0224 17.3062 40.3199 17.3903C40.4332 17.4218 40.547 17.4483 40.6603 17.4691C40.7236 17.4811 40.7868 17.4912 40.8533 17.5C42.156 17.6773 43.4998 17.208 44.7127 16.5311C45.0164 16.3627 45.3118 16.181 45.5984 15.9931C45.8559 15.824 46.1046 15.6486 46.3431 15.4752C46.6411 15.2569 46.922 15.0406 47.1833 14.8324C47.4661 14.6085 47.7243 14.3959 47.9552 14.2073C48.5581 13.7153 49.6419 13.4238 50.8599 13.1381C51.5457 12.976 52.2739 12.8164 52.9825 12.6221C53.0534 12.6694 53.1236 12.7174 53.1926 12.7653C53.2615 12.8132 53.3311 12.8624 53.3995 12.9116C53.4678 12.9608 53.5368 13.0119 53.6045 13.0637C53.6888 13.128 53.7732 13.1938 53.8575 13.2611C53.9012 13.2945 53.9442 13.3299 53.9841 13.3652C53.9917 13.3709 53.9991 13.377 54.0062 13.3835C54.0638 13.4308 54.1201 13.4781 54.1764 13.5254C54.2327 13.5727 54.2998 13.6326 54.3611 13.6863C54.4225 13.7399 54.4814 13.7947 54.5408 13.8503C54.6003 13.9058 54.6591 13.9613 54.7167 14.0174C54.7743 14.0736 54.8319 14.1291 54.8882 14.1858C55.0577 14.3568 55.2216 14.5309 55.3785 14.71C55.4171 14.7536 55.4551 14.7971 55.4918 14.84C55.5658 14.927 55.6392 15.0134 55.7119 15.103C55.748 15.1472 55.7834 15.1926 55.8182 15.2367C55.8359 15.2594 55.8537 15.2815 55.8695 15.3036C55.9062 15.3503 55.9416 15.3976 55.9777 15.4449C56.0669 15.5647 56.1542 15.6852 56.2402 15.8082C56.3368 15.947 56.4309 16.0883 56.5224 16.2321C56.5983 16.3513 56.6724 16.4725 56.7438 16.5942C56.7495 16.6037 56.7552 16.6125 56.7603 16.622C56.7894 16.6705 56.8172 16.7197 56.8444 16.7696C56.89 16.8478 56.933 16.9266 56.9754 17.0055L56.9912 17.0332C57.0298 17.1032 57.0665 17.1726 57.1019 17.242C57.1374 17.3114 57.1734 17.3821 57.2089 17.4533C57.2443 17.5246 57.2778 17.5946 57.3114 17.6665C57.421 17.8962 57.5239 18.1295 57.6201 18.3667C57.6442 18.4241 57.6669 18.4822 57.691 18.5408L57.777 18.7641C57.8612 18.9887 57.9415 19.2158 58.0162 19.4454C58.0415 19.5223 58.0662 19.5999 58.0889 19.6775C58.1358 19.8276 58.18 19.9797 58.2237 20.1317C58.319 20.4769 58.4051 20.8279 58.4818 21.1845C58.4939 21.2374 58.5052 21.2911 58.5166 21.3447C58.585 21.6702 58.6432 22.0001 58.6963 22.3331C58.7187 22.4753 58.7398 22.6183 58.7596 22.7621C58.8317 23.2915 58.8872 23.8298 58.926 24.3769C58.9418 24.6153 58.9564 24.855 58.9671 25.096C59.0652 27.223 58.9272 29.4579 58.6413 31.7174Z" fill="#EFAE59"/>
<g style="mix-blend-mode:overlay" opacity="0.2">
<path d="M36.1549 49.6761C36.668 52.7455 41.0266 51.2108 40.516 47.3743C40.0055 43.5378 35.6418 46.6066 36.1549 49.6761Z" fill="black"/>
</g>
<g style="mix-blend-mode:overlay" opacity="0.2">
<path d="M22.0625 32.4857L19.4425 36.0326C19.3796 36.1173 19.2944 36.1828 19.1964 36.2219L13.5167 38.4461C13.3927 38.4948 13.2553 38.4978 13.1292 38.4546C13.0032 38.4113 12.8967 38.3247 12.829 38.2101L10.3799 34.0785C10.3373 34.0069 10.3115 33.9267 10.3046 33.8438C10.2976 33.7629 10.3084 33.6815 10.3363 33.6052C10.3641 33.529 10.4084 33.4597 10.4659 33.4022L14.822 29.0592C14.9008 28.9805 15.0014 28.9272 15.1109 28.906C15.2204 28.8849 15.3338 28.8969 15.4363 28.9407L21.7259 31.6013L21.8303 31.6449C21.9075 31.6779 21.9762 31.7279 22.0314 31.791C22.0866 31.8541 22.1268 31.9289 22.1491 32.0096C22.1714 32.0904 22.1752 32.1751 22.1602 32.2575C22.1452 32.3399 22.1118 32.4179 22.0625 32.4857Z" fill="black"/>
</g>
<g style="mix-blend-mode:overlay" opacity="0.2">
<path d="M55.6727 20.8412L54.0651 25.0265L52.6099 28.8258C52.5758 28.9148 52.52 28.9939 52.4476 29.056C52.3751 29.1181 52.2883 29.1613 52.195 29.1816C52.1017 29.202 52.0047 29.1988 51.9129 29.1725C51.8211 29.1462 51.7373 29.0975 51.6691 29.0308L45.5124 23.0383C45.4536 22.9809 45.4078 22.9116 45.3782 22.8351C45.3485 22.7586 45.3357 22.6766 45.3405 22.5947C45.3453 22.5128 45.3676 22.4329 45.406 22.3604C45.4444 22.2878 45.4979 22.2243 45.563 22.1741L47.7578 20.4817L50.6182 18.2739C50.7014 18.2098 50.8006 18.1695 50.9051 18.1576C51.0096 18.1457 51.1154 18.1626 51.211 18.2064L55.3779 20.1146C55.5102 20.176 55.6142 20.2851 55.6689 20.42C55.7236 20.5549 55.725 20.7054 55.6727 20.8412Z" fill="black"/>
</g>
<g style="mix-blend-mode:overlay" opacity="0.2">
<path d="M23.4974 15.2278C18.9053 15.8082 16.5625 16.8559 15.8469 17.2287C15.7676 17.2699 15.6795 17.2914 15.5901 17.2914C15.5006 17.2914 15.4125 17.2699 15.3332 17.2287C14.3962 16.7531 11.339 15.0758 11.339 13.5619C11.339 13.5462 11.339 13.5304 11.339 13.5153C11.4143 11.9313 15.1845 10.1872 16.007 9.82576C16.1083 9.78186 16.2202 9.76827 16.329 9.78665C17.9848 10.0768 19.3356 10.6067 20.4238 11.2274C22.2504 12.2675 23.3386 13.5544 23.8916 14.3586C23.9454 14.4378 23.9781 14.5295 23.9863 14.6248C23.9945 14.7202 23.9781 14.816 23.9385 14.9032C23.899 14.9904 23.8376 15.0661 23.7604 15.1229C23.6832 15.1797 23.5926 15.2159 23.4974 15.2278Z" fill="black"/>
</g>
<g style="mix-blend-mode:overlay" opacity="0.2">
<path d="M13.251 22.7545C11.9002 24.3491 11.0537 26.1608 10.7089 26.9808C10.6566 27.1052 10.5616 27.2069 10.4409 27.2678C10.3202 27.3288 10.1817 27.3448 10.0502 27.3132L4.6819 25.9709C4.55263 25.9384 4.43904 25.8614 4.36124 25.7535C4.28343 25.6455 4.24641 25.5136 4.25673 25.3811L4.35859 24.0962L4.61863 20.8628C4.62608 20.7843 4.64985 20.7082 4.68843 20.6393C4.727 20.5705 4.77955 20.5104 4.8427 20.4629C4.90585 20.4155 4.97824 20.3816 5.05523 20.3636C5.13223 20.3455 5.21215 20.3437 5.28991 20.3581L11.0202 21.4734L12.929 21.8443C13.0246 21.8635 13.1136 21.9072 13.1873 21.971C13.2609 22.0348 13.3167 22.1165 13.3491 22.2083C13.3816 22.3 13.3896 22.3985 13.3724 22.4943C13.3552 22.59 13.3134 22.6797 13.251 22.7545Z" fill="black"/>
</g>
<g style="mix-blend-mode:overlay" opacity="0.2">
<path d="M33.2926 18.6663C31.8571 20.4325 36.4422 22.6258 38.3478 20.8003C40.2535 18.9747 35.7317 15.6643 33.2926 18.6663Z" fill="black"/>
</g>
<g style="mix-blend-mode:overlay" opacity="0.2">
<path d="M35.9594 57.1496C35.502 58.618 31.3604 59.129 30.6803 59.2028C30.6189 59.2104 30.5567 59.1992 30.5019 59.1706C29.7461 58.7909 29.0316 58.3346 28.3697 57.8087C25.9301 55.8653 25.112 53.5888 24.8615 52.6186C24.8484 52.5674 24.8485 52.5138 24.8617 52.4626C24.8748 52.4114 24.9007 52.3644 24.9368 52.3258C24.973 52.2872 25.0183 52.2582 25.0685 52.2416C25.1188 52.225 25.1725 52.2212 25.2246 52.2307C28.7316 52.8791 31.0194 52.8362 32.2126 52.7202C32.4941 52.6952 32.7741 52.6561 33.0516 52.6028C33.1014 52.5925 33.1529 52.5945 33.2018 52.6086C33.2506 52.6227 33.2953 52.6484 33.3319 52.6836C33.9196 53.2456 36.4004 55.7347 35.9594 57.1496Z" fill="black"/>
</g>
<g style="mix-blend-mode:overlay" opacity="0.2">
<path d="M22.1814 22.0777C21.8018 24.0962 27.1898 25.255 27.4175 21.6235C27.6453 17.9921 22.8641 18.4481 22.1814 22.0777Z" fill="black"/>
</g>
<g style="mix-blend-mode:overlay" opacity="0.2">
<path d="M23.1823 49.1127C24.6242 49.7971 29.0416 48.1035 30.4582 45.6882C31.6065 43.7251 29.549 38.6378 28.6399 37.8323C27.7307 37.0268 22.4775 39.8464 21.5683 41.4581C21.0394 42.3891 21.0609 48.1054 23.1823 49.1127Z" fill="black"/>
</g>
<g style="mix-blend-mode:overlay" opacity="0.2">
<path d="M30.2735 45.3052L23.7416 48.8376C23.6651 48.8793 23.5797 48.9019 23.4926 48.9037C23.4054 48.9054 23.3192 48.8862 23.2411 48.8476C23.163 48.8091 23.0954 48.7523 23.0439 48.6822C22.9925 48.612 22.9588 48.5306 22.9457 48.4447L22.2706 45.386L22.0213 42.196C22.0066 42.0926 22.0221 41.9871 22.0658 41.8922C22.1096 41.7972 22.1798 41.7168 22.2681 41.6605L27.8768 38.1199C27.9478 38.0751 28.0282 38.0473 28.1118 38.0387C28.1953 38.0302 28.2797 38.041 28.3583 38.0705C28.437 38.1 28.5076 38.1472 28.5648 38.2086C28.622 38.2699 28.6642 38.3436 28.688 38.4239L29.3782 40.7667L30.5322 44.6776C30.567 44.7959 30.5603 44.9226 30.5133 45.0367C30.4662 45.1507 30.3817 45.2454 30.2735 45.3052Z" fill="black"/>
</g>
<g style="mix-blend-mode:overlay" opacity="0.2">
<path d="M12.979 49.517C12.6759 51.3299 17.8285 52.9416 19.8487 51.8339C21.8688 50.7263 21.2627 48.0063 19.6469 47.0998C18.031 46.1934 13.4326 46.8046 12.979 49.517Z" fill="black"/>
</g>
<g style="mix-blend-mode:overlay" opacity="0.2">
<path d="M13.6964 48.6888C11.2871 51.494 20.3523 53.2305 20.7192 49.8873C21.0862 46.5442 15.5451 46.536 13.6964 48.6888Z" fill="black"/>
</g>
<g style="mix-blend-mode:overlay" opacity="0.2">
<path d="M24.1927 52.1342C24.0232 50.7017 31.2636 51.9324 33.2844 51.5299C35.3052 51.1275 36.7187 56.2608 36.315 57.2701C35.9114 58.2794 31.7691 59.587 30.4557 59.4836C29.1422 59.3801 24.5964 55.5581 24.1927 52.1342Z" fill="black"/>
</g>
<g style="mix-blend-mode:overlay" opacity="0.2">
<path d="M36.713 51.6024C37.8739 52.6987 43.7029 48.5456 40.0238 45.6099C36.3447 42.6742 34.3834 49.4016 36.713 51.6024Z" fill="black"/>
</g>
<g style="mix-blend-mode:overlay" opacity="0.2">
<path d="M45.2049 49.8173C45.68 51.5356 54.1954 44.2815 53.488 41.7583C52.7807 39.2352 47.8312 39.9473 46.4171 40.3504C45.0031 40.7535 43.2853 42.8679 45.2049 49.8173Z" fill="black"/>
</g>
<g style="mix-blend-mode:overlay" opacity="0.2">
<path d="M33.5875 36.0181C34.7896 37.9376 39.4462 33.601 40.1535 33.0976C40.8609 32.5942 40.1535 27.2558 40.5578 25.4429C40.9621 23.63 36.8199 23.9322 34.4966 25.9476C32.1734 27.9629 30.9606 28.9691 31.971 32.2927C32.9814 35.6163 33.082 35.2139 33.5875 36.0181Z" fill="black"/>
</g>
<g style="mix-blend-mode:overlay" opacity="0.2">
<path d="M21.364 22.2209C21.0856 24.2766 24.5964 25.1421 26.5159 23.9335C28.4355 22.7249 28.1325 20.8111 27.3239 19.5015C26.5153 18.192 21.8688 18.4948 21.364 22.2209Z" fill="black"/>
</g>
<g style="mix-blend-mode:overlay" opacity="0.2">
<path d="M10.3527 27.7604C11.8427 27.3643 13.6863 23.7315 13.8881 22.5248C14.09 21.3181 7.11837 19.4031 5.60499 19.7052C4.0916 20.0074 3.40513 24.2709 3.99986 25.7148C4.59458 27.1586 7.3221 28.5659 10.3527 27.7604Z" fill="black"/>
</g>
<g style="mix-blend-mode:overlay" opacity="0.2">
<path d="M15.6059 17.5883C17.2224 17.5883 22.1719 15.5736 24.6976 15.7755C27.2233 15.9773 23.9903 13.1564 21.9701 11.4444C19.9499 9.73248 17.5255 8.42295 16.2126 8.92633C14.8998 9.4297 10.4552 12.0487 10.8582 13.4586C11.2612 14.8684 13.7875 17.5883 15.6059 17.5883Z" fill="black"/>
</g>
<g style="mix-blend-mode:overlay" opacity="0.2">
<path d="M45.2049 22.0197C44.3331 23.3954 49.4477 29.1703 51.8722 29.4725C54.2966 29.7746 56.6173 22.2184 55.9125 20.912C55.2077 19.6056 51.8722 17.8905 50.8618 17.8905C49.8514 17.8905 46.4171 20.1058 45.2049 22.0197Z" fill="black"/>
</g>
<g style="mix-blend-mode:overlay" opacity="0.2">
<path d="M3.99985 40.8204C4.81792 41.8605 6.91781 41.1559 7.52392 39.8464C8.13004 38.5369 8.23127 37.1271 7.42333 36.2206C6.61538 35.3142 5.09947 35.516 4.19029 36.2206C3.28112 36.9252 3.10017 39.6767 3.99985 40.8204Z" fill="black"/>
</g>
<g style="mix-blend-mode:overlay" opacity="0.2">
<path d="M10.0496 33.7031C9.77566 34.59 11.4637 38.8396 13.0802 39.0409C14.6967 39.2421 18.0303 37.6311 19.3438 36.6237C20.6572 35.6163 22.1719 33.9043 22.2731 32.1917C22.3744 30.4792 16.1108 28.3647 15.3028 28.3647C14.4949 28.3647 10.4539 32.3936 10.0496 33.7031Z" fill="black"/>
</g>
<path d="M12.7904 22.8667C11.5801 24.2961 10.8215 25.9191 10.5127 26.6546C10.4659 26.7658 10.3807 26.8565 10.2725 26.9104C10.1643 26.9644 10.0404 26.9779 9.92308 26.9486L5.11149 25.7501C4.99576 25.7207 4.89418 25.6514 4.82472 25.5546C4.75525 25.4577 4.72236 25.3395 4.73188 25.2208L4.82362 24.069L5.05645 21.1724C5.06226 21.1017 5.08296 21.033 5.1172 20.9708C5.15145 20.9086 5.19847 20.8543 5.25519 20.8114C5.31191 20.7686 5.37705 20.7381 5.44638 20.7221C5.5157 20.706 5.58764 20.7047 5.6575 20.7183L10.7918 21.7168L12.5 22.0492C12.586 22.0663 12.6661 22.1054 12.7324 22.1626C12.7988 22.2198 12.849 22.2932 12.8783 22.3757C12.9076 22.4581 12.9149 22.5467 12.8995 22.6328C12.8841 22.7189 12.8465 22.7995 12.7904 22.8667Z" fill="#934834"/>
<path d="M29.9964 45.1772L23.9188 48.4662C23.8473 48.5045 23.7677 48.5251 23.6865 48.5263C23.6054 48.5275 23.5252 48.5093 23.4526 48.4731C23.3801 48.4369 23.3173 48.3839 23.2696 48.3185C23.2219 48.253 23.1906 48.1771 23.1785 48.0972L22.7913 45.4737L22.3206 42.285C22.3064 42.1887 22.3205 42.0904 22.3611 42.0018C22.4018 41.9133 22.4672 41.8384 22.5496 41.7861L27.7687 38.4921C27.8347 38.4506 27.9095 38.4249 27.9872 38.417C28.0649 38.4091 28.1433 38.4193 28.2164 38.4466C28.2895 38.474 28.3552 38.5179 28.4085 38.5748C28.4618 38.6317 28.5011 38.7001 28.5235 38.7747L29.1669 40.9547L30.2425 44.5925C30.2747 44.7033 30.2678 44.8218 30.223 44.9282C30.1783 45.0346 30.0983 45.1225 29.9964 45.1772Z" fill="#934834"/>
<path d="M21.4892 32.605L19.1274 35.8018C19.0705 35.8779 18.9937 35.9368 18.9053 35.9721L13.7844 37.9774C13.6725 38.0211 13.5487 38.0237 13.4352 37.9847C13.3216 37.9458 13.2256 37.8678 13.1643 37.7648L10.9556 34.0394C10.8987 33.9431 10.8755 33.8307 10.8896 33.7199C10.9037 33.609 10.9543 33.506 11.0334 33.4269L14.9612 29.5109C15.0324 29.4404 15.1231 29.3926 15.2217 29.3737C15.3203 29.3547 15.4223 29.3654 15.5148 29.4043L21.1862 31.8013L21.2798 31.8404C21.3503 31.8702 21.413 31.9155 21.4633 31.973C21.5137 32.0304 21.5503 32.0985 21.5705 32.1721C21.5906 32.2457 21.5938 32.3228 21.5797 32.3978C21.5656 32.4728 21.5347 32.5436 21.4892 32.605Z" fill="#934834"/>
<path d="M39.4879 32.6749L34.3632 35.2277C34.2946 35.2618 34.2191 35.2799 34.1425 35.2807C34.0659 35.2815 33.9901 35.2649 33.9208 35.2323C33.8515 35.1996 33.7906 35.1517 33.7426 35.0921C33.6946 35.0325 33.6608 34.9628 33.6438 34.8883L33.3306 33.5057L32.4499 29.613C32.4272 29.5126 32.4358 29.4077 32.4746 29.3123C32.5134 29.2169 32.5805 29.1357 32.6669 29.0794L37.8455 25.7362L38.9362 25.031C39.0166 24.9795 39.1099 24.9517 39.2055 24.9508C39.301 24.95 39.3948 24.9761 39.4761 25.0262C39.5573 25.0763 39.6227 25.1482 39.6647 25.2338C39.7066 25.3194 39.7235 25.415 39.7132 25.5097C39.5354 27.0911 39.2988 30.0861 39.7556 32.1236C39.7784 32.2321 39.7646 32.345 39.7161 32.4448C39.6677 32.5445 39.5874 32.6255 39.4879 32.6749Z" fill="#934834"/>
<path d="M22.9166 15.0588C18.782 15.5805 16.6726 16.5267 16.0279 16.861C15.9564 16.898 15.8771 16.9173 15.7966 16.9173C15.7161 16.9173 15.6368 16.898 15.5654 16.861C14.722 16.4308 11.9692 14.9219 11.9692 13.5575C11.9692 13.5436 11.9692 13.5291 11.9692 13.5153C12.0362 12.089 15.4325 10.519 16.1721 10.1935C16.2632 10.1539 16.3639 10.1416 16.4619 10.1582C17.9531 10.4193 19.1692 10.8975 20.1492 11.4557C21.7942 12.3925 22.7736 13.5506 23.2715 14.2747C23.3201 14.3461 23.3496 14.4288 23.357 14.5147C23.3645 14.6007 23.3497 14.6871 23.3141 14.7658C23.2785 14.8444 23.2233 14.9127 23.1537 14.964C23.0841 15.0153 23.0024 15.0479 22.9166 15.0588Z" fill="#934834"/>
<path d="M35.7513 57.0922C35.3084 58.5052 31.3225 58.9972 30.6708 59.0684C30.6118 59.0752 30.552 59.0643 30.4993 59.0369C29.7721 58.6716 29.0845 58.2326 28.4475 57.7268C26.0996 55.8565 25.3126 53.6657 25.0715 52.7322C25.0586 52.6829 25.0583 52.6311 25.0708 52.5817C25.0834 52.5323 25.1082 52.4869 25.143 52.4496C25.1779 52.4123 25.2216 52.3845 25.2702 52.3686C25.3187 52.3527 25.3705 52.3493 25.4207 52.3587C28.7961 52.9832 30.9973 52.9416 32.1456 52.8299C32.5334 52.7927 32.801 52.7473 32.9529 52.717C33.001 52.7075 33.0506 52.7098 33.0976 52.7238C33.1446 52.7377 33.1874 52.7629 33.2224 52.7971C33.7855 53.3383 36.1752 55.7335 35.7513 57.0922Z" fill="#934834"/>
<path d="M55.0438 21.1888L53.6336 24.8607L52.3517 28.1963C52.3214 28.2736 52.2724 28.3423 52.2091 28.3963C52.1458 28.4502 52.0701 28.4877 51.9887 28.5055C51.9074 28.5233 51.8229 28.5208 51.7427 28.4982C51.6626 28.4756 51.5892 28.4337 51.5292 28.3761L46.1229 23.1153C46.0717 23.0649 46.0319 23.0041 46.0061 22.9371C45.9803 22.8702 45.9691 22.7985 45.9733 22.7268C45.9775 22.6552 45.9969 22.5853 46.0304 22.5217C46.0638 22.4582 46.1105 22.4025 46.1672 22.3583L48.0931 20.8735L50.6024 18.9382C50.6753 18.8819 50.7624 18.8465 50.854 18.836C50.9457 18.8254 51.0385 18.84 51.1224 18.8783L54.7781 20.5524C54.8951 20.6051 54.9876 20.7002 55.037 20.8183C55.0863 20.9365 55.0888 21.0689 55.0438 21.1888Z" fill="#934834"/>
<path d="M52.8617 42.2478C51.8367 45.8118 48.0273 48.3148 46.426 49.2313C46.3509 49.2746 46.266 49.298 46.1793 49.2993C46.0926 49.3005 46.0071 49.2795 45.9309 49.2382C45.8546 49.197 45.7903 49.137 45.7441 49.0638C45.6978 48.9907 45.6712 48.907 45.6667 48.8207L45.5535 46.5965L45.3251 42.1368C45.3198 42.0277 45.3501 41.9199 45.4115 41.8295C45.4728 41.7391 45.562 41.6709 45.6655 41.6353L48.6897 40.6021C48.7881 40.568 48.8948 40.5655 48.9947 40.5951L51.607 41.3565L52.5181 41.6221C52.6469 41.6597 52.7554 41.7467 52.8198 41.864C52.8842 41.9814 52.8993 42.1194 52.8617 42.2478Z" fill="#934834"/>
<path d="M14.2203 48.8106C12.1913 51.1729 19.8253 52.6376 20.1365 49.8198C20.4478 47.0021 15.7773 46.9977 14.2203 48.8106Z" fill="#934834"/>
<path d="M22.475 22.0196C22.1377 23.8123 26.9202 24.8399 27.1221 21.6166C27.3239 18.3932 23.0811 18.7976 22.475 22.0196Z" fill="#934834"/>
<path d="M36.6181 49.4148C37.0217 51.832 40.4566 50.6234 40.0523 47.6019C39.648 44.5804 36.2138 46.9976 36.6181 49.4148Z" fill="#934834"/>
<path d="M4.0897 39.4439C4.40604 41.0241 7.52393 40.6525 7.52393 38.2353C7.52393 35.8181 3.28113 35.4151 4.0897 39.4439Z" fill="#934834"/>
<g style="mix-blend-mode:overlay" opacity="0.4">
<path d="M21.4892 32.605L19.1274 35.8018C19.0705 35.8779 18.9937 35.9368 18.9053 35.9721L13.7844 37.9774C13.6725 38.0211 13.5487 38.0237 13.4352 37.9847C13.3216 37.9458 13.2256 37.8678 13.1643 37.7648L10.9556 34.0394C10.9176 33.9748 10.8945 33.9026 10.8879 33.8281C12.3387 35.26 16.1563 37.8071 21.1862 31.8032L21.2798 31.8423C21.35 31.8722 21.4124 31.9174 21.4626 31.9747C21.5127 32.032 21.5492 32.0999 21.5693 32.1732C21.5895 32.2465 21.5927 32.3235 21.5788 32.3982C21.565 32.473 21.5343 32.5437 21.4892 32.605Z" fill="black"/>
</g>
<g style="mix-blend-mode:overlay" opacity="0.4">
<path d="M29.9963 45.1772L23.9188 48.4662C23.8473 48.5045 23.7677 48.5251 23.6865 48.5263C23.6054 48.5275 23.5252 48.5093 23.4526 48.4731C23.3801 48.4369 23.3173 48.3839 23.2696 48.3185C23.2219 48.2531 23.1906 48.1771 23.1785 48.0972L22.7913 45.4737C23.982 45.7544 25.5511 45.9518 26.5159 45.386C27.5814 44.7603 28.5696 42.5475 29.1656 40.9547L30.2412 44.5925C30.2735 44.7032 30.2669 44.8216 30.2223 44.928C30.1778 45.0343 30.098 45.1223 29.9963 45.1772Z" fill="black"/>
</g>
<g style="mix-blend-mode:overlay" opacity="0.4">
<path d="M52.8617 42.2479C51.8367 45.8118 48.0273 48.3148 46.426 49.2314C46.351 49.2747 46.266 49.2981 46.1793 49.2993C46.0926 49.3005 46.0071 49.2795 45.9309 49.2383C45.8547 49.1971 45.7903 49.137 45.7441 49.0639C45.6978 48.9908 45.6712 48.907 45.6667 48.8207L45.5535 46.5965C47.2909 46.1253 50.8339 44.7193 51.6064 41.361L52.5175 41.6265C52.6453 41.664 52.7532 41.7503 52.8177 41.8667C52.8821 41.983 52.8979 42.12 52.8617 42.2479Z" fill="black"/>
</g>
<g style="mix-blend-mode:overlay" opacity="0.4">
<path d="M39.4879 32.6749L34.3632 35.2277C34.2946 35.2618 34.2191 35.2799 34.1425 35.2807C34.0659 35.2815 33.9901 35.2649 33.9208 35.2323C33.8515 35.1996 33.7906 35.1516 33.7426 35.0921C33.6946 35.0325 33.6609 34.9628 33.6438 34.8883L33.3306 33.5056C35.0319 33.2741 37.5196 32.8357 38.2308 32.1911C39.2171 31.2979 39.4867 27.5503 37.8423 25.7324L38.9331 25.0272C39.0134 24.9757 39.1068 24.9479 39.2023 24.947C39.2978 24.9462 39.3916 24.9723 39.4729 25.0224C39.5542 25.0725 39.6196 25.1445 39.6615 25.23C39.7035 25.3156 39.7203 25.4113 39.71 25.506C39.5322 27.0873 39.2956 30.0823 39.7524 32.1198C39.7764 32.2285 39.7635 32.342 39.7156 32.4425C39.6677 32.5431 39.5876 32.6248 39.4879 32.6749Z" fill="black"/>
</g>
<g style="mix-blend-mode:overlay" opacity="0.4">
<path d="M12.7904 22.8667C11.5801 24.2961 10.8215 25.9191 10.5127 26.6546C10.4659 26.7658 10.3807 26.8565 10.2725 26.9104C10.1643 26.9644 10.0404 26.9779 9.92308 26.9486L5.11149 25.7501C4.99576 25.7207 4.89418 25.6515 4.82472 25.5546C4.75525 25.4578 4.72236 25.3395 4.73188 25.2208L4.82362 24.069C6.20478 24.8581 8.15978 25.8296 9.14234 25.646C10.5728 25.3792 11.4498 23.5341 10.7918 21.7168L12.5 22.0492C12.586 22.0663 12.6661 22.1054 12.7324 22.1626C12.7988 22.2198 12.849 22.2932 12.8783 22.3757C12.9076 22.4581 12.9149 22.5467 12.8995 22.6328C12.8841 22.7189 12.8465 22.7995 12.7904 22.8667Z" fill="black"/>
</g>
<g style="mix-blend-mode:overlay" opacity="0.4">
<path d="M22.9166 15.0588C18.782 15.5804 16.6726 16.5266 16.0279 16.861C15.9564 16.8979 15.8771 16.9173 15.7966 16.9173C15.7161 16.9173 15.6368 16.8979 15.5654 16.861C14.722 16.4308 11.9692 14.9219 11.9692 13.5575C11.9692 13.5436 11.9692 13.5291 11.9692 13.5152C13.2807 14.4318 14.9922 15.4707 16.0095 15.4707C17.8279 15.4707 19.848 13.6578 20.5554 13.3556C20.8863 13.2131 20.5744 12.3413 20.1492 11.4551C21.7942 12.3918 22.7736 13.5499 23.2715 14.2741C23.3203 14.3455 23.3498 14.4282 23.3574 14.5142C23.3649 14.6003 23.3502 14.6868 23.3146 14.7656C23.2789 14.8443 23.2236 14.9126 23.154 14.964C23.0843 15.0153 23.0025 15.048 22.9166 15.0588Z" fill="black"/>
</g>
<g style="mix-blend-mode:overlay" opacity="0.4">
<path d="M53.6304 24.8606L52.3517 28.1963C52.3214 28.2736 52.2724 28.3423 52.2091 28.3962C52.1458 28.4502 52.0701 28.4877 51.9887 28.5055C51.9074 28.5233 51.8229 28.5207 51.7427 28.4982C51.6626 28.4756 51.5892 28.4336 51.5293 28.376L46.1229 23.1152C46.0717 23.0648 46.0319 23.0041 46.0061 22.9371C45.9803 22.8701 45.9691 22.7984 45.9733 22.7268C45.9775 22.6551 45.9969 22.5852 46.0304 22.5217C46.0638 22.4581 46.1105 22.4024 46.1672 22.3583L48.0931 20.8734C47.9577 21.648 47.921 22.4643 48.2336 22.8289C48.8397 23.5341 50.5568 25.7501 51.6678 25.7501C52.2891 25.7463 53.0648 25.277 53.6304 24.8606Z" fill="black"/>
</g>
<g style="mix-blend-mode:overlay" opacity="0.4">
<path d="M35.7513 57.0922C35.3084 58.5052 31.3225 58.9972 30.6708 59.0685C30.6118 59.0753 30.5521 59.0643 30.4993 59.037C29.7721 58.6717 29.0845 58.2327 28.4475 57.7268C29.5554 58.0018 30.8625 58.1759 31.6679 57.7741C33.0187 57.1004 33.0997 54.6694 32.1456 52.83C32.5334 52.7928 32.8011 52.7473 32.9529 52.7171C33.001 52.7075 33.0507 52.7099 33.0976 52.7238C33.1446 52.7378 33.1874 52.763 33.2224 52.7972C33.7855 53.3384 36.1752 55.7335 35.7513 57.0922Z" fill="black"/>
</g>
<g style="mix-blend-mode:overlay" opacity="0.4">
<path d="M19.6456 48.2933C19.6456 48.3627 19.6399 48.4346 19.6317 48.5084C19.4096 50.5194 15.4629 50.351 13.9539 49.232C13.096 51.3356 19.8442 52.4654 20.1365 49.8173C20.2093 49.1607 20.0113 48.6567 19.6456 48.2933Z" fill="black"/>
</g>
<g style="mix-blend-mode:overlay" opacity="0.4">
<path d="M26.6191 19.9204C26.6263 20.0494 26.6263 20.1787 26.6191 20.3077C26.4666 22.7337 23.7195 22.7514 22.5142 21.8468C22.5009 21.9036 22.4883 21.961 22.4769 22.0197C22.1396 23.8124 26.9221 24.8399 27.1239 21.6166C27.1701 20.8489 26.9658 20.2875 26.6191 19.9204Z" fill="black"/>
</g>
<g style="mix-blend-mode:overlay" opacity="0.4">
<path d="M40.0523 47.602C39.9783 47.045 39.7992 46.6728 39.5626 46.4514C39.7783 48.8232 37.6057 50.0065 36.589 49.066C36.5913 49.1829 36.602 49.2995 36.6212 49.4149C37.0217 51.8321 40.4566 50.6235 40.0523 47.602Z" fill="black"/>
</g>
<g style="mix-blend-mode:overlay" opacity="0.4">
<path d="M7.01715 36.9688C6.98678 38.9116 4.92548 39.5058 3.99986 38.798C4.01655 39.0139 4.04655 39.2286 4.0897 39.4408C4.40605 41.021 7.52393 40.6494 7.52393 38.2322C7.52724 37.9987 7.48417 37.7668 7.39719 37.55C7.31021 37.3331 7.18105 37.1356 7.01715 36.9688Z" fill="black"/>
</g>
<g style="mix-blend-mode:overlay" opacity="0.2">
<path d="M26.2078 30.2496C27.3783 26.1639 30.7252 31.6007 28.9182 33.7025C27.1113 35.8043 25.6055 32.3514 26.2078 30.2496Z" fill="black"/>
</g>
<g style="mix-blend-mode:overlay" opacity="0.2">
<path d="M37.729 40.9547C37.3248 42.2636 42.2749 42.3646 42.2749 40.5517C42.2749 38.7388 38.1333 39.6452 37.729 40.9547Z" fill="black"/>
</g>
<g style="mix-blend-mode:overlay" opacity="0.2">
<path d="M15.8077 23.8325C14.908 25.1288 18.7377 25.5444 19.1413 24.4368C19.545 23.3291 16.7169 22.5229 15.8077 23.8325Z" fill="black"/>
</g>
<g style="mix-blend-mode:overlay" opacity="0.2">
<path d="M47.5281 34.9117C46.2899 36.3701 52.6801 36.7246 52.6801 35.3141C52.6801 33.9037 49.7507 32.2927 47.5281 34.9117Z" fill="black"/>
</g>
<g style="mix-blend-mode:overlay" opacity="0.2">
<path d="M46.619 33.3001C46.619 34.7667 48.7403 33.6022 48.3361 32.3936C47.9318 31.1851 46.619 31.9906 46.619 33.3001Z" fill="black"/>
</g>
<g style="mix-blend-mode:overlay" opacity="0.2">
<path d="M5.50439 31.3862C5.20196 32.14 7.02283 32.4945 7.2215 31.2853C7.42016 30.076 5.70558 30.8828 5.50439 31.3862Z" fill="black"/>
</g>
<g style="mix-blend-mode:overlay" opacity="0.2">
<path d="M8.53432 30.3789C8.85889 31.5143 9.84778 30.6811 9.64532 29.7746C9.44286 28.8682 8.3325 29.6743 8.53432 30.3789Z" fill="black"/>
</g>
<g style="mix-blend-mode:overlay" opacity="0.2">
<path d="M24.4958 28.566C23.9112 29.586 25.8086 30.1777 26.0111 29.1703C26.2135 28.1629 24.8994 27.8614 24.4958 28.566Z" fill="black"/>
</g>
<g style="mix-blend-mode:overlay" opacity="0.2">
<path d="M10.0496 44.7817C10.1762 45.5387 13.8881 45.791 13.8881 43.7725C13.8881 41.754 9.84779 43.5732 10.0496 44.7817Z" fill="black"/>
</g>
<g style="mix-blend-mode:overlay" opacity="0.2">
<path d="M14.8985 43.7768C15.2016 44.8851 17.5255 44.3811 16.7169 43.4747C15.9083 42.5682 14.5955 42.6666 14.8985 43.7768Z" fill="black"/>
</g>
<g style="mix-blend-mode:overlay" opacity="0.2">
<path d="M10.7557 44.4796C10.681 44.9212 13.4832 44.7818 13.382 43.8753C13.2807 42.9689 10.8576 43.8753 10.7557 44.4796Z" fill="black"/>
</g>
<g style="mix-blend-mode:overlay" opacity="0.2">
<path d="M15.4034 43.3718C15.051 43.6532 15.8077 44.1773 16.1108 43.8765C16.4138 43.5756 15.9089 42.9688 15.4034 43.3718Z" fill="black"/>
</g>
<g style="mix-blend-mode:overlay" opacity="0.2">
<path d="M27.7288 33.5896C28.6658 33.7063 29.1422 30.3788 27.3777 29.3917C26.6937 29.0094 26.3255 33.4148 27.7288 33.5896Z" fill="black"/>
</g>
<g style="mix-blend-mode:overlay" opacity="0.2">
<path d="M48.7403 34.8108C48.3253 36.0528 51.8721 35.7173 51.7709 35.012C51.6697 34.3068 49.0434 33.9044 48.7403 34.8108Z" fill="black"/>
</g>
<path d="M46.3127 5.44498C46.86 6.66808 48.5904 6.32808 47.9628 5.00784C47.6116 4.2717 45.7572 4.20673 46.3127 5.44498Z" fill="#EFAE59"/>
<g style="mix-blend-mode:overlay" opacity="0.2">
<path d="M46.7372 4.9346C46.4892 5.34272 47.4826 6.02839 47.5888 5.51808C47.6951 5.00777 47.0036 4.49746 46.7372 4.9346Z" fill="black"/>
</g>
<path d="M35.502 5.33141C35.4432 6.53875 37.4039 5.39449 37.1109 4.70819C36.818 4.02189 35.5507 4.33476 35.502 5.33141Z" fill="#EFAE59"/>
<g style="mix-blend-mode:overlay" opacity="0.2">
<path d="M35.8924 5.33141C35.9594 6.02528 36.8674 5.07909 36.6725 4.83308C36.4776 4.58708 35.843 4.83308 35.8924 5.33141Z" fill="black"/>
</g>
<g style="mix-blend-mode:overlay" opacity="0.2">
<path d="M38.7395 41.055C38.8287 41.5899 41.0627 41.3572 41.0627 40.5504C41.0627 39.7436 38.537 39.8464 38.7395 41.055Z" fill="black"/>
</g>
<g style="mix-blend-mode:overlay" opacity="0.2">
<path d="M34.9003 43.9762C34.9003 45.2221 38.537 45.1848 37.8303 43.5732C37.1236 41.9615 34.9003 41.7584 34.9003 43.9762Z" fill="black"/>
</g>
<g style="mix-blend-mode:overlay" opacity="0.2">
<path d="M35.5064 43.4722C35.4552 43.9832 36.9211 44.6808 36.9211 43.7744C36.9211 42.8679 35.6077 42.4655 35.5064 43.4722Z" fill="black"/>
</g>
<g style="mix-blend-mode:overlay" opacity="0.3">
<path d="M5.70559 22.4227C5.30952 23.1247 8.93862 25.142 9.4435 23.7316C9.94839 22.3211 6.61476 20.811 5.70559 22.4227Z" fill="white"/>
</g>
<g style="mix-blend-mode:overlay" opacity="0.3">
<path d="M13.1814 13.1564C12.879 13.6901 19.6468 14.1657 19.5456 12.8543C19.4444 11.5429 14.4942 10.8402 13.1814 13.1564Z" fill="white"/>
</g>
<path d="M45.1549 0.819973C45.1549 0.825019 45.1498 0.830065 45.1467 0.837004C44.9898 1.14798 44.7671 1.58386 44.5045 2.04686C43.9458 3.0391 43.2233 4.16316 42.6583 4.47856C42.5968 4.51481 42.53 4.54121 42.4603 4.55678C41.8042 4.69114 40.3186 3.2542 39.2899 2.14463C38.9982 1.82924 38.7426 1.54475 38.5528 1.32461C38.5166 1.27864 38.4919 1.22473 38.4808 1.16735C38.4696 1.10998 38.4724 1.05078 38.4888 0.994663C38.5052 0.93855 38.5347 0.88714 38.575 0.844693C38.6153 0.802247 38.6652 0.769986 38.7205 0.750586L40.9855 0.0157143C41.0262 0.00218046 41.0693 -0.00276029 41.112 0.00120611L44.9082 0.319756C45.1359 0.33931 45.265 0.597934 45.1549 0.819973Z" fill="#EFAE59"/>
<g style="mix-blend-mode:overlay" opacity="0.4">
<path d="M45.1549 0.819973C45.1549 0.825019 45.1498 0.830065 45.1467 0.837004C44.9898 1.14798 44.7671 1.58386 44.5045 2.04686C43.9458 3.0391 43.2233 4.16316 42.6583 4.47856C41.8358 3.78469 43.942 1.4167 43.4549 1.24071C42.1326 0.762571 40.0592 1.3347 39.2899 2.14463C38.9982 1.82924 38.7426 1.54475 38.5528 1.32461C38.5166 1.27864 38.4919 1.22473 38.4808 1.16735C38.4696 1.10997 38.4724 1.05078 38.4888 0.994663C38.5052 0.93855 38.5347 0.88714 38.575 0.844693C38.6153 0.802247 38.6652 0.769986 38.7205 0.750586L40.9855 0.0157143C41.0262 0.00218046 41.0693 -0.00276029 41.112 0.00120611L44.9082 0.319756C45.1359 0.33931 45.265 0.597934 45.1549 0.819973Z" fill="black"/>
</g>
<g style="mix-blend-mode:overlay" opacity="0.2">
<path d="M43.7282 1.30257C43.7503 1.0143 41.0899 0.500836 40.6673 1.20732C40.4389 1.5858 41.8852 3.11231 42.4388 2.93695C42.9924 2.76159 43.6725 2.0324 43.7282 1.30257Z" fill="black"/>
</g>
<g style="mix-blend-mode:overlay" opacity="0.3">
<path d="M33.5875 29.8755C33.7545 28.7085 37.0217 27.9617 37.5272 27.9617C38.0328 27.9617 37.9309 30.4798 37.5272 31.0841C37.1236 31.6884 35.2034 32.6958 34.4967 32.6958C33.79 32.6958 33.4863 30.5807 33.5875 29.8755Z" fill="white"/>
</g>
<g style="mix-blend-mode:overlay" opacity="0.3">
<path d="M12.3728 34.0053C12.5715 34.8954 19.3438 34.0053 19.3438 32.6958C19.3438 31.3863 15.8077 30.9832 14.9998 31.0841C14.1918 31.185 12.171 33.0989 12.3728 34.0053Z" fill="white"/>
</g>
<g style="mix-blend-mode:overlay" opacity="0.3">
<path d="M22.9805 42.4654C23.2551 41.6454 27.2233 39.5442 28.0312 40.2495C28.8392 40.9547 26.9202 44.4795 25.5055 44.6807C24.0908 44.882 22.5762 43.674 22.9805 42.4654Z" fill="white"/>
</g>
<g style="mix-blend-mode:overlay" opacity="0.3">
<path d="M26.011 53.3428C26.0477 53.1207 31.6679 53.3428 31.8697 54.2492C32.0716 55.1557 30.6575 57.1698 29.4453 57.1698C28.233 57.1698 25.9098 53.9471 26.011 53.3428Z" fill="white"/>
</g>
<g style="mix-blend-mode:overlay" opacity="0.3">
<path d="M46.2147 42.1633C46.5759 41.5325 50.8618 41.3572 50.8618 42.0624C50.8618 42.7676 47.1238 45.5873 46.5177 45.5873C45.9116 45.5873 45.811 42.8679 46.2147 42.1633Z" fill="white"/>
</g>
<g style="mix-blend-mode:overlay" opacity="0.3">
<path d="M50.8618 19.5015C51.1648 19.5015 53.5893 20.5107 53.6905 21.5162C53.7917 22.5217 52.172 24.9401 51.266 24.7389C50.36 24.5377 48.7404 22.8251 48.7404 22.1205C48.7404 21.4159 50.0538 19.5015 50.8618 19.5015Z" fill="white"/>
</g>
<g style="mix-blend-mode:overlay" opacity="0.3">
<path d="M5.56345 38.1793C6.03124 38.102 6.3621 37.7485 6.30246 37.3897C6.24281 37.0309 5.81525 36.8027 5.34746 36.8799C4.87967 36.9572 4.54881 37.3108 4.60845 37.6696C4.6681 38.0284 5.09566 38.2566 5.56345 38.1793Z" fill="white"/>
</g>
<g style="mix-blend-mode:overlay" opacity="0.3">
<path d="M24.7002 21.8353C25.3662 21.7252 25.8373 21.222 25.7524 20.7113C25.6675 20.2006 25.0588 19.8758 24.3928 19.9858C23.7268 20.0959 23.2557 20.5991 23.3406 21.1098C23.4255 21.6205 24.0342 21.9453 24.7002 21.8353Z" fill="white"/>
</g>
<g style="mix-blend-mode:overlay" opacity="0.2">
<path d="M39.617 20.4225C39.4272 22.8403 31.4598 21.2595 32.641 19.1438C33.2737 18.0084 33.9412 17.2792 34.6023 16.8591C34.9266 16.8143 35.2538 16.7942 35.5811 16.7992C35.9199 16.8044 36.2567 16.8528 36.5833 16.943C36.702 16.9762 36.819 17.0153 36.9338 17.0603C37.1173 17.1313 37.2954 17.2156 37.4665 17.3127C37.7728 17.4865 38.061 17.6901 38.3269 17.9207C38.3345 17.9258 38.3409 17.9327 38.3478 17.9384C38.4522 18.028 38.5572 18.1112 38.6642 18.1869C38.8016 18.2871 38.9451 18.3787 39.0938 18.4613C39.4645 19.1224 39.6638 19.8352 39.617 20.4225Z" fill="black"/>
</g>
<path d="M33.7223 18.8089C32.5151 20.2937 36.3701 22.1382 37.9727 20.6035C39.5753 19.0687 35.7703 16.2857 33.7223 18.8089Z" fill="#934834"/>
<g style="mix-blend-mode:overlay" opacity="0.4">
<path d="M38.3295 19.526C36.9559 20.4647 34.4663 19.5311 34.1259 18.3944C33.9776 18.5194 33.8416 18.6581 33.7197 18.8088C32.5126 20.2937 36.3675 22.1382 37.9701 20.6034C38.3086 20.2792 38.4041 19.8995 38.3295 19.526Z" fill="black"/>
</g>
<g style="mix-blend-mode:overlay" opacity="0.3">
<path d="M37.3817 19.1341C37.4369 18.8606 36.945 18.5313 36.2831 18.3987C35.6213 18.2662 35.0401 18.3805 34.9849 18.654C34.9298 18.9276 35.4216 19.2569 36.0835 19.3895C36.7454 19.522 37.3266 19.4077 37.3817 19.1341Z" fill="white"/>
</g>
<g style="mix-blend-mode:overlay" opacity="0.3">
<path d="M16.7849 49.5037C17.554 49.3767 18.1257 48.9627 18.062 48.5792C17.9982 48.1956 17.3231 47.9877 16.554 48.1148C15.7849 48.2418 15.2132 48.6558 15.2769 49.0393C15.3407 49.4229 16.0158 49.6308 16.7849 49.5037Z" fill="white"/>
</g>
<g style="mix-blend-mode:overlay" opacity="0.3">
<path d="M38.5205 47.0002C38.7901 47.1933 38.7837 47.6619 38.506 48.0486C38.2282 48.4353 37.7847 48.5917 37.5152 48.3993C37.2457 48.2069 37.252 47.7376 37.5297 47.351C37.8075 46.9643 38.251 46.8078 38.5205 47.0002Z" fill="white"/>
</g>
<g style="mix-blend-mode:overlay" opacity="0.2">
<path d="M22.2959 17.5783C22.1002 17.6505 21.9099 17.7365 21.7265 17.8356C21.3583 18.0305 21.0135 18.257 20.6667 18.474C19.9796 18.9155 19.3001 19.3533 18.582 19.6548C18.405 19.7302 18.2237 19.7955 18.0392 19.8504C17.8591 19.9051 17.6754 19.9472 17.4894 19.9765C17.1394 20.0379 16.7799 20.0176 16.4391 19.9172C16.0862 19.8037 15.7519 19.6389 15.4471 19.4284C15.1219 19.2183 14.7998 18.9748 14.4689 18.7345C14.138 18.4942 13.797 18.2513 13.4415 18.0268C13.0842 17.7986 12.7131 17.5926 12.3305 17.4098C11.9467 17.2283 11.5505 17.0743 11.1448 16.9487C10.9417 16.8857 10.738 16.8301 10.5317 16.7822C10.4229 16.7563 10.3419 16.7399 10.2527 16.7135C10.1635 16.687 10.0768 16.6586 9.99077 16.6239C9.63804 16.4805 9.30812 16.2867 9.01137 16.0486C8.70411 15.8032 8.41971 15.5307 8.16167 15.2342C7.89621 14.9323 7.65044 14.6138 7.42586 14.2805C7.31071 14.1133 7.20126 13.9424 7.0956 13.7689C6.98994 13.5955 6.88744 13.4188 6.79001 13.2378C6.9077 13.6324 7.05707 14.017 7.23669 14.3877C7.41613 14.763 7.62339 15.1244 7.85672 15.4689C8.0946 15.8198 8.36856 16.1449 8.67415 16.4391C8.98877 16.7439 9.34961 16.9975 9.74339 17.1903C9.84336 17.2395 9.94775 17.2812 10.0534 17.3209C10.1591 17.3606 10.2749 17.3928 10.3628 17.4199C10.5526 17.478 10.7424 17.5385 10.924 17.6092C11.2916 17.7457 11.6507 17.9039 11.9996 18.0829C12.6993 18.4406 13.3484 18.8891 14.0007 19.3716C14.3297 19.6107 14.6619 19.8573 15.0238 20.0882C15.3857 20.3191 15.7862 20.5297 16.2373 20.6452C16.2462 20.6616 16.2544 20.6786 16.2632 20.6956C16.3515 20.8542 16.4542 21.0044 16.5701 21.1441C16.8059 21.4303 17.0943 21.669 17.4198 21.8475C17.7537 22.0325 18.1285 22.132 18.5105 22.137C18.8863 22.1437 19.2544 22.0307 19.5614 21.8147C19.225 21.8091 18.8902 21.7668 18.5631 21.6885C18.26 21.6097 17.968 21.4936 17.6937 21.3428C17.4112 21.1871 17.1398 21.0122 16.8814 20.8193L16.7637 20.731C17.0495 20.7518 17.3369 20.7306 17.6166 20.6679C17.8315 20.6213 18.0429 20.5597 18.2492 20.4837C18.4521 20.4079 18.6504 20.3207 18.8433 20.2225C19.6083 19.8315 20.2644 19.3123 20.8945 18.7913C21.2109 18.5282 21.5196 18.2671 21.8435 18.0242C22.0029 17.9017 22.1706 17.7902 22.3453 17.6905C22.5187 17.5862 22.709 17.5127 22.9077 17.4736C22.699 17.4702 22.4915 17.5057 22.2959 17.5783Z" fill="black"/>
</g>
<g style="mix-blend-mode:overlay" opacity="0.2">
<g style="mix-blend-mode:overlay" opacity="0.2">
<path d="M29.5345 20.4376C29.6509 20.5953 29.7739 20.7471 29.9033 20.8931C30.0299 21.0394 30.1659 21.1794 30.3064 21.3113C30.5873 21.5737 30.8922 21.8159 31.2276 21.9616C31.3884 22.0369 31.5604 22.0859 31.7369 22.1067C31.9042 22.1249 32.0734 22.1066 32.2329 22.0531C32.6121 21.9261 32.9982 21.8208 33.3894 21.7377C33.7854 21.6526 34.1873 21.5973 34.5916 21.5724C35.0073 21.5444 35.425 21.5686 35.8348 21.6443C36.2702 21.7204 36.6818 21.8966 37.0369 22.1591C37.2184 22.2971 37.3776 22.4622 37.5089 22.6485C37.5411 22.6959 37.5721 22.7438 37.6012 22.7917L37.6228 22.8258L37.6348 22.8435C37.6418 22.8559 37.65 22.8675 37.6595 22.8782C37.6933 22.9215 37.7366 22.9567 37.786 22.981C37.8445 23.0107 37.9069 23.0319 37.9714 23.0441C38.0494 23.0589 38.1286 23.0675 38.208 23.0699C38.387 23.0725 38.5659 23.0618 38.7432 23.0377C39.1146 22.993 39.498 22.916 39.8884 22.8523C40.2861 22.782 40.6874 22.7346 41.0905 22.7104C41.5054 22.6853 41.9217 22.7198 42.3268 22.8125C42.748 22.9082 43.1391 23.1058 43.4656 23.3878C43.7774 23.6692 44.026 24.0132 44.1951 24.3971C44.2774 24.5812 44.3465 24.7709 44.402 24.9648C44.4577 25.1561 44.502 25.3505 44.5349 25.547C44.6012 25.936 44.6359 26.3296 44.6386 26.7241L44.5798 26.4358L44.5165 26.1507L44.4444 25.8675C44.4166 25.7747 44.3912 25.6814 44.3621 25.5893C44.2518 25.2226 44.0996 24.8698 43.9085 24.5378C43.7303 24.218 43.4873 23.9387 43.1948 23.7177C43.0516 23.6129 42.8963 23.5255 42.7323 23.4572C42.5672 23.3904 42.3954 23.3411 42.2199 23.3102C41.857 23.2528 41.4881 23.2437 41.1228 23.2831C40.7495 23.3197 40.3737 23.3847 39.9934 23.4604C39.6132 23.5361 39.2273 23.6168 38.8211 23.6748C38.6104 23.7056 38.3975 23.7197 38.1846 23.7171C38.068 23.714 37.9518 23.7016 37.8372 23.6799C37.7093 23.6549 37.5859 23.6111 37.4709 23.5499C37.346 23.4832 37.2365 23.391 37.1495 23.2793C37.1264 23.2525 37.1053 23.224 37.0862 23.1942L37.0407 23.1229L36.9774 23.0182C36.8834 22.8841 36.77 22.7646 36.6408 22.6637C36.3652 22.4553 36.0456 22.3121 35.7063 22.2448C35.3468 22.1676 34.9795 22.1327 34.6118 22.1408C34.422 22.1408 34.236 22.154 34.0468 22.1698C33.8576 22.1855 33.6672 22.2076 33.4774 22.2366C33.0978 22.2915 32.7226 22.3685 32.3461 22.458C32.1269 22.5109 31.8986 22.5155 31.6774 22.4713C31.4664 22.4285 31.2641 22.3506 31.0789 22.2411C30.7339 22.0263 30.4293 21.7528 30.1792 21.433C29.9276 21.1263 29.7113 20.7925 29.5345 20.4376Z" fill="black"/>
</g>
</g>
<g style="mix-blend-mode:overlay" opacity="0.2">
<g style="mix-blend-mode:overlay" opacity="0.2">
<path d="M6.1839 44.8782C6.14105 44.661 6.13018 44.4387 6.15164 44.2184C6.17069 43.9943 6.21941 43.7737 6.29652 43.5624C6.37475 43.3411 6.49076 43.1349 6.63944 42.953C6.79216 42.7605 6.99042 42.6088 7.21645 42.5115C7.4385 42.4212 7.67811 42.382 7.91746 42.3967C7.97504 42.3967 8.03198 42.4068 8.08829 42.4106C8.1446 42.4144 8.19964 42.4263 8.25469 42.4339C8.30959 42.4409 8.36408 42.4508 8.41792 42.4636C8.4717 42.4736 8.52801 42.4856 8.57609 42.4926C8.77498 42.5326 8.98016 42.5296 9.17778 42.4837C9.37241 42.4368 9.55596 42.3524 9.71809 42.2352C9.88084 42.1164 10.0352 41.9866 10.18 41.8466C10.3293 41.7079 10.4824 41.5659 10.6418 41.4228C10.803 41.2737 10.9719 41.1333 11.148 41.002C11.3321 40.8646 11.5322 40.7498 11.744 40.6601C12.1741 40.4797 12.6446 40.4161 13.1074 40.4759C13.3295 40.5028 13.548 40.5536 13.7591 40.6273C13.8628 40.6639 13.9641 40.7074 14.064 40.7491C14.164 40.7907 14.2595 40.8475 14.3532 40.9011L14.3361 40.956C14.2273 40.9516 14.121 40.9421 14.0166 40.9326L13.7034 40.9156C13.501 40.9094 13.2985 40.914 13.0966 40.9295C12.7139 40.9572 12.3397 41.0558 11.9932 41.2203C11.6377 41.3945 11.3001 41.603 10.9854 41.8429C10.8171 41.969 10.6481 42.0952 10.4615 42.2138C10.2729 42.3338 10.0725 42.4346 9.86361 42.5146C9.44481 42.6715 8.99462 42.7268 8.55015 42.6761C8.49384 42.6717 8.44513 42.6705 8.39388 42.6673C8.34333 42.6635 8.29258 42.6635 8.24203 42.6673C7.95344 42.6826 7.67441 42.7757 7.43472 42.9366C7.28577 43.0348 7.14936 43.1506 7.02854 43.2817C6.90326 43.422 6.79476 43.5763 6.70524 43.7415C6.51534 44.1047 6.36007 44.4848 6.24148 44.877L6.1839 44.8782Z" fill="black"/>
</g>
</g>
<g style="mix-blend-mode:overlay" opacity="0.2">
<g style="mix-blend-mode:overlay" opacity="0.2">
<path d="M22.2965 28.4846C22.5761 28.709 22.8263 28.9676 23.0412 29.2542C23.2628 29.5431 23.4487 29.8576 23.5948 30.1909C23.7439 30.5317 23.8447 30.8916 23.8941 31.2601C23.9017 31.3061 23.9055 31.3528 23.9093 31.3995L23.9213 31.5358C23.9295 31.6196 23.9358 31.7042 23.9453 31.7881L23.9795 32.0372L24.0244 32.2826C24.1623 32.9304 24.4338 33.5309 24.8779 33.9857C25.3221 34.4405 25.8972 34.7704 26.5229 35.024C26.8361 35.1502 27.1606 35.2631 27.4909 35.3684C27.8212 35.4738 28.159 35.5753 28.4937 35.6788C28.8284 35.7822 29.1707 35.8832 29.5117 36.003C29.6825 36.0661 29.8534 36.1254 30.0236 36.1967C30.1937 36.2679 30.3614 36.3468 30.5297 36.4376C30.8677 36.6169 31.1721 36.8532 31.4294 37.1359C31.5552 37.28 31.6666 37.4359 31.7622 37.6014C31.854 37.7654 31.9305 37.9375 31.9906 38.1155C32.1057 38.4623 32.1728 38.823 32.1899 39.1879C32.2006 39.367 32.2025 39.5455 32.1981 39.7234C32.1937 39.9013 32.1791 40.0779 32.1601 40.2539C32.1487 40.1664 32.138 40.0788 32.1279 39.9909C32.1177 39.9038 32.1026 39.8168 32.0899 39.7304C32.0633 39.5569 32.033 39.3847 31.9931 39.2156C31.922 38.8818 31.8118 38.5575 31.6647 38.2493C31.5932 38.1007 31.5085 37.9589 31.4117 37.8254C31.3158 37.6954 31.2082 37.5744 31.0903 37.4639C30.9711 37.3559 30.8431 37.258 30.7075 37.1712C30.5689 37.0851 30.4248 37.0082 30.276 36.941C29.6724 36.671 28.9923 36.5171 28.3096 36.3335C27.9661 36.2421 27.6276 36.1443 27.2827 36.0453C26.9379 35.9462 26.5957 35.8251 26.2546 35.6895C25.9083 35.5498 25.5745 35.381 25.2569 35.1849C24.9311 34.9807 24.6351 34.7325 24.3774 34.4475C24.2487 34.3024 24.1313 34.1476 24.0263 33.9845C23.9235 33.8212 23.834 33.6499 23.7587 33.4723C23.611 33.1233 23.5114 32.756 23.4626 32.3804L23.4322 32.1035L23.417 31.8272L23.4094 31.2998C23.4059 31.1341 23.39 30.9688 23.362 30.8053C23.3358 30.6395 23.2991 30.4756 23.2519 30.3145C23.0526 29.6497 22.7284 29.0288 22.2965 28.4846Z" fill="black"/>
</g>
</g>
<g style="mix-blend-mode:overlay" opacity="0.2">
<path d="M34.5005 46.3631C34.3904 46.3984 34.2828 46.4388 34.174 46.4792C34.0652 46.5195 33.9614 46.5681 33.8577 46.6148C33.4382 46.8092 33.04 47.0464 32.6695 47.3225C32.4207 47.5058 32.1867 47.7083 31.9697 47.9281C32.1262 47.4915 32.2603 47.0473 32.3715 46.5971C32.5217 45.9935 32.6347 45.3814 32.71 44.764C32.7441 44.455 32.7732 44.1459 32.7814 43.8349C32.7951 43.5245 32.7786 43.2136 32.7321 42.9064C32.7262 43.0607 32.7131 43.2136 32.6929 43.365C32.6739 43.517 32.6498 43.6684 32.6226 43.8185C32.567 44.1194 32.5056 44.4184 32.4328 44.7148C32.2943 45.309 32.1228 45.8951 31.9362 46.4735C31.7516 47.0493 31.5373 47.6153 31.294 48.1691C31.1706 48.4422 31.0409 48.7115 30.8935 48.967C30.7547 49.2202 30.5916 49.4593 30.4063 49.6811C30.2273 49.8924 30.016 50.0715 29.8072 50.1365C29.7085 50.1698 29.6024 50.1749 29.501 50.151C29.4746 50.1452 29.4488 50.1372 29.4238 50.127C29.4092 50.1213 29.401 50.1201 29.3814 50.1113L29.3225 50.0873C29.2441 50.0551 29.1644 50.0286 29.0847 50.0034C28.7718 49.9091 28.4495 49.8494 28.1236 49.8255C27.8062 49.8006 27.4875 49.7962 27.1695 49.8123C26.5436 49.8455 25.9215 49.9299 25.3094 50.0646C24.7019 50.1942 24.1045 50.3675 23.5221 50.5831C24.1332 50.4841 24.7432 50.3989 25.3531 50.3415C25.5055 50.3257 25.658 50.3144 25.8099 50.3005C25.9617 50.2866 26.1142 50.279 26.2667 50.2734C26.5704 50.2626 26.874 50.2513 27.1746 50.262C27.7744 50.2784 28.3767 50.3339 28.9145 50.5194C28.9815 50.5427 29.0467 50.5686 29.1106 50.5957L29.158 50.6165L29.2213 50.643C29.2677 50.6622 29.3155 50.6778 29.3643 50.6897C29.5636 50.7412 29.7732 50.7373 29.9704 50.6783C30.1513 50.6217 30.3199 50.5318 30.4677 50.4134C30.6037 50.3064 30.7288 50.1861 30.841 50.0545C31.1189 49.7161 31.3539 49.345 31.5407 48.9493C31.599 48.9001 31.6572 48.8509 31.7141 48.8017C31.802 48.7336 31.8881 48.6636 31.9729 48.5936C32.3158 48.3167 32.6587 48.0454 33.0124 47.7855C33.3661 47.5256 33.7197 47.2645 34.0816 47.0071C34.4435 46.7498 34.8092 46.4893 35.1774 46.2067C34.9474 46.2376 34.7207 46.29 34.5005 46.3631Z" fill="black"/>
</g>
<g style="mix-blend-mode:soft-light" opacity="0.2">
<g style="mix-blend-mode:soft-light" opacity="0.2">
<path d="M42.3028 31.4979C42.3293 31.7212 42.3591 31.9426 42.3964 32.1628C42.4337 32.3829 42.4711 32.6043 42.5166 32.8201C42.5622 33.0358 42.6109 33.254 42.6659 33.4679C42.721 33.6817 42.7849 33.893 42.8557 34.0987C42.987 34.5092 43.1649 34.9035 43.3859 35.2738C43.4927 35.449 43.6187 35.6117 43.7617 35.7589C43.8965 35.897 44.0529 36.0123 44.2249 36.1002L44.3514 36.1519C44.3938 36.1689 44.44 36.1752 44.4836 36.1885C44.5275 36.2014 44.5727 36.2092 44.6184 36.2118C44.6646 36.2175 44.7038 36.2238 44.7715 36.2307L44.9556 36.2509L45.134 36.2831C45.1973 36.2932 45.2517 36.3064 45.3093 36.3203L45.482 36.362C45.9257 36.4845 46.3621 36.6319 46.7891 36.8035C47.6332 37.134 48.4481 37.4974 49.2737 37.8014C49.6801 37.9551 50.0947 38.0861 50.5157 38.1938C50.9211 38.3027 51.3384 38.3618 51.7583 38.3698C52.1528 38.3786 52.5435 38.292 52.8971 38.1174L53.0205 38.0436C53.0422 38.0324 53.0634 38.02 53.0838 38.0064L53.1407 37.9616L53.2565 37.8733C53.2925 37.8412 53.3261 37.8046 53.3615 37.7711C53.3969 37.7377 53.433 37.7081 53.4678 37.6652L53.5722 37.5453C53.6076 37.5062 53.6355 37.4633 53.6722 37.4192C53.7088 37.375 53.7354 37.3372 53.769 37.293C54.0228 36.9452 54.2413 36.5731 54.4213 36.1822L54.706 35.5747C54.804 35.3614 54.92 35.1567 55.0527 34.9629C55.1895 34.7604 55.3703 34.5913 55.5817 34.4683C55.7931 34.3452 56.0297 34.2712 56.2738 34.252C56.3891 34.2398 56.5051 34.2339 56.6211 34.2343C56.7356 34.2393 56.8501 34.2412 56.9628 34.2551C57.1877 34.279 57.411 34.3161 57.6315 34.3661C57.4063 34.3598 57.1823 34.3491 56.9602 34.3661C56.8489 34.3661 56.7388 34.3806 56.6293 34.3907C56.5216 34.4048 56.4147 34.4248 56.3092 34.4507C56.1049 34.4976 55.9116 34.5832 55.7398 34.703C55.5786 34.8263 55.4454 34.9821 55.3488 35.1603C55.2466 35.3478 55.1597 35.5431 55.0887 35.7444C55.0122 35.95 54.9369 36.1614 54.8553 36.3752C54.6938 36.8119 54.4853 37.2298 54.2333 37.6216C54.2023 37.6715 54.1701 37.7194 54.1334 37.7674C54.0967 37.8153 54.0701 37.8651 54.0296 37.9112L53.9208 38.0512C53.886 38.0979 53.8385 38.1439 53.7974 38.1906C53.7563 38.2373 53.7133 38.284 53.6677 38.3275L53.5228 38.4537L53.4494 38.5167C53.4248 38.5369 53.3969 38.5527 53.3704 38.571L53.209 38.6675C53.1552 38.7028 53.0958 38.7268 53.0395 38.7564L52.9534 38.7993C52.9252 38.8142 52.8958 38.8266 52.8655 38.8365C52.7479 38.884 52.6269 38.9226 52.5036 38.952C52.4403 38.9665 52.3808 38.9823 52.3195 38.9949L52.1347 39.0214C52.0123 39.0373 51.8892 39.0469 51.7659 39.0504C51.6431 39.0548 51.5223 39.0504 51.4008 39.0453C51.2793 39.0403 51.161 39.0264 51.0433 39.0106C50.8094 38.9804 50.5771 38.9383 50.3474 38.8845C49.8988 38.775 49.4571 38.6393 49.0244 38.4783C48.5961 38.3187 48.1766 38.1458 47.7591 37.9686L46.5285 37.4362C46.1217 37.2634 45.7129 37.1 45.3061 36.9713C45.1082 36.9088 44.9058 36.8614 44.7006 36.8294L44.521 36.7978C44.4552 36.7881 44.3904 36.7727 44.3274 36.7518C44.2641 36.7303 44.2008 36.7139 44.1376 36.6887L43.9585 36.6035C43.7358 36.4764 43.5369 36.3116 43.3707 36.1166C43.2127 35.9318 43.0776 35.7287 42.9683 35.5116C42.7627 35.0934 42.6109 34.6508 42.5166 34.1946C42.4206 33.7506 42.3553 33.3007 42.3211 32.8478C42.2853 32.3987 42.2791 31.9478 42.3028 31.4979Z" fill="black"/>
</g>
</g>
<g style="mix-blend-mode:overlay" opacity="0.2">
<path d="M58.9627 25.0651C58.9519 24.8241 58.9374 24.5844 58.9209 24.346C58.8817 23.7993 58.8258 23.2612 58.7533 22.7318C58.733 22.5886 58.7121 22.4448 58.69 22.3028C58.6373 21.9698 58.577 21.6405 58.509 21.315C58.4985 21.2608 58.4871 21.2072 58.4749 21.1542C58.3977 20.7976 58.311 20.4466 58.2148 20.1014C58.1718 19.9494 58.1282 19.798 58.0801 19.6478C58.0567 19.5709 58.032 19.4933 58.0067 19.4163C57.9316 19.1867 57.8508 18.9594 57.7644 18.7345C57.7353 18.66 57.7068 18.5856 57.6777 18.5118C57.6543 18.4525 57.6309 18.3945 57.6075 18.3371C57.51 18.1007 57.4069 17.8675 57.2981 17.6375C57.2639 17.5662 57.2298 17.4949 57.1943 17.4243C57.1589 17.3537 57.1235 17.283 57.0874 17.2136C57.0513 17.1442 57.0153 17.0742 56.9767 17.0048C56.9026 16.8667 56.8248 16.7292 56.7451 16.5935C56.6654 16.4579 56.5888 16.3324 56.5072 16.2044C56.4157 16.0605 56.3214 15.919 56.2244 15.7798C56.139 15.6575 56.0517 15.537 55.9612 15.4178C55.9251 15.3704 55.8897 15.3231 55.853 15.2765C55.8372 15.2544 55.8189 15.2317 55.8018 15.2096L55.6974 15.0759C55.6265 14.988 55.5531 14.9005 55.4772 14.8135L55.3646 14.6835C55.2077 14.5048 55.0438 14.3303 54.873 14.16C54.8167 14.1032 54.7591 14.047 54.7015 13.9915C54.644 13.936 54.5845 13.8799 54.5256 13.825C54.4668 13.7701 54.4061 13.7152 54.3453 13.661C54.2846 13.6068 54.2213 13.5531 54.1581 13.4989C54.0948 13.4446 54.0454 13.4036 53.9879 13.3563C53.9809 13.3497 53.9735 13.3436 53.9657 13.338C53.8392 13.2354 53.7126 13.1351 53.5861 13.0371C53.5184 12.9854 53.4501 12.935 53.3811 12.8851C53.3121 12.8353 53.2445 12.7874 53.1742 12.7394C53.104 12.6915 53.035 12.6442 52.9642 12.5969C52.2556 12.7911 51.5273 12.952 50.8415 13.1147L50.8706 13.1343H50.8611C49.6445 13.42 48.56 13.7115 47.9571 14.2035C47.7262 14.3927 47.4674 14.6047 47.1852 14.8286C46.9239 15.0361 46.643 15.2531 46.3456 15.4714C46.1065 15.6455 45.8578 15.8202 45.5997 15.9893C45.3143 16.1785 45.0182 16.3589 44.7139 16.5279C43.4979 17.2042 42.1547 17.6735 40.8545 17.4962C40.7913 17.4874 40.728 17.4773 40.6616 17.4653C40.5477 17.4439 40.4338 17.418 40.3212 17.3865C40.0239 17.3025 39.7376 17.1837 39.4683 17.0326C39.3198 16.9497 39.1763 16.8581 39.0387 16.7582C38.9333 16.6816 38.8278 16.5975 38.7224 16.5059C38.7154 16.5002 38.7085 16.4933 38.7015 16.4882C38.4358 16.2572 38.1478 16.0531 37.8417 15.8789C37.6704 15.7821 37.4924 15.6978 37.309 15.6265C37.1913 15.5805 37.0749 15.542 36.9591 15.5092C36.6324 15.4186 36.2954 15.3698 35.9563 15.3641C35.629 15.3593 35.3018 15.3791 34.9775 15.4234C34.0709 15.5382 33.1554 15.7704 32.1431 15.7186C31.7135 15.6976 31.2884 15.6226 30.8777 15.4953C30.4766 15.3693 30.0905 15.2001 29.7262 14.9907C26.0566 12.9059 27.6459 9.03289 23.3993 9.74631C21.7777 10.0188 20.8686 8.87897 20.37 7.36571C20.1746 6.75335 20.034 6.12494 19.9499 5.48784C19.8949 5.09864 19.8563 4.71197 19.8291 4.34106L19.6867 4.38333L19.5444 4.42433C19.3849 4.47164 19.228 4.51832 19.066 4.5631L18.8085 4.63627C18.7195 4.66151 18.6303 4.68611 18.5409 4.71008C18.36 4.76054 18.1788 4.80953 17.9974 4.85705C17.8836 4.88607 17.769 4.91571 17.6545 4.9441H17.6444C17.5261 4.97375 17.4084 5.00213 17.2895 5.03052H17.285C17.1648 5.0589 17.0446 5.08729 16.9244 5.11378C5.70622 7.61739 0.872485 20.0591 0.0487258 31.6884C-0.540306 40.0091 4.36555 45.4037 7.74727 51.709C11.1638 58.0763 21.0653 60.0986 29.3441 60.8965C41.56 62.0698 47.7831 52.8388 55.1704 44.1585C58.2383 40.5516 58.0978 36.0345 58.6425 31.6884C58.9241 29.4283 59.0588 27.1934 58.9627 25.0651ZM56.8622 34.2475C56.8584 34.2885 56.8539 34.3301 56.8508 34.3737C56.5053 37.8979 55.9878 40.9118 55.307 40.9572C53.7886 41.0575 47.5281 53.2444 45.2043 53.3453C42.8804 53.4462 36.9205 60.6972 35.1028 59.5902C33.2851 58.4831 26.819 59.1877 21.2627 58.3822C15.7065 57.5767 10.5456 51.8232 8.83739 50.7238C5.70622 48.7096 5.40316 41.8605 2.17076 36.8249C-1.06164 31.7893 3.1799 23.4301 3.78664 19.7033C4.08337 17.8816 5.41645 15.7237 6.98614 13.8162L7.06523 13.7216C8.68807 11.7661 10.545 10.0888 11.7667 9.32936C13.3307 8.35542 16.3221 6.66931 19.0622 5.75656C19.0698 5.82658 19.5684 10.5014 22.0675 10.5039C24.5862 10.5039 26.6691 14.6671 29.1865 15.964C31.704 17.2609 36.0233 15.7559 39.6891 18.414C43.3549 21.0722 47.325 14.8343 49.1219 14.6211C49.9311 14.5252 51.1047 14.2697 52.1588 13.9392C54.8616 15.7647 57.1317 21.2955 57.3272 23.6307C57.4373 24.9496 57.2766 29.9543 56.8622 34.2475Z" fill="black"/>
</g>
<g style="mix-blend-mode:overlay" opacity="0.2">
<path d="M58.9627 25.0651C58.9519 24.8242 58.9374 24.5845 58.9209 24.346C58.8817 23.7993 58.8258 23.2613 58.7533 22.7318C58.733 22.5886 58.7121 22.4448 58.69 22.3029C58.6373 21.9698 58.5769 21.6406 58.509 21.3151C58.4985 21.2608 58.4871 21.2072 58.4749 21.1542C58.3977 20.7976 58.311 20.4467 58.2148 20.1014C58.1718 19.9494 58.1282 19.798 58.0801 19.6479C58.0567 19.5709 58.032 19.4934 58.0067 19.4164C57.9316 19.1868 57.8508 18.9595 57.7644 18.7345C57.7353 18.6601 57.7068 18.5856 57.6777 18.5118C57.6543 18.4525 57.6309 18.3945 57.6075 18.3371C57.51 18.1008 57.4069 17.8676 57.2981 17.6376C57.2639 17.5663 57.2297 17.495 57.1943 17.4244C57.1589 17.3537 57.1235 17.2831 57.0874 17.2137C57.0513 17.1443 57.0153 17.0743 56.9767 17.0049C56.9381 16.9355 56.8913 16.8472 56.8457 16.769C56.8128 16.7103 56.7824 16.6516 56.7451 16.5936C56.6736 16.4719 56.5996 16.3508 56.5237 16.2315C56.4326 16.0877 56.3385 15.9464 56.2415 15.8076C56.1554 15.6846 56.0681 15.5642 55.9789 15.4443C55.9429 15.397 55.9074 15.3497 55.8707 15.303C55.8549 15.2809 55.8372 15.2589 55.8195 15.2361C55.7847 15.192 55.7493 15.1466 55.7132 15.1024C55.6404 15.0128 55.567 14.9264 55.493 14.8394C55.4563 14.7965 55.4184 14.753 55.3798 14.7094C55.2229 14.5303 55.059 14.3562 54.8894 14.1852C54.8331 14.1285 54.7755 14.0723 54.718 14.0168C54.6604 13.9613 54.6016 13.9045 54.5421 13.8497C54.4826 13.7948 54.4225 13.7399 54.3624 13.6857C54.3023 13.6314 54.2403 13.5784 54.1777 13.5248C54.115 13.4712 54.065 13.4302 54.0075 13.3829C54.0004 13.3764 53.993 13.3703 53.9853 13.3646C53.9429 13.3293 53.8999 13.2939 53.8588 13.2605C53.7744 13.1932 53.6901 13.1274 53.6057 13.0631C53.538 13.0113 53.4697 12.9603 53.4007 12.911C53.3318 12.8618 53.2641 12.8133 53.1938 12.7647C53.1236 12.7161 53.0546 12.6688 52.9838 12.6215C52.2752 12.8158 51.5469 12.9754 50.8611 13.1375C49.6432 13.4233 48.5594 13.7147 47.9564 14.2067C47.7255 14.3959 47.4674 14.6079 47.1846 14.8318C46.9233 15.04 46.6424 15.2563 46.3444 15.4746C46.1058 15.6481 45.8572 15.8234 45.5997 15.9925C45.3131 16.1817 45.0176 16.3621 44.7139 16.5305C43.4985 17.2074 42.1547 17.6767 40.8545 17.4994C40.7913 17.4906 40.728 17.4805 40.6616 17.4685C40.5483 17.4477 40.4344 17.4212 40.3212 17.3897C40.0237 17.3056 39.7372 17.1868 39.4677 17.0358C39.319 16.9532 39.1758 16.8613 39.0387 16.7608C38.9331 16.6851 38.828 16.6018 38.7224 16.5122C38.7154 16.5066 38.7091 16.4996 38.7015 16.4946C38.4358 16.2638 38.1478 16.0599 37.8417 15.8859C37.6705 15.7888 37.4925 15.7045 37.3089 15.6335C37.1942 15.5887 37.0772 15.5498 36.9584 15.5168C36.6322 15.4257 36.2956 15.3767 35.9569 15.3711C35.6294 15.366 35.302 15.3858 34.9775 15.4304C34.0709 15.5446 33.1554 15.7774 32.1431 15.7256C31.7135 15.7046 31.2884 15.6296 30.8777 15.5023C30.4769 15.3762 30.091 15.207 29.7268 14.9977C26.0572 12.9161 27.6459 9.04052 23.3999 9.75394C21.7784 10.0264 20.8692 8.88724 20.3706 7.37334C20.1746 6.75793 20.034 6.12632 19.9505 5.48601C19.8955 5.09744 19.8569 4.71077 19.8297 4.33923L19.6873 4.3815L19.6563 4.39096H19.6532C19.6076 4.4042 19.5621 4.41808 19.5159 4.4307C19.3573 4.47822 19.1981 4.52469 19.0382 4.5701L18.7807 4.64327C18.52 4.71645 18.2594 4.78731 17.9987 4.85585C17.8848 4.88487 17.7703 4.91451 17.6558 4.9429H17.6457C17.5273 4.97255 17.4097 5.00093 17.2907 5.02932H17.2863C17.1661 5.0577 17.0459 5.08609 16.9257 5.11258C14.5822 5.63062 12.3763 6.64019 10.4545 8.07415C10.328 8.16687 10.2053 8.26338 10.0831 8.35674C9.75583 8.61368 9.43801 8.88114 9.12968 9.15911C9.06641 9.21398 9.00315 9.27076 8.94494 9.3269C8.82262 9.44044 8.70177 9.55524 8.58241 9.67131C4.15929 13.972 1.63676 20.5367 0.555502 27.2805C0.540317 27.3713 0.525766 27.4621 0.512479 27.5542C0.499826 27.6312 0.488437 27.7075 0.477049 27.7851C0.43487 28.0727 0.394378 28.3608 0.355573 28.6493C0.346715 28.7124 0.33849 28.7811 0.330265 28.8474C0.313183 28.9786 0.297366 29.1098 0.281548 29.2416C0.260037 29.4195 0.238947 29.5972 0.21828 29.7746C0.150793 30.4142 0.0942729 31.0522 0.0487194 31.6884C0.00316588 32.3352 -0.0105423 32.9649 0.00759469 33.5777C0.0158196 33.8628 0.0303714 34.1454 0.0518828 34.4254C0.414413 39.3097 2.66488 43.1934 5.01278 47.0539L5.20259 47.3642C6.07443 48.7955 6.95387 50.2267 7.74853 51.7091C8.37152 52.8521 9.19132 53.877 10.1705 54.7369C10.3776 54.9224 10.5916 55.1021 10.8126 55.2762C14.436 58.1407 19.8715 59.5997 25.1917 60.3926C25.3315 60.4134 25.4707 60.4342 25.6106 60.4557C25.8004 60.4834 25.9902 60.5099 26.18 60.5358C27.2498 60.679 28.3102 60.7982 29.3434 60.8972C30.9313 61.0579 32.5327 61.0295 34.1139 60.8127C34.267 60.79 34.4195 60.7673 34.5707 60.742H34.5827C34.7371 60.7155 34.8914 60.6884 35.0446 60.6581C35.4242 60.585 35.796 60.5009 36.16 60.4058C41.4879 59.0137 45.5459 55.3324 49.3958 50.9894C49.6156 50.7425 49.8338 50.4938 50.0506 50.2431C51.7538 48.2814 53.4279 46.2061 55.1672 44.1636C56.4129 42.6983 57.1285 41.0822 57.579 39.3898C57.5961 39.3267 57.6125 39.2592 57.6296 39.1942C57.6467 39.1292 57.6619 39.0636 57.6777 38.9974C57.696 38.9205 57.7144 38.8441 57.7308 38.7672C57.7435 38.7123 57.7561 38.658 57.7675 38.6025C57.7789 38.547 57.7922 38.4903 57.8036 38.4335C57.8169 38.3672 57.8308 38.301 57.8435 38.2348C57.8561 38.1686 57.8694 38.1017 57.882 38.0355C57.9074 37.9042 57.9301 37.7724 57.9529 37.6406C57.9649 37.5718 57.9763 37.5037 57.9871 37.4349C58.0086 37.3004 58.0297 37.1658 58.0503 37.0312C58.0706 36.8969 58.0889 36.7619 58.1073 36.6269C58.1256 36.4919 58.1414 36.3664 58.1573 36.2358C58.1699 36.1399 58.1813 36.0428 58.1927 35.9456L58.2117 35.7854C58.2345 35.5817 58.2566 35.3767 58.2749 35.1723C58.3958 34.0142 58.4926 32.8478 58.6368 31.6935C58.9241 29.4283 59.0588 27.1934 58.9627 25.0651ZM53.4956 37.6343C53.3931 37.9896 53.2877 38.3408 53.1793 38.6877C51.9557 42.5784 50.3221 45.8522 48.6391 46.9971C44.4969 49.818 41.0614 57.0696 36.4162 56.8677C31.771 56.6659 17.6254 54.9545 14.3936 52.0333C11.1619 49.1121 2.17075 39.1419 3.48295 31.5881C3.8537 29.4573 3.99922 27.5694 4.08527 25.8927C4.1789 24.0521 4.20105 22.4682 4.37124 21.1057C4.59521 19.3079 5.07416 17.8949 6.31169 16.7841C6.76913 16.3747 7.25313 15.8808 7.76687 15.3333C7.84912 15.2456 7.96427 15.1781 8.01615 15.0665C10.3875 9.93624 17.0079 7.35315 19.0951 5.77491C19.4868 6.93872 20.8154 9.69591 21.8277 10.0094C23.9156 10.6553 24.6343 9.50478 25.4973 10.514C26.3603 11.5233 27.1524 15.2494 30.1033 15.6802C33.0541 16.1111 34.7826 15.3913 36.2941 15.896C37.8056 16.4006 39.6531 17.3354 41.6194 18.0482C43.9939 18.9092 47.8799 13.3848 52.198 13.885C53.7481 15.1106 51.3179 16.9393 52.5592 18.4267C52.728 18.6311 52.8929 18.8394 53.054 19.0518C53.3008 19.3836 53.533 19.7255 53.7462 20.0781C54.1344 20.7123 54.4526 21.3865 54.6952 22.0891C54.7332 22.1988 54.7688 22.3098 54.8021 22.4221C54.8413 22.5521 54.878 22.6845 54.9116 22.8233C55.1009 23.6472 55.2115 24.4872 55.2418 25.332C55.407 28.8171 54.6901 33.4856 53.4956 37.6343Z" fill="black"/>
</g>
<path d="M40.0238 8.16813L40.7236 7.27935C40.7331 7.23793 40.7547 7.20026 40.7857 7.17107C40.8166 7.14188 40.8556 7.12249 40.8976 7.11534L42.1762 6.53375C42.206 6.52856 42.2365 6.52963 42.2658 6.5369C42.2951 6.54416 42.3225 6.55746 42.3464 6.57594C42.3702 6.59441 42.3899 6.61766 42.4042 6.64418C42.4185 6.6707 42.427 6.69991 42.4293 6.72993L42.5381 8.19967C42.5404 8.22921 42.5365 8.2589 42.5267 8.28688C42.517 8.31486 42.5015 8.34052 42.4813 8.36225C42.4611 8.38399 42.4366 8.40133 42.4094 8.41319C42.3821 8.42505 42.3527 8.43117 42.323 8.43117C41.5891 8.70115 40.8887 8.73458 40.2351 8.43117C40.2027 8.4312 40.1706 8.42395 40.1414 8.40995C40.1121 8.39595 40.0863 8.37557 40.0661 8.3503C40.0458 8.32504 40.0314 8.29555 40.0241 8.26401C40.0168 8.23248 40.0167 8.19971 40.0238 8.16813Z" fill="#EFAE59"/>
<g style="mix-blend-mode:overlay" opacity="0.2">
<path d="M42.4287 6.72993C42.4264 6.69991 42.4178 6.6707 42.4035 6.64418C42.3892 6.61766 42.3696 6.59441 42.3457 6.57594C42.3219 6.55746 42.2944 6.54416 42.2651 6.5369C42.2358 6.52963 42.2053 6.52856 42.1756 6.53375L40.8969 7.11534C40.8549 7.12249 40.816 7.14188 40.785 7.17107C40.7541 7.20026 40.7325 7.23793 40.7229 7.27935L40.0238 8.16813C40.0167 8.19966 40.0168 8.23237 40.0241 8.26386C40.0314 8.29535 40.0456 8.32481 40.0659 8.35006C40.0861 8.37531 40.1117 8.39571 40.1409 8.40974C40.1701 8.42378 40.2021 8.43111 40.2345 8.43117C40.8881 8.73458 41.5885 8.70115 42.3224 8.43117C42.3521 8.43117 42.3815 8.42505 42.4087 8.41319C42.436 8.40133 42.4604 8.38399 42.4806 8.36225C42.5008 8.34052 42.5163 8.31486 42.5261 8.28688C42.5359 8.2589 42.5398 8.22921 42.5375 8.19967L42.4287 6.72993ZM40.5401 8.00034C41.1152 6.99612 42.1952 7.28313 42.2667 7.78524C42.3382 8.28735 40.3225 8.37945 40.5401 8.00034Z" fill="black"/>
</g>
<path d="M22.9805 4.55613C23.293 3.46549 25.355 3.98211 25.355 4.77186C25.355 5.56161 24.132 6.7803 23.8441 6.70902C23.5562 6.63774 22.6926 5.56098 22.9805 4.55613Z" fill="#EFAE59"/>
<g style="mix-blend-mode:overlay" opacity="0.2">
<path d="M22.9805 4.55619C22.6926 5.56104 23.5562 6.6378 23.8441 6.70908C24.132 6.78035 25.355 5.56104 25.355 4.77192C25.355 3.9828 23.293 3.46555 22.9805 4.55619ZM23.8441 5.84805C23.338 5.70423 23.338 4.91511 23.412 4.6281C23.486 4.34109 24.6356 4.413 24.7798 4.70001C24.9241 4.98702 24.063 5.91049 23.8441 5.84805Z" fill="black"/>
</g>
</g>
<defs>
<clipPath id="clip0_1276_5482">
<rect width="59" height="61" fill="white"/>
</clipPath>
</defs>
</svg>
