<?xml version="1.0" encoding="UTF-8"?>
<svg width="34px" height="38px" viewBox="0 0 34 38" version="1.1" xmlns="http://www.w3.org/2000/svg" xmlns:xlink="http://www.w3.org/1999/xlink">
    <!-- Generator: Sketch 54.1 (76490) - https://sketchapp.com -->
    <title>ic_dashboard</title>
    <desc>Created with Sketch.</desc>
    <g id="Page-1" stroke="none" stroke-width="1" fill="none" fill-rule="evenodd">
        <g id="final" transform="translate(-857.000000, -553.000000)" fill="#4A4A4A">
            <g id="call-outs" transform="translate(200.000000, 536.000000)">
                <g id="focus" transform="translate(560.000000, 0.000000)">
                    <g id="ic_dashboard" transform="translate(97.000000, 17.000000)">
                        <g id="ic_assignment_turned_in">
                            <path d="M29.8333333,4.5 L22.17,4.5 C21.4,2.37333333 19.3833333,0.833333333 17,0.833333333 C14.6166667,0.833333333 12.6,2.37333333 11.83,4.5 L4.16666667,4.5 C2.15,4.5 0.5,6.15 0.5,8.16666667 L0.5,33.8333333 C0.5,35.85 2.15,37.5 4.16666667,37.5 L29.8333333,37.5 C31.85,37.5 33.5,35.85 33.5,33.8333333 L33.5,8.16666667 C33.5,6.15 31.85,4.5 29.8333333,4.5 L29.8333333,4.5 Z M17,4.5 C18.0083333,4.5 18.8333333,5.325 18.8333333,6.33333333 C18.8333333,7.34166667 18.0083333,8.16666667 17,8.16666667 C15.9916667,8.16666667 15.1666667,7.34166667 15.1666667,6.33333333 C15.1666667,5.325 15.9916667,4.5 17,4.5 L17,4.5 Z M13.3333333,30.1666667 L6,22.8333333 L8.585,20.2483333 L13.3333333,24.9783333 L25.415,12.8966667 L28,15.5 L13.3333333,30.1666667 L13.3333333,30.1666667 Z" id="Icon"></path>
                        </g>
                    </g>
                </g>
            </g>
        </g>
    </g>
</svg>