<?xml version="1.0" encoding="UTF-8"?>
<svg width="243px" height="137px" viewBox="0 0 243 137" version="1.1" xmlns="http://www.w3.org/2000/svg" xmlns:xlink="http://www.w3.org/1999/xlink">
    <!-- Generator: Sketch 54.1 (76490) - https://sketchapp.com -->
    <title>mask</title>
    <desc>Created with Sketch.</desc>
    <defs>
        <radialGradient cx="48.3663591%" cy="118.623306%" fx="48.3663591%" fy="118.623306%" r="137.875339%" gradientTransform="translate(0.483664,1.186233),scale(0.697701,1.000000),translate(-0.483664,-1.186233)" id="radialGradient-1">
            <stop stop-color="#C22126" offset="17%"></stop>
            <stop stop-color="#DE2C27" offset="77%"></stop>
        </radialGradient>
    </defs>
    <g id="Page-1" stroke="none" stroke-width="1" fill="none" fill-rule="evenodd">
        <g id="focus-expanded" transform="translate(-779.000000, -811.000000)">
            <g id="focus-large" transform="translate(679.000000, 536.000000)">
                <g id="mask" transform="translate(0.000000, 107.000000)">
                    <g id="ad03-copy" transform="translate(149.500000, 270.000000) rotate(-15.000000) translate(-149.500000, -270.000000) translate(109.000000, 229.000000)" fill-rule="nonzero">
                        <rect id="Rectangle" fill="#9DF7FB" x="0" y="0" width="80.540597" height="81.5116176" rx="4.818"></rect>
                        <rect id="Rectangle" fill="#2AE6BB" x="51.543806" y="61.4517647" width="20.7033582" height="8.19397059" rx="0.846"></rect>
                        <rect id="Rectangle" fill="#04A8A8" x="51.3866418" y="25.8119118" width="21.0237313" height="1.15764706"></rect>
                        <rect id="Rectangle" fill="#04A8A8" x="51.3866418" y="30.7801471" width="21.0237313" height="1.15764706"></rect>
                        <rect id="Rectangle" fill="#04A8A8" x="51.3866418" y="35.7483824" width="21.0237313" height="1.15764706"></rect>
                        <rect id="Rectangle" fill="#04A8A8" x="51.3866418" y="40.7166176" width="21.0237313" height="1.15764706"></rect>
                        <rect id="Rectangle" fill="#04A8A8" x="51.3866418" y="45.6788235" width="21.0237313" height="1.15764706"></rect>
                        <rect id="Rectangle" fill="#04A8A8" x="51.3866418" y="50.6470588" width="21.0237313" height="1.15764706"></rect>
                        <rect id="Rectangle" fill="#66EEEA" x="5.74858209" y="12.0829412" width="37.9914179" height="59.7997059"></rect>
                        <path d="M69.8897015,7.15088235 L70.3309701,7.81411765 C70.4458209,7.98897059 70.5425373,8.14573529 70.6452985,8.32058824 L70.6452985,8.32058824 C70.7480597,8.13367647 70.8508209,7.97691176 70.9535821,7.80808824 L71.388806,7.15088235 L71.9932836,7.15088235 L70.9354478,8.64617647 L72.0235075,10.2439706 L71.3827612,10.2439706 L70.929403,9.55058824 C70.8085075,9.36970588 70.7057463,9.19485294 70.5969403,9.01397059 L70.5969403,9.01397059 C70.5002239,9.19485294 70.3853731,9.36367647 70.2705224,9.55058824 L69.8292537,10.25 L69.2247761,10.25 L70.3309701,8.67029412 L69.2791791,7.15691176 L69.8897015,7.15088235 Z" id="Path" fill="#1F9B98"></path>
                    </g>
                    <g id="ad01" transform="translate(177.000000, 168.000000)" fill-rule="nonzero">
                        <rect id="Rectangle" fill="#FBF9E9" x="0" y="0" width="79.9327103" height="117.751975" rx="4.83"></rect>
                        <rect id="Rectangle" fill="#E0D4A0" x="8.52336449" y="8.06458599" width="62.8785047" height="5.93006369"></rect>
                        <rect id="Rectangle" fill="#F2EBC7" x="8.52336449" y="83.3666242" width="62.8785047" height="1.82636943"></rect>
                        <rect id="Rectangle" fill="#F2EBC7" x="8.52336449" y="90.0633121" width="62.8785047" height="1.82636943"></rect>
                        <rect id="Rectangle" fill="#F2EBC7" x="8.52336449" y="96.76" width="62.8785047" height="1.82636943"></rect>
                        <rect id="Rectangle" fill="#F2EBC7" x="8.52336449" y="103.449172" width="62.8785047" height="1.82636943"></rect>
                        <rect id="Rectangle" fill="#C7F6F9" x="8.52336449" y="22.3673885" width="62.8785047" height="51.2661146"></rect>
                        <path d="M13.1588785,10.9431847 C13.1588785,11.3353328 12.923889,11.6888674 12.5634853,11.8389359 C12.2030816,11.9890045 11.788239,11.9060536 11.5123979,11.628763 C11.2365569,11.3514725 11.1540396,10.93445 11.3033237,10.5721524 C11.4526078,10.2098549 11.8042944,9.97363057 12.1943925,9.97363057 C12.7270634,9.97363057 13.1588785,10.4077147 13.1588785,10.9431847 L13.1588785,10.9431847 Z" id="Path" fill="#FBF9E9"></path>
                        <path d="M17.8317757,10.9431847 C17.8317757,11.4786547 17.3999606,11.9127389 16.8672897,11.9127389 C16.3346188,11.9127389 15.9028037,11.4786547 15.9028037,10.9431847 C15.9028037,10.4077147 16.3346188,9.97363057 16.8672897,9.97363057 C17.3999606,9.97363057 17.8317757,10.4077147 17.8317757,10.9431847 L17.8317757,10.9431847 Z" id="Path" fill="#FBF9E9"></path>
                        <path d="M20.6205607,10.6500637 C20.781674,10.1397462 21.3237733,9.85730522 21.8314523,10.0191731 C22.3391313,10.181041 22.6201936,10.725938 22.4592633,11.2363139 C22.2983331,11.7466898 21.7563351,12.0293272 21.2485981,11.8676433 C21.004657,11.7899626 20.8014223,11.6180172 20.6836327,11.3896578 C20.565843,11.1612984 20.5431542,10.8952447 20.6205607,10.6500637 L20.6205607,10.6500637 Z" id="Path" fill="#FBF9E9"></path>
                        <path d="M0,112.91172 C3.25661171e-16,115.584919 2.15572801,117.751975 4.81495327,117.751975 L75.0953271,117.751975 C77.7545524,117.751975 79.9102804,115.584919 79.9102804,112.91172 L79.9102804,4.84025478 C79.9091875,3.18098169 79.0626782,1.63791197 77.6672897,0.751592357 L0,106.726115 L0,112.91172 Z" id="Path" fill="#FDFAE5" opacity="0.6" style="mix-blend-mode: multiply;"></path>
                    </g>
                    <g id="speechbubble" transform="translate(86.000000, 236.000000)"></g>
                    <g id="ad01-copy" transform="translate(267.000000, 198.000000)" fill-rule="nonzero">
                        <rect id="Rectangle" fill="#FBF9E9" x="0" y="0" width="79.9327103" height="117.751975" rx="4.83"></rect>
                        <rect id="Rectangle" fill="#E0D4A0" x="8.52336449" y="8.06458599" width="62.8785047" height="5.93006369"></rect>
                        <rect id="Rectangle" fill="#F2EBC7" x="8.52336449" y="83.3666242" width="62.8785047" height="1.82636943"></rect>
                        <rect id="Rectangle" fill="#F2EBC7" x="8.52336449" y="90.0633121" width="62.8785047" height="1.82636943"></rect>
                        <rect id="Rectangle" fill="#F2EBC7" x="8.52336449" y="96.76" width="62.8785047" height="1.82636943"></rect>
                        <rect id="Rectangle" fill="#F2EBC7" x="8.52336449" y="103.449172" width="62.8785047" height="1.82636943"></rect>
                        <rect id="Rectangle" fill="#C7F6F9" x="8.52336449" y="22.3673885" width="62.8785047" height="51.2661146"></rect>
                        <path d="M13.1588785,10.9431847 C13.1588785,11.3353328 12.923889,11.6888674 12.5634853,11.8389359 C12.2030816,11.9890045 11.788239,11.9060536 11.5123979,11.628763 C11.2365569,11.3514725 11.1540396,10.93445 11.3033237,10.5721524 C11.4526078,10.2098549 11.8042944,9.97363057 12.1943925,9.97363057 C12.7270634,9.97363057 13.1588785,10.4077147 13.1588785,10.9431847 L13.1588785,10.9431847 Z" id="Path" fill="#FBF9E9"></path>
                        <path d="M17.8317757,10.9431847 C17.8317757,11.4786547 17.3999606,11.9127389 16.8672897,11.9127389 C16.3346188,11.9127389 15.9028037,11.4786547 15.9028037,10.9431847 C15.9028037,10.4077147 16.3346188,9.97363057 16.8672897,9.97363057 C17.3999606,9.97363057 17.8317757,10.4077147 17.8317757,10.9431847 L17.8317757,10.9431847 Z" id="Path" fill="#FBF9E9"></path>
                        <path d="M20.6205607,10.6500637 C20.781674,10.1397462 21.3237733,9.85730522 21.8314523,10.0191731 C22.3391313,10.181041 22.6201936,10.725938 22.4592633,11.2363139 C22.2983331,11.7466898 21.7563351,12.0293272 21.2485981,11.8676433 C21.004657,11.7899626 20.8014223,11.6180172 20.6836327,11.3896578 C20.565843,11.1612984 20.5431542,10.8952447 20.6205607,10.6500637 L20.6205607,10.6500637 Z" id="Path" fill="#FBF9E9"></path>
                        <path d="M0,112.91172 C3.25661171e-16,115.584919 2.15572801,117.751975 4.81495327,117.751975 L75.0953271,117.751975 C77.7545524,117.751975 79.9102804,115.584919 79.9102804,112.91172 L79.9102804,4.84025478 C79.9091875,3.18098169 79.0626782,1.63791197 77.6672897,0.751592357 L0,106.726115 L0,112.91172 Z" id="Path" fill="#FBF9E9" opacity="0.6" style="mix-blend-mode: multiply;"></path>
                    </g>
                    <g id="ad03" transform="translate(304.296875, 231.113281) rotate(-16.000000) translate(-304.296875, -231.113281) translate(253.796875, 180.113281)" fill-rule="nonzero">
                        <rect id="Rectangle" fill="#00CAD2" x="0" y="0" width="100.427164" height="101.3925" rx="6.0225"></rect>
                        <rect id="Rectangle" fill="#2AE6BB" x="64.2706716" y="76.44" width="25.8152985" height="10.1925" rx="1.0575"></rect>
                        <rect id="Rectangle" fill="#04A8A8" x="64.0747015" y="32.1075" width="26.2147761" height="1.44"></rect>
                        <rect id="Rectangle" fill="#04A8A8" x="64.0747015" y="38.2875" width="26.2147761" height="1.44"></rect>
                        <rect id="Rectangle" fill="#04A8A8" x="64.0747015" y="44.4675" width="26.2147761" height="1.44"></rect>
                        <rect id="Rectangle" fill="#04A8A8" x="64.0747015" y="50.6475" width="26.2147761" height="1.44"></rect>
                        <rect id="Rectangle" fill="#04A8A8" x="64.0747015" y="56.82" width="26.2147761" height="1.44"></rect>
                        <rect id="Rectangle" fill="#04A8A8" x="64.0747015" y="63" width="26.2147761" height="1.44"></rect>
                        <rect id="Rectangle" fill="#84F7F4" x="7.16798507" y="15.03" width="47.3720149" height="74.385"></rect>
                        <path d="M87.1464179,8.895 L87.6966418,9.72 C87.8398507,9.9375 87.9604478,10.1325 88.0885821,10.35 L88.0885821,10.35 C88.2167164,10.1175 88.3448507,9.9225 88.4729851,9.7125 L89.0156716,8.895 L89.769403,8.895 L88.4503731,10.755 L89.8070896,12.7425 L89.0081343,12.7425 L88.4428358,11.88 C88.2920896,11.655 88.1639552,11.4375 88.0282836,11.2125 L88.0282836,11.2125 C87.9076866,11.4375 87.7644776,11.6475 87.6212687,11.88 L87.0710448,12.75 L86.3173134,12.75 L87.6966418,10.785 L86.3851493,8.9025 L87.1464179,8.895 Z" id="Path" fill="#84F7F4"></path>
                        <path d="M100.427164,95.37 L100.427164,6 C100.427164,2.6862915 97.727508,2.02906125e-16 94.3973134,0 L75.9685821,0 L2.02753731,99.8625 C3.13847506,100.837459 4.57120335,101.371405 6.05246269,101.3625 L94.3747015,101.3625 C95.9765262,101.368478 97.5149134,100.740007 98.6504071,99.615763 C99.7859008,98.4915188 100.425173,96.9639049 100.427164,95.37 Z" id="Path" fill="#00CAD2" opacity="0.3" style="mix-blend-mode: multiply;"></path>
                    </g>
                    <g id="ad02" transform="translate(217.395315, 279.742010) rotate(9.000000) translate(-217.395315, -279.742010) translate(139.895315, 248.742010)" fill-rule="nonzero">
                        <rect id="Rectangle" fill="#2AE6BB" x="0" y="0" width="154.744175" height="61.69" rx="6.345"></rect>
                        <rect id="Rectangle" fill="#00B0B6" x="49.3893204" y="44.5341463" width="55.965534" height="10.9558537" rx="1.125"></rect>
                        <rect id="Rectangle" fill="#6BFCD5" x="16.636165" y="21.3446341" width="121.46432" height="1.83731707"></rect>
                        <rect id="Rectangle" fill="#6BFCD5" x="16.636165" y="28.0814634" width="121.46432" height="1.83731707"></rect>
                        <rect id="Rectangle" fill="#6BFCD5" x="16.636165" y="34.8107317" width="121.46432" height="1.83731707"></rect>
                        <rect id="Rectangle" fill="#B4F9E5" x="8.48737864" y="5.55731707" width="137.761893" height="5.96560976"></rect>
                        <ellipse id="Oval" fill="#00B0B6" cx="13.1148058" cy="8.89170732" rx="1" ry="1"></ellipse>
                        <path d="M18.8106796,8.89170732 C18.8106796,9.430387 18.3761133,9.86707317 17.8400485,9.86707317 C17.3039838,9.86707317 16.8694175,9.430387 16.8694175,8.89170732 C16.8694175,8.35302763 17.3039838,7.91634146 17.8400485,7.91634146 C18.3761133,7.91634146 18.8106796,8.35302763 18.8106796,8.89170732 L18.8106796,8.89170732 Z" id="Path" fill="#00B0B6"></path>
                        <path d="M21.5946602,8.59682927 C21.7601906,8.08584987 22.3058321,7.8056684 22.8148967,7.97024995 C23.3239612,8.1348315 23.6046554,8.68216886 23.4426226,9.19427905 C23.2805898,9.70638924 22.7368769,9.99033129 22.226699,9.82926829 C21.9794527,9.75121269 21.7735375,9.57704031 21.6548191,9.34554645 C21.5361008,9.11405259 21.5144395,8.84446407 21.5946602,8.59682927 L21.5946602,8.59682927 Z" id="Path" fill="#00B0B6"></path>
                        <path d="M148.378641,61.69 C150.066885,61.69 151.685984,61.016076 152.879753,59.8164835 C154.073522,58.6168911 154.744175,56.9898946 154.744175,55.2934146 L154.744175,6.39658537 C154.744175,2.86384882 151.894228,2.16317725e-16 148.378641,0 L105.407524,0 L60.1941748,61.69 L148.378641,61.69 Z" id="Path" fill="#2AE6BB" opacity="0.4" style="mix-blend-mode: multiply;"></path>
                    </g>
                    <g id="facebookicon" transform="translate(240.867669, 241.039544) rotate(9.000000) translate(-240.867669, -241.039544) translate(214.367669, 214.539544)" fill-rule="nonzero">
                        <rect id="Rectangle" fill="#0051BD" x="0" y="0" width="52.99" height="52.5" rx="5.71"></rect>
                        <path d="M44.86,8 L44.86,15.38 L39.13,15.38 C38.4599235,15.3773409 37.8163796,15.6416659 37.3416229,16.114546 C36.8668662,16.5874262 36.5999947,17.2299182 36.6,17.9 L36.6,24.18 L44.25,24.18 L43.43,32.1 L36.6,32.1 L36.6,52.5 L28.27,52.5 L28.27,32 L21.52,32 L21.52,24.17 L28.52,24.17 L28.52,16.53 C28.5199194,11.8384684 32.308549,8.02750018 37,8 L44.86,8 Z" id="Path" fill="#FFFCF3"></path>
                    </g>
                    <g id="youtube" transform="translate(203.563013, 260.654234) rotate(-11.000000) translate(-203.563013, -260.654234) translate(92.563013, 210.154234)" fill-rule="nonzero">
                        <path d="M221.975909,90.0928409 C221.975909,96.1022177 217.105229,100.974246 211.095852,100.975909 L179.883068,100.975909 C173.872516,100.975909 169,96.1033935 169,90.0928409 L169,58.8800568 C169,55.9939645 170.146702,53.226123 172.187759,51.18563 C174.228817,49.1451369 176.996976,47.9992012 179.883068,48 L211.095852,48 C217.104742,48 221.975909,52.8711674 221.975909,58.8800568 L221.975909,90.0928409 Z" id="Path" fill="#FFFFFF"></path>
                        <path d="M215.39608,79.2910795 C215.39608,84.3110227 213.679602,88.3763636 208.66267,88.3763636 L182.852273,88.3763636 C177.835341,88.3763636 175.582841,84.3110227 175.582841,79.2910795 L175.582841,69.6818182 C175.582841,64.661875 177.621534,60.5965341 182.638466,60.5965341 L208.876477,60.5965341 C213.89642,60.5965341 215.399091,64.661875 215.399091,69.6818182 L215.39608,79.2910795 Z" id="Path" fill="url(#radialGradient-1)"></path>
                        <polygon id="Path" fill="#FFFFFF" points="191.497898 69.0614773 202.341818 74.7198295 191.497898 80.3811932"></polygon>
                        <polygon id="Path" fill="#E8E0E0" points="191.497898 69.1457955 200.929489 75.4546023 202.341818 74.7198295 192.335057 69.498125 191.497898 69.13375"></polygon>
                    </g>
                </g>
            </g>
        </g>
    </g>
</svg>