<svg width="61" height="61" viewBox="0 0 61 61" fill="none" xmlns="http://www.w3.org/2000/svg">
<path d="M54.8978 45.0127C54.0978 45.431 53.2731 45.7996 52.4278 46.1166C49.7373 47.1232 46.8872 47.636 44.0146 47.6304C32.9253 47.6304 23.2654 40.0024 23.2654 30.2136C23.2796 28.9006 23.6439 27.6154 24.3207 26.4903C24.9975 25.3653 25.9625 24.4411 27.1158 23.8135C17.0856 24.2354 14.5078 34.6873 14.5078 40.8109C14.5078 58.1246 30.4645 59.8798 33.9025 59.8798C35.7561 59.8798 38.5519 59.3409 40.2299 58.8111L40.537 58.7082C46.9938 56.476 52.4983 52.1119 56.1444 46.3344C56.2562 46.1586 56.3061 45.9503 56.2863 45.7429C56.2663 45.5354 56.1779 45.3405 56.035 45.1889C55.8919 45.0373 55.7025 44.9378 55.4966 44.9058C55.2907 44.8739 55.0799 44.9115 54.8978 45.0127Z" fill="url(#paint0_linear)"/>
<path opacity="0.35" d="M54.8978 45.0127C54.0978 45.431 53.2731 45.7996 52.4278 46.1166C49.7373 47.1232 46.8872 47.636 44.0146 47.6304C32.9253 47.6304 23.2654 40.0024 23.2654 30.2136C23.2796 28.9006 23.6439 27.6154 24.3207 26.4903C24.9975 25.3653 25.9625 24.4411 27.1158 23.8135C17.0856 24.2354 14.5078 34.6873 14.5078 40.8109C14.5078 58.1246 30.4645 59.8798 33.9025 59.8798C35.7561 59.8798 38.5519 59.3409 40.2299 58.8111L40.537 58.7082C46.9938 56.476 52.4983 52.1119 56.1444 46.3344C56.2562 46.1586 56.3061 45.9503 56.2863 45.7429C56.2663 45.5354 56.1779 45.3405 56.035 45.1889C55.8919 45.0373 55.7025 44.9378 55.4966 44.9058C55.2907 44.8739 55.0799 44.9115 54.8978 45.0127Z" fill="url(#paint1_radial)"/>
<path d="M25.5247 56.9365C23.4344 55.6391 21.6229 53.9392 20.1956 51.9356C18.5686 49.7067 17.4492 47.1487 16.9155 44.4413C16.3818 41.7339 16.4471 38.9424 17.1065 36.263C17.7658 33.5833 19.0035 31.0806 20.7326 28.9299C22.4617 26.7793 24.6404 25.0331 27.1159 23.8136C27.8471 23.4691 29.0961 22.8457 30.7577 22.8763C31.9283 22.8848 33.081 23.1643 34.1255 23.6928C35.1701 24.2213 36.078 24.9847 36.7782 25.9228C37.7245 27.1864 38.2463 28.7172 38.2686 30.2958C38.2686 30.2464 44.0007 11.6416 19.5206 11.6416C9.23272 11.6416 0.772703 21.4045 0.772703 29.97C0.732203 34.5009 1.70169 38.9842 3.61077 43.0936C6.73072 49.7504 12.1865 55.0296 18.9425 57.9291C25.6984 60.8283 33.2838 61.1455 40.2581 58.8206C37.8163 59.5907 35.2361 59.8218 32.6961 59.4981C30.1562 59.1745 27.7166 58.3037 25.5458 56.9459L25.5247 56.9365Z" fill="url(#paint2_linear)"/>
<path opacity="0.41" d="M25.5247 56.9365C23.4344 55.6391 21.6229 53.9392 20.1956 51.9356C18.5686 49.7067 17.4492 47.1487 16.9155 44.4413C16.3818 41.7339 16.4471 38.9424 17.1065 36.263C17.7658 33.5833 19.0035 31.0806 20.7326 28.9299C22.4617 26.7793 24.6404 25.0331 27.1159 23.8136C27.8471 23.4691 29.0961 22.8457 30.7577 22.8763C31.9283 22.8848 33.081 23.1643 34.1255 23.6928C35.1701 24.2213 36.078 24.9847 36.7782 25.9228C37.7245 27.1864 38.2463 28.7172 38.2686 30.2958C38.2686 30.2464 44.0007 11.6416 19.5206 11.6416C9.23272 11.6416 0.772703 21.4045 0.772703 29.97C0.732203 34.5009 1.70169 38.9842 3.61077 43.0936C6.73072 49.7504 12.1865 55.0296 18.9425 57.9291C25.6984 60.8283 33.2838 61.1455 40.2581 58.8206C37.8163 59.5907 35.2361 59.8218 32.6961 59.4981C30.1562 59.1745 27.7166 58.3037 25.5458 56.9459L25.5247 56.9365Z" fill="url(#paint3_radial)"/>
<path d="M36.4445 35.2456C36.2546 35.4917 35.6712 35.8315 35.6712 36.572C35.6712 37.1837 36.0696 37.7719 36.7773 38.2664C40.1471 40.6098 46.5004 40.3004 46.5168 40.3004C49.0139 40.2944 51.4636 39.6187 53.6106 38.3436C55.7764 37.0791 57.574 35.2701 58.8249 33.0962C60.0759 30.9224 60.7366 28.4592 60.7419 25.9513C60.8027 20.6996 58.867 17.2078 58.0843 15.661C53.1185 5.9473 42.3993 0.360352 30.7428 0.360352C22.8597 0.359578 15.2932 3.46203 9.67969 8.9965C4.0662 14.5312 0.856974 22.0528 0.746094 29.9352C0.858594 21.3721 9.3701 14.4565 19.494 14.4565C20.3143 14.4565 24.9918 14.5362 29.3366 16.8163C33.166 18.827 35.1719 21.2549 36.5664 23.6617C38.0146 26.1622 38.2724 29.3213 38.2724 30.5796C38.2724 31.8382 37.6303 33.7035 36.4445 35.2456Z" fill="url(#paint4_radial)"/>
<path d="M36.4445 35.2456C36.2546 35.4917 35.6712 35.8315 35.6712 36.572C35.6712 37.1837 36.0696 37.7719 36.7773 38.2664C40.1471 40.6098 46.5004 40.3004 46.5168 40.3004C49.0139 40.2944 51.4636 39.6187 53.6106 38.3436C55.7764 37.0791 57.574 35.2701 58.8249 33.0962C60.0759 30.9224 60.7366 28.4592 60.7419 25.9513C60.8027 20.6996 58.867 17.2078 58.0843 15.661C53.1185 5.9473 42.3993 0.360352 30.7428 0.360352C22.8597 0.359578 15.2932 3.46203 9.67969 8.9965C4.0662 14.5312 0.856974 22.0528 0.746094 29.9352C0.858594 21.3721 9.3701 14.4565 19.494 14.4565C20.3143 14.4565 24.9918 14.5362 29.3366 16.8163C33.166 18.827 35.1719 21.2549 36.5664 23.6617C38.0146 26.1622 38.2724 29.3213 38.2724 30.5796C38.2724 31.8382 37.6303 33.7035 36.4445 35.2456Z" fill="url(#paint5_radial)"/>
<defs>
<linearGradient id="paint0_linear" x1="14.5078" y1="41.8513" x2="56.3016" y2="41.8513" gradientUnits="userSpaceOnUse">
<stop stop-color="#0C59A4"/>
<stop offset="1" stop-color="#114A8B"/>
</linearGradient>
<radialGradient id="paint1_radial" cx="0" cy="0" r="1" gradientUnits="userSpaceOnUse" gradientTransform="translate(37.5911 42.1807) scale(22.3523 21.2347)">
<stop offset="0.72" stop-opacity="0"/>
<stop offset="0.95" stop-opacity="0.53"/>
<stop offset="1"/>
</radialGradient>
<linearGradient id="paint2_linear" x1="36.5415" y1="23.7223" x2="10.4373" y2="52.1557" gradientUnits="userSpaceOnUse">
<stop stop-color="#1B9DE2"/>
<stop offset="0.16" stop-color="#1595DF"/>
<stop offset="0.67" stop-color="#0680D7"/>
<stop offset="1" stop-color="#0078D4"/>
</linearGradient>
<radialGradient id="paint3_radial" cx="0" cy="0" r="1" gradientUnits="userSpaceOnUse" gradientTransform="translate(17.2906 46.9975) rotate(-81.3844) scale(33.6118 27.1549)">
<stop offset="0.76" stop-opacity="0"/>
<stop offset="0.95" stop-opacity="0.5"/>
<stop offset="1"/>
</radialGradient>
<radialGradient id="paint4_radial" cx="0" cy="0" r="1" gradientUnits="userSpaceOnUse" gradientTransform="translate(6.80688 11.463) rotate(92.2906) scale(47.4773 101.117)">
<stop stop-color="#35C1F1"/>
<stop offset="0.11" stop-color="#34C1ED"/>
<stop offset="0.23" stop-color="#2FC2DF"/>
<stop offset="0.31" stop-color="#2BC3D2"/>
<stop offset="0.67" stop-color="#36C752"/>
</radialGradient>
<radialGradient id="paint5_radial" cx="0" cy="0" r="1" gradientUnits="userSpaceOnUse" gradientTransform="translate(57.0068 18.5003) rotate(73.7398) scale(22.8115 18.5503)">
<stop stop-color="#66EB6E"/>
<stop offset="1" stop-color="#66EB6E" stop-opacity="0"/>
</radialGradient>
</defs>
</svg>
