<?xml version="1.0" encoding="UTF-8"?>
<svg width="52px" height="50px" viewBox="0 0 52 50" version="1.1" xmlns="http://www.w3.org/2000/svg" xmlns:xlink="http://www.w3.org/1999/xlink">
    <!-- Generator: Sketch 54.1 (76490) - https://sketchapp.com -->
    <title>firefox</title>
    <desc>Created with Sketch.</desc>
    <g id="Page-1" stroke="none" stroke-width="1" fill="none" fill-rule="evenodd">
        <g id="linkedin-banner" transform="translate(-508.000000, -372.000000)" fill="#F57800">
            <g id="logos" transform="translate(416.000000, 362.000000)">
                <g id="firefox" transform="translate(92.872570, 10.067416)">
                    <g id="img" transform="translate(0.000000, 0.000000)">
                        <path d="M25.2856045,49.7876905 C11.3207508,49.7876905 0,38.6423364 0,24.8938453 C0,11.1453542 11.3207508,0 25.2856045,0 C39.2504583,0 50.571209,11.1453542 50.571209,24.8938453 C50.571209,38.6423364 39.2504583,49.7876905 25.2856045,49.7876905 Z M26.0012609,45.3327075 C39.0659428,45.3327075 46.2850434,37.7102353 46.2850434,24.8938453 C46.2850434,17.0269369 43.3952267,10.826867 37.6010322,6.63014539 C37.1972381,6.33767829 38.0462696,5.30604796 37.6010319,5.0409728 C34.0266893,2.91296486 29.8318985,1.68771832 25.3453919,1.68771832 C15.7089717,1.68771832 7.41833304,7.34018926 3.73083109,15.4496816 C2.41896205,18.3347219 3.27707997,21.5307371 3.27707997,24.8938453 C3.27707997,37.7102353 12.936579,45.3327075 26.0012609,45.3327075 Z" id="Oval-1"></path>
                        <path d="M4.58353922,5.23373978 L7.98355094,10.0640918 L13.8149712,10.5853232 L19.4685942,7.39448072 L17.6885589,11.1065545 C17.6885589,11.1065545 18.554444,12.3603941 18.554444,13.5417145 C18.554444,13.5417145 24.1844,13.5417145 24.1844,13.5417145 C24.1844,13.5417145 25.3152778,14.2706144 24.3408993,15.4008417 C23.3665207,16.5310691 19.3629884,19.5925308 19.3629884,19.5925308 L19.3357619,22.8381747 L15.6432716,22.9164624 C15.6432716,22.9164624 15.531478,27.3277691 18.4971033,28.1415493 C21.4627287,28.9553295 25.3606553,26.9664095 25.3606553,26.9664095 C25.3606553,26.9664095 28.3386563,26.514401 29.4697934,27.8312827 C30.6009305,29.1481645 30.4742861,29.5635014 29.0292192,30.0369361 C27.5841524,30.5103708 24.326461,33.2492047 21.8311114,33.2492047 C19.3357619,33.2492047 18.5515563,33.1437223 18.5515563,33.1437223 C18.5515563,33.1437223 19.5684247,34.6839301 21.6409385,35.3407228 C23.7134523,35.9975155 33.3103793,38.3449108 38.0948171,29.9619447 C39.0704332,27.8312827 39.0432067,23.7936968 39.0432067,23.7936968 L41.088494,25.155491 C41.088494,25.155491 42.4246549,19.9489459 41.088494,16.7453302 C41.088494,16.7453302 42.7084705,16.5281848 42.7084705,16.5281848 C42.7084705,16.5281848 39.8814527,10.5655452 33.3714327,8.98001297 C33.3714327,8.98001297 37.1394146,7.9919396 37.1394146,7.9919396 C37.1394146,7.9919396 34.596625,5.61734958 30.5266765,4.85795875 L37.682707,5.04172886 L45.1823688,11.9874974 L48.3740566,22.0697189 L47.3002601,32.2549507 L42.3586513,40.405938 L36.0020897,45.6549232 L27.9199458,47.9030168 L15.1585575,46.1794509 L3.60132278,35.7836664 L1.2965587,20.0569006 L3.12774677,13.2648232 L4.58353922,5.23373978 Z" id="Path-17"></path>
                    </g>
                </g>
            </g>
        </g>
    </g>
</svg>