<?xml version="1.0" encoding="UTF-8"?>
<svg width="1119px" height="541px" viewBox="0 0 1119 541" version="1.1" xmlns="http://www.w3.org/2000/svg" xmlns:xlink="http://www.w3.org/1999/xlink">
    <!-- Generator: Sketch 54.1 (76490) - https://sketchapp.com -->
    <title>Shape</title>
    <desc>Created with Sketch.</desc>
    <g id="Page-1" stroke="none" stroke-width="1" fill="none" fill-rule="evenodd">
        <g id="final" transform="translate(-161.000000, -1996.000000)" fill="#F4F4F4" fill-rule="nonzero">
            <path d="M424.67,2122.43 C425.810457,2122.65092 426.982885,2122.25403 427.754648,2121.3858 C428.52641,2120.51756 428.783102,2119.30669 428.43,2118.2 C428.43,2118.2 419.97,2123.37 424.67,2123.37 L424.67,2122.43 Z M443,2066.03 C443,2066.03 446.29,2063.68 449.11,2063.21 C444.738176,2060.58038 439.577269,2059.58149 434.54,2060.39 C434.237043,2062.53718 435.191922,2064.6679 436.996175,2065.87074 C438.800429,2067.07357 441.134514,2067.13549 443,2066.03 L443,2066.03 Z M934.62,2317.01 C934.62,2317.01 934.62,2332.52 938.85,2327.82 C943.08,2323.12 935.56,2317.95 934.62,2317.01 Z M1135.78,2482.92 C1135.78,2486.68 1140.01,2491.38 1143.77,2492.32 L1143.77,2489.97 L1148,2489.97 C1148,2486.68 1148,2486.21 1148,2482.92 C1148,2479.63 1135.78,2482.92 1136.25,2482.92 L1135.78,2482.92 Z M1212.39,2505.01 C1217.56,2505.01 1218.5,2495.14 1225.08,2493.73 C1222.26,2488.09 1233.07,2489.03 1225.08,2484.33 C1217.09,2479.63 1221.79,2484.33 1218.03,2490.91 C1214.27,2497.49 1209.1,2495.14 1206.75,2499.37 C1204.4,2503.6 1206.75,2505.95 1212.39,2505.01 L1212.39,2505.01 Z M1228.84,2468.82 L1228.84,2474.93 C1228.84,2474.93 1228.84,2474.93 1228.84,2474.93 C1228.84,2474.93 1228.84,2474.93 1228.84,2474.93 C1228.84,2474.93 1231.19,2480.57 1233.07,2480.1 C1234.95,2479.63 1233.07,2477.28 1235.89,2476.34 C1238.71,2475.4 1244.35,2466 1235.89,2467.88 C1235.89,2465.06 1235.89,2460.83 1232.6,2465.06 C1229.31,2469.29 1232.6,2459.42 1228.37,2457.07 C1224.14,2454.72 1228.84,2467.41 1228.84,2469.29 L1228.84,2468.82 Z M1195,2411.48 C1196.7566,2415.53392 1200.49525,2418.38241 1204.87,2419 C1202.61666,2415.36492 1199.10279,2412.68768 1195,2411.48 Z M1089.72,2382.34 C1085.96,2382.34 1092.07,2382.34 1093.48,2382.34 L1093.48,2382.34 L1089.72,2382.34 Z M1126.85,2382.34 C1121.68,2388.45 1126.85,2403.49 1117.45,2400.2 L1107.58,2393.62 C1107.58,2389.39 1107.58,2387.04 1110.87,2384.22 C1105.48429,2382.57247 1099.98667,2381.31587 1094.42,2380.46 C1094.42,2380.46 1094.42,2380.46 1097.24,2383.28 C1100.06,2386.1 1090.66,2386.1 1089.25,2387.04 C1087.84,2387.98 1089.25,2390.8 1084.55,2392.21 C1079.85,2393.62 1080.79,2388.92 1077.03,2392.21 C1073.27,2395.5 1073.27,2397.85 1069.51,2397.85 C1069.44246,2399.25919 1069.44246,2400.67081 1069.51,2402.08 L1066.69,2402.08 L1066.69,2402.08 C1062.46,2402.08 1061.05,2411.01 1055.88,2413.36 C1051.41798,2414.89135 1046.86606,2416.14705 1042.25,2417.12 C1042.25,2417.12 1039.43,2423.7 1037.55,2417.12 C1035.2082,2421.36157 1035.2082,2426.50843 1037.55,2430.75 C1030.97,2427.93 1037.55,2438.27 1037.55,2441.56 C1037.55,2444.85 1043.19,2453.78 1037.55,2458.48 C1041.31,2458.48 1043.66,2462.71 1048.36,2461.77 C1053.06,2460.83 1052.59,2458.01 1055.41,2457.54 C1058.23,2457.07 1060.58,2457.54 1062.46,2457.54 C1064.34,2457.54 1064.81,2455.19 1066.69,2454.72 L1072.33,2450.96 C1072.33,2450.96 1075.15,2450.96 1076.56,2450.96 C1082.62816,2447.93914 1089.76184,2447.93914 1095.83,2450.96 C1100.06,2450.96 1103.82,2468.82 1108.05,2454.72 C1111.34,2454.72 1108.05,2458.01 1108.05,2460.36 C1108.05,2462.71 1110.4,2460.36 1110.4,2465.06 C1110.4,2469.76 1113.69,2469.29 1118.39,2473.05 L1125.91,2473.05 C1129.2,2473.05 1128.26,2469.76 1130.14,2469.76 C1132.02,2469.76 1130.14,2473.52 1133.43,2473.05 C1136.72,2472.58 1147.06,2469.29 1149.41,2463.18 C1150.46873,2458.99343 1151.8839,2454.90517 1153.64,2450.96 C1158.54455,2442.87211 1158.54455,2432.72789 1153.64,2424.64 C1152.60223,2422.90132 1151.14868,2421.44777 1149.41,2420.41 C1149.27469,2419.00325 1149.27469,2417.58675 1149.41,2416.18 C1147.85809,2416.48412 1146.26191,2416.48412 1144.71,2416.18 C1144.71,2416.18 1144.71,2412.89 1144.71,2411.48 C1144.71,2410.07 1139.07,2411.48 1138.13,2407.25 C1137.19,2403.02 1134.37,2396.91 1132.02,2393.15 C1129.67,2389.39 1129.2,2393.15 1128.26,2389.86 C1127.32,2386.57 1128.26,2382.81 1124.5,2381.87 L1126.85,2382.34 Z M1166.8,2367.77 C1166.8,2367.77 1170.09,2370.59 1171.03,2370.59 C1171.97,2370.59 1167.74,2367.3 1167.74,2365.42 L1167.74,2365.42 L1166.8,2367.77 Z M1148,2364.48 C1148,2368.71 1160.69,2366.83 1159.28,2360.25 C1157.87,2353.67 1148,2367.77 1148,2364.48 Z M1101,2359.31 C1104.29,2359.31 1108.05,2359.31 1110.87,2359.31 C1113.69,2359.31 1115.57,2359.31 1117.45,2363.07 C1119.33,2366.83 1117.45,2365.89 1117.45,2368.24 C1117.45,2370.59 1114.16,2368.24 1117.45,2371.06 C1120.74,2373.88 1122.15,2371.06 1123.09,2371.06 C1124.03,2371.06 1128.73,2375.76 1133.9,2374.35 C1139.07,2372.94 1137.19,2368.71 1142.36,2370.59 C1147.53,2372.47 1144.71,2373.88 1146.59,2374.82 C1148.3184,2376.24439 1150.46257,2377.06907 1152.7,2377.17 C1159.75,2377.17 1157.4,2377.17 1152.7,2374.35 L1148,2374.35 C1148,2374.35 1148,2368.71 1148,2370.12 C1148,2371.53 1140.48,2367.77 1148,2367.77 C1145.43049,2364.94576 1142.41347,2362.56389 1139.07,2360.72 C1134.8232,2358.29828 1130.22457,2356.55397 1125.44,2355.55 C1117.92,2355.55 1118.39,2355.55 1112.28,2355.55 C1107.90613,2355.07621 1103.49387,2355.07621 1099.12,2355.55 C1099.12,2355.55 1099.12,2359.78 1099.12,2359.31 L1101,2359.31 Z M1075.15,2352.26 C1072.33,2352.26 1077.97,2352.26 1078.91,2352.26 C1079.85,2352.26 1075.15,2351.79 1073.74,2352.26 L1075.15,2352.26 Z M1095.36,2349.44 L1091.6,2349.44 C1094.89,2349.44 1098.65,2354.61 1103.35,2352.26 C1101,2346.15 1097.24,2351.32 1093.95,2349.91 L1095.36,2349.44 Z M1086.43,2357.43 C1086.43,2357.43 1093.01,2357.43 1094.89,2357.43 C1096.77,2357.43 1084.55,2356.02 1084.08,2356.49 L1086.43,2357.43 Z M1087.84,2339.57 C1085.49,2342.86 1083.61,2343.33 1084.08,2348.03 C1084.55,2352.73 1084.08,2348.03 1089.72,2348.03 C1095.36,2348.03 1089.72,2344.27 1086.9,2344.27 C1087.11036,2343.02549 1087.11036,2341.75451 1086.9,2340.51 C1086.9,2340.51 1085.49,2339.57 1085.49,2339.1 L1087.84,2339.57 Z M1054,2356.49 L1057.29,2360.25 C1057.29,2360.25 1057.29,2364.01 1057.29,2364.48 C1057.29,2364.95 1057.29,2358.37 1057.29,2356.02 L1057.29,2356.02 C1057.29,2356.02 1061.05,2364.95 1062.46,2364.01 C1063.87,2363.07 1062.46,2354.61 1059.17,2352.73 C1078.91,2352.73 1054,2343.8 1054,2356.49 Z M1073.27,2342.86 C1070.45,2342.86 1056.35,2342.86 1056.82,2348.03 C1060.3648,2346.37655 1064.19414,2345.41922 1068.1,2345.21 C1068.1,2345.21 1068.1,2345.21 1071.86,2345.21 C1075.62,2345.21 1076.56,2340.98 1071.86,2342.39 C1067.16,2343.8 1074.21,2342.39 1073.74,2342.86 L1073.27,2342.86 Z M1069.51,2378.11 C1069.51,2380.93 1080.79,2375.29 1081.73,2374.35 C1082.67,2373.41 1070.92,2376.7 1069.98,2378.11 L1069.51,2378.11 Z M1059.17,2371.53 C1061.99,2374.35 1070.92,2371.53 1074.21,2371.53 C1068.93292,2371.22812 1063.6508,2372.02844 1058.7,2373.88 L1059.17,2371.53 Z M1059.17,2371.53 C1055.41,2371.53 1062.93,2374.82 1063.87,2374.82 C1064.81,2374.82 1060.58,2371.06 1059.17,2371.53 Z M1051.18,2368.71 L1058.7,2368.71 C1058.7,2368.71 1058.7,2368.71 1058.7,2368.71 L1051.18,2368.71 Z M1014.05,2367.77 C1018.61626,2370.51482 1023.77336,2372.12641 1029.09,2372.47 C1034.65063,2373.74554 1040.31223,2374.53187 1046.01,2374.82 C1045.38674,2373.32418 1044.1948,2372.13721 1042.69638,2371.52022 C1041.19797,2370.90322 1039.51582,2370.90674 1038.02,2371.53 C1038.02,2369.18 1038.02,2371.53 1041.31,2369.18 C1032.27449,2367.99454 1023.1596,2367.52308 1014.05,2367.77 L1014.05,2367.77 Z M1027.21,2340.98 C1022.98,2343.8 1027.21,2349.44 1027.21,2352.73 C1027.21,2356.02 1031.91,2356.96 1038.96,2357.9 C1046.01,2358.84 1043.19,2360.72 1047.42,2355.08 C1047.12426,2353.05407 1047.12426,2350.99593 1047.42,2348.97 C1047.42,2348.97 1052.12,2348.97 1053.53,2344.27 C1054.94,2339.57 1054,2340.98 1054,2334.4 C1054,2327.82 1056.35,2334.4 1059.64,2331.58 C1056.82426,2329.95634 1054.28567,2327.89374 1052.12,2325.47 C1049.77,2325.47 1047.89,2330.17 1046.01,2332.05 C1044.13,2333.93 1030.97,2343.8 1027.21,2340.98 L1027.21,2340.98 Z M992.9,2350.38 C993.636966,2353.68991 995.667985,2356.56718 998.54,2358.37 C998.54,2355.55 992.9,2350.85 992.9,2350.38 Z M987.26,2343.33 C987.26,2343.33 989.61,2343.33 990.55,2347.09 C991.49,2350.85 990.55,2343.33 987.73,2342.86 C984.91,2342.39 987.73,2343.33 987.26,2343.33 Z M987.26,2331.58 C987.26,2331.58 984.44,2331.58 982.56,2331.58 C980.68,2331.58 989.14,2339.1 991.49,2341.45 C993.84,2343.8 997.13,2351.32 1000.42,2355.55 C1003.71,2359.78 1007.94,2366.36 1011.23,2366.36 C1014.52,2366.36 1014.05,2360.25 1019.69,2358.37 C1019.66359,2356.48965 1018.51888,2354.80604 1016.77999,2354.09003 C1015.0411,2353.37401 1013.04279,2353.76344 1011.7,2355.08 C1005.93329,2345.44847 997.423529,2337.75696 987.26,2332.99 L987.26,2331.58 Z M1070.45,2320.77 C1067.16,2320.77 1063.87,2323.59 1065.75,2327.35 C1068.57,2320.77 1072.8,2327.35 1077.5,2330.64 C1082.2,2333.93 1077.5,2326.41 1077.5,2325.94 C1077.5,2325.47 1077.5,2317.01 1077.5,2317.01 C1077.5,2317.01 1074.21,2323.12 1070.92,2320.77 L1070.45,2320.77 Z M1061.05,2305.73 C1061.05,2305.73 1064.34,2316.07 1067.16,2315.6 C1069.98,2315.13 1070.92,2320.77 1067.16,2315.6 C1065.52213,2311.69205 1062.51378,2308.51656 1058.7,2306.67 L1061.05,2305.73 Z M1065.75,2305.73 C1069.51,2308.55 1072.33,2313.72 1077.03,2314.66 C1081.73,2315.6 1072.33,2308.55 1072.33,2304.32 C1072.33,2300.09 1068.1,2304.32 1065.75,2304.32 L1065.75,2305.73 Z M1059.64,2308.55 C1056.82,2313.25 1050.71,2317.95 1049.3,2321.71 C1054.94,2321.71 1059.64,2313.72 1059.64,2308.55 C1059.64,2303.38 1059.64,2308.08 1059.64,2307.61 L1059.64,2308.55 Z M1061.99,2289.28 C1059.62702,2290.84742 1058.20644,2293.49443 1058.20644,2296.33 C1058.20644,2299.16557 1059.62702,2301.81258 1061.99,2303.38 C1063.4,2299.62 1070.45,2288.34 1061.99,2288.34 L1061.99,2289.28 Z M1065.28,2268.6 C1065.28,2268.6 1058.7,2272.36 1059.64,2278.47 L1059.64,2278.47 C1061.52,2273.77 1065.28,2273.77 1065.28,2267.66 L1065.28,2268.6 Z M1148,2194.81 C1144.71,2194.81 1142.36,2198.1 1138.13,2198.57 C1133.99197,2198.52702 1129.93867,2197.3921 1126.38,2195.28 C1126.38,2195.28 1126.38,2207.5 1122.62,2203.74 C1118.86,2199.98 1118.39,2212.2 1122.62,2209.85 L1122.62,2209.85 C1119.33,2209.85 1118.39,2219.72 1115.1,2223.01 L1115.1,2223.01 C1113.60003,2224.25175 1112.46333,2225.87561 1111.81,2227.71 C1111.81,2227.71 1111.81,2227.71 1111.81,2227.71 C1109.47513,2229.02816 1108.17361,2231.63121 1108.52,2234.29 C1100.35986,2231.77826 1091.6667,2236.12485 1088.78,2244.16 L1092.54,2244.16 C1092.54,2246.98 1088.78,2248.39 1092.54,2249.8 C1096.3,2251.21 1098.18,2241.81 1092.54,2241.34 C1092.54,2238.05 1101.94,2238.05 1105.7,2237.11 C1101.94,2237.11 1095.83,2237.11 1097.24,2243.69 C1100.0517,2242.39045 1102.72805,2240.81613 1105.23,2238.99 C1105.23,2242.75 1110.87,2238.99 1110.4,2238.99 C1123.09,2238.99 1120.74,2238.99 1123.56,2226.3 C1126.38,2213.61 1127.32,2215.49 1123.56,2210.79 C1127.32,2210.79 1133.9,2213.61 1133.43,2210.79 C1132.96,2207.97 1148,2198.57 1148,2194.81 Z M1204.4,2157.21 C1204.4,2157.21 1204.4,2153.92 1204.4,2152.98 C1204.16835,2154.5381 1204.16835,2156.1219 1204.4,2157.68 C1204.4,2157.68 1204.4,2157.68 1204.4,2157.68 L1204.4,2157.21 Z M1270.67,2117.26 L1279.6,2117.26 C1279.6,2112.56 1272.55,2117.26 1270.67,2117.26 Z M1242,2077.31 C1245.91322,2077.54223 1249.83678,2077.54223 1253.75,2077.31 C1252.22201,2075.20877 1249.76778,2073.98165 1247.17,2074.02 C1247.17,2074.02 1242,2076.37 1242,2077.31 Z M1140.01,2052.4 C1143.3,2052.4 1154.11,2057.1 1154.11,2052.4 C1154.11,2047.7 1142.36,2052.4 1140.48,2049.58 C1138.6,2046.76 1140.48,2052.87 1140.48,2053.34 C1140.48,2053.81 1140.95,2051.93 1140.95,2052.4 L1140.01,2052.4 Z M1120.27,2062.74 C1124.01422,2062.2528 1127.80578,2062.2528 1131.55,2062.74 C1131.55,2058.04 1125.44,2059.45 1121.21,2062.74 L1120.27,2062.74 Z M1111.34,2050.99 C1115.1,2056.16 1134.84,2054.75 1136.25,2048.64 C1137.66,2042.53 1129.2,2045.82 1129.2,2050.99 L1129.2,2050.99 C1132.49,2043.94 1124.97,2048.17 1122.62,2048.17 C1120.27,2048.17 1115.1,2045.35 1112.28,2050.99 L1111.34,2050.99 Z M1108.05,2058.04 C1108.05,2060.39 1108.05,2062.27 1112.28,2061.8 C1111.12445,2059.70423 1109.30609,2058.05118 1107.11,2057.1 L1108.05,2058.04 Z M1020.63,2033.13 C1019.02429,2031.69381 1016.59571,2031.69381 1014.99,2033.13 C1014.99,2033.13 1021.1,2036.42 1020.63,2033.13 L1020.63,2033.13 Z M996.66,2032.66 L1013.11,2028.9 C1016.87,2024.2 1005.59,2024.67 1004.65,2024.2 L1004.65,2024.2 C999.01,2023.26 995.72,2034.54 996.66,2034.54 L996.66,2032.66 Z M986.32,2018.56 C974.57,2018.56 976.45,2026.55 986.32,2027.49 C996.19,2028.43 994.78,2027.49 994.31,2023.73 C993.84,2019.97 994.31,2020.44 988.67,2020.44 L986.32,2018.56 Z M976.45,2018.56 C980.68,2021.38 987.26,2014.8 990.08,2013.39 C983.938413,2009.74825 976.082813,2010.92659 971.28,2016.21 C972.994212,2016.46075 974.735788,2016.46075 976.45,2016.21 C976.45,2016.21 975.98,2019.03 976.45,2019.03 L976.45,2018.56 Z M976.45,2018.56 C974.1,2018.56 972.69,2018.56 970.34,2018.56 C967.99,2018.56 977.86,2020.91 975.04,2020.91 L976.45,2018.56 Z M841.09,2085.77 C838.27,2085.77 833.57,2082.01 835.45,2088.59 C837.33,2095.17 840.62,2088.59 841.09,2085.77 Z M853.78,2061.8 C850.49,2061.8 844.85,2069.32 844.85,2073.08 C844.85,2076.84 847.67,2073.08 848.61,2073.08 C849.55,2073.08 848.61,2073.08 848.61,2073.08 C848.61,2073.08 848.61,2077.31 851.9,2077.78 C855.311493,2078.47637 858.828507,2078.47637 862.24,2077.78 C862.24,2074.02 857.54,2072.61 857.54,2068.85 C857.54,2065.09 860.83,2061.8 863.65,2058.98 C869.589958,2052.65044 877.279975,2048.23277 885.74,2046.29 C888.56,2046.29 900.31,2043.47 899.37,2040.18 C898.43,2036.89 890.44,2040.18 888.09,2040.18 C885.74,2040.18 862.24,2040.18 862.24,2050.05 C861.188264,2049.60605 860.001736,2049.60605 858.95,2050.05 C861.77,2055.22 851.43,2054.75 852.37,2058.51 C853.31,2062.27 852.37,2058.51 852.37,2058.51 C852.37,2058.51 852.37,2060.86 852.37,2058.51 C852.37,2056.16 854.25,2063.21 853.78,2062.74 L853.78,2061.8 Z M900.78,2061.8 C902.620703,2061.76476 904.347389,2060.90142 905.48,2059.45 C905.48,2059.45 898.43,2064.62 902.66,2064.62 L900.78,2061.8 Z M879.63,2012.45 C882.92,2018.09 885.74,2012.45 889.5,2012.45 C885.74,2010.1 882.92,2013.86 879.63,2012.45 Z M871.64,2012.45 C871.64,2012.45 871.64,2012.45 871.64,2015.74 C874.573464,2016.45722 877.636536,2016.45722 880.57,2015.74 C875.4,2012.45 875.87,2010.1 871.64,2012.45 Z M871.64,2018.56 L866,2018.56 C866,2020.91 866,2018.56 869.76,2018.56 C873.52,2018.56 869.76,2018.56 869.76,2018.56 L871.64,2018.56 Z M860.36,2018.56 C860.36,2018.56 860.36,2021.85 864.12,2018.56 C867.88,2015.27 869.29,2018.56 869.76,2018.56 C866.266563,2017.47105 862.578964,2017.15039 858.95,2017.62 L860.36,2018.56 Z M850.96,2018.56 C854.464346,2015.58051 859.139456,2014.36844 863.65,2015.27 C863.65,2009.63 868.82,2017.62 869.76,2011.98 C868.35993,2012.21665 866.93007,2012.21665 865.53,2011.98 L865.53,2009.16 C865.53,2009.16 861.77,2009.16 860.83,2009.16 L856.6,2009.16 C856.6,2009.16 856.6,2009.16 853.31,2012.92 C850.02,2016.68 850.02,2015.27 849.55,2018.09 L850.96,2018.56 Z M837.8,2013.86 C833.1,2013.86 831.69,2013.86 827.46,2013.86 C823.23,2013.86 833.57,2013.86 836.39,2013.86 C830.75,2018.09 840.15,2019.03 842.97,2013.86 C845.79,2008.69 842.03,2013.39 836.39,2013.39 L837.8,2013.86 Z M743.8,2019.5 C743.8,2022.32 750.85,2019.5 752.26,2021.85 C750.54449,2021.61777 748.80551,2021.61777 747.09,2021.85 C749.91,2029.84 766.36,2021.85 770.12,2021.85 C766.36,2017.62 761.19,2021.85 757.9,2021.85 C754.61,2021.85 757.9,2021.85 757.9,2019.5 C757.9,2017.15 755.08,2019.5 752.73,2023.73 C752.73,2019.97 740.98,2019.03 742.39,2023.73 L743.8,2019.5 Z M737.22,2031.72 C737.22,2031.72 728.76,2031.72 727.82,2035.95 C726.88,2040.18 736.28,2035.95 737.22,2035.95 C738.16,2035.95 728.76,2035.95 728.76,2038.77 C728.76,2041.59 734.87,2043 736.28,2044.41 C740.727536,2040.67747 743.306262,2035.17619 743.33,2029.37 L748.03,2029.37 C748.03,2033.6 748.03,2029.37 748.03,2032.66 C748.03,2035.95 748.03,2035.95 748.03,2037.83 C748.03,2039.71 753.2,2037.83 754.61,2037.83 L762.6,2035.48 C762.6,2033.13 758.37,2035.48 758.37,2032.19 C752.92181,2030.22442 747.838961,2027.36532 743.33,2023.73 L740.51,2023.73 L740.51,2020.91 C735.34,2018.56 735.34,2020.91 732.99,2020.91 C730.64,2020.91 732.99,2023.73 732.99,2023.73 C732.99,2023.73 732.99,2019.97 732.99,2019.97 L725,2023.26 L725,2019.97 C722.18,2019.97 709.96,2023.73 719.83,2025.14 C720.062228,2026.85551 720.062228,2028.59449 719.83,2030.31 C719.83,2030.31 719.83,2030.31 716.07,2027.49 C712.31,2024.67 720.77,2035.01 720.77,2029.84 C720.77,2024.67 720.77,2033.13 725.47,2029.84 C730.17,2026.55 725.47,2029.84 728.76,2027.02 C732.05,2024.2 734.87,2027.02 734.87,2027.02 L737.22,2031.72 Z M1140.95,2137.47 C1149.41,2137.47 1150.82,2134.18 1156.46,2137.47 C1162.1,2140.76 1156.46,2140.29 1158.81,2141.23 C1161.16,2142.17 1162.1,2137.94 1166.33,2141.23 C1170.56,2144.52 1166.33,2141.23 1169.62,2141.23 C1172.91,2141.23 1167.27,2141.23 1169.62,2136.53 C1171.43835,2133.8561 1173.65771,2131.47822 1176.2,2129.48 C1181.37,2126.66 1185.6,2129.48 1185.6,2133.71 C1193.12,2133.71 1194.53,2122.43 1201.58,2123.84 C1196.88,2127.6 1195.47,2133.24 1190.3,2137.47 C1185.13,2141.7 1176.2,2145.46 1173.85,2152.51 C1172.45705,2157.90487 1172.45705,2163.56513 1173.85,2168.96 C1173.85,2175.54 1173.85,2176.48 1179.02,2174.13 C1184.19,2171.78 1184.66,2160.03 1192.18,2161.91 C1192.18,2158.15 1192.18,2152.51 1196.41,2155.33 C1195.73342,2152.70963 1195.73342,2149.96036 1196.41,2147.34 C1196.41,2147.34 1196.41,2147.34 1193.12,2147.34 C1192.82959,2142.40849 1193.46729,2137.46627 1195,2132.77 C1197.82,2132.77 1198.29,2132.77 1201.58,2132.77 C1204.87,2132.77 1201.58,2132.77 1203.93,2132.77 C1206.28,2132.77 1203.93,2129.48 1207.69,2129.48 L1212.86,2129.48 C1216.62,2129.48 1212.86,2129.48 1216.62,2132.77 C1216.62,2124.78 1234.95,2120.08 1240.59,2118.67 C1246.23,2117.26 1245.76,2122.9 1243.88,2115.38 C1242,2107.86 1239.18,2111.62 1234.95,2109.27 C1230.72,2106.92 1244.82,2109.27 1244.82,2109.27 C1244.82,2109.27 1249.52,2105.98 1247.64,2102.22 C1245.76,2098.46 1250.46,2104.57 1251.4,2104.57 L1257.51,2104.57 C1260.8,2104.57 1259.86,2107.39 1264.09,2108.33 C1268.32,2109.27 1264.09,2108.33 1268.79,2108.33 C1273.49,2108.33 1268.79,2105.04 1268.79,2103.63 C1268.79,2102.22 1278.66,2106.45 1275.37,2099.87 C1271.57971,2097.5242 1267.10707,2096.53028 1262.68,2097.05 C1262.68,2097.05 1265.03,2101.75 1262.68,2097.05 C1260.33,2092.35 1262.68,2092.82 1262.68,2091.88 C1262.68,2090.94 1260.33,2091.88 1259.39,2091.88 L1253.75,2088.12 L1242,2085.77 C1234.95,2082.01 1218.97,2079.19 1214.27,2085.77 C1222.26,2089.06 1201.11,2091.88 1214.27,2085.77 C1210.98,2082.95 1208.16,2085.77 1204.87,2085.77 C1199.92593,2086.94857 1194.77407,2086.94857 1189.83,2085.77 L1189.83,2089.53 C1184.66,2083.89 1184.66,2077.31 1174.32,2077.78 C1170.26023,2078.25017 1166.15977,2078.25017 1162.1,2077.78 C1156.93,2077.78 1155.99,2074.02 1151.29,2073.55 C1146.59,2073.08 1151.29,2073.55 1151.29,2073.55 C1144.71,2069.79 1136.72,2079.66 1139.54,2073.55 C1136.09678,2073.76811 1132.64322,2073.76811 1129.2,2073.55 C1122.15,2073.55 1123.56,2073.55 1117.45,2073.55 C1111.34,2073.55 1120.74,2075.9 1120.74,2079.19 L1113.22,2079.19 C1113.22,2079.19 1113.22,2081.54 1113.22,2082.95 C1113.22,2084.36 1109.46,2079.66 1106.64,2079.19 L1101,2079.19 C1096.77,2079.19 1097.71,2084.36 1094.42,2084.36 C1092.10233,2082.46148 1089.90477,2080.42089 1087.84,2078.25 C1087.84,2078.25 1087.84,2072.14 1087.84,2069.79 C1087.84,2067.44 1082.67,2069.79 1079.85,2069.79 C1077.03,2069.79 1071.39,2063.68 1071.39,2072.61 C1067.2131,2073.5579 1062.8769,2073.5579 1058.7,2072.61 C1058.7,2072.61 1054,2061.8 1054,2061.33 C1048.99695,2060.87589 1043.96305,2060.87589 1038.96,2061.33 L1038.96,2059.45 C1038.96,2059.45 1034.73,2061.8 1033.79,2059.45 C1032.85,2057.1 1040.84,2056.16 1037.55,2055.22 C1034.26,2054.28 1031.91,2059.92 1027.21,2058.98 C1022.51,2058.04 1020.63,2063.21 1016.87,2063.21 C1025.32111,2060.19662 1033.01805,2055.38603 1039.43,2049.11 C1039.43,2039.24 1022.98,2040.18 1018.75,2042.06 C1014.52,2043.94 1018.75,2042.06 1018.75,2039.24 L1011.7,2039.24 C1012.20223,2037.83148 1013.004,2036.54866 1014.05,2035.48 C1004.65,2035.48 1004.65,2038.3 998.54,2041.12 C992.43,2043.94 998.54,2041.12 998.54,2041.12 C998.54,2041.12 991.49,2043.94 985.85,2044.41 C980.21,2044.88 980.68,2044.41 977.39,2044.41 L968.46,2049.11 L960,2049.11 C957.410817,2050.00746 954.89637,2051.10754 952.48,2052.4 C950.13,2056.63 957.65,2052.4 952.48,2057.1 C947.31,2061.8 937.44,2057.1 932.27,2060.86 C927.1,2064.62 943.08,2069.79 937.44,2070.26 C931.8,2070.73 934.15,2067.44 933.21,2066.97 C929.698166,2065.82161 925.911834,2065.82161 922.4,2066.97 C922.4,2066.97 925.69,2066.97 925.69,2069.79 C913.47,2069.79 925.69,2069.79 925.69,2075.43 C925.69,2081.07 918.64,2075.43 916.29,2071.67 C913.94,2067.91 916.29,2065.09 916.29,2063.21 L916.29,2063.21 C916.29,2069.32 912.53,2066.97 912.06,2070.26 C911.831355,2073.70287 911.831355,2077.15713 912.06,2080.6 C915.35,2086.24 914.41,2080.6 918.64,2082.95 C922.87,2085.3 923.81,2087.65 923.81,2091.41 C923.81,2095.17 928.04,2091.41 928.51,2091.41 C921.93,2095.64 922.87,2078.72 913.94,2086.24 C914.138446,2088.11476 914.138446,2090.00524 913.94,2091.88 C914.718109,2094.56102 914.379081,2097.44276 913,2099.87 C907.83,2102.69 907.83,2099.87 901.72,2099.87 C901.72,2099.87 908.3,2099.87 910.65,2096.11 C912.110008,2094.22067 912.932828,2091.91677 913,2089.53 C909.24,2089.53 907.83,2074.96 908.3,2070.73 L908.3,2070.73 C908.3,2065.09 900.31,2063.68 896.55,2066.97 C894.083847,2070.40002 891.884078,2074.01393 889.97,2077.78 C889.97,2074.49 889.97,2084.83 889.97,2082.95 C889.97,2081.07 889.97,2082.95 893.73,2086.71 C897.49,2090.47 897.96,2086.71 897.02,2090.47 C896.08,2094.23 891.85,2090.47 891.38,2090.47 L881.51,2085.77 C877.381236,2083.80793 873.144421,2082.08182 868.82,2080.6 C863.18,2080.6 880.1,2088.59 868.82,2093.29 C868.82,2083.89 850.02,2099.87 853.31,2089.53 C848.14,2092.35 842.5,2092.35 837.33,2095.64 C832.16,2098.93 825.58,2106.45 826.52,2095.64 C834.98,2095.64 826.52,2090.47 820.41,2090.47 C822.76,2090.47 824.17,2103.16 820.41,2104.1 C818.391204,2103.71844 816.318796,2103.71844 814.3,2104.1 C814.3,2104.1 809.6,2107.86 807.25,2107.86 C808.311336,2109.44292 809.105253,2111.18954 809.6,2113.03 C806.31,2113.03 802.08,2113.03 799.73,2109.74 C797.38,2106.45 803.02,2113.5 803.02,2115.85 C803.02,2118.2 797.85,2115.85 797.38,2115.85 C796.91,2115.85 795.03,2115.85 792.68,2110.21 C790.33,2104.57 786.57,2103.16 783.75,2098.93 C780.93,2094.7 814.77,2111.15 811.48,2098.93 C811.48,2095.64 803.02,2092.82 800.2,2091.88 C797.38,2090.94 788.45,2091.88 786.1,2091.88 C783.75,2091.88 779.05,2088.59 776.7,2086.71 C774.35,2084.83 776.7,2086.71 776.7,2083.89 C776.7,2081.07 773.88,2083.89 770.59,2083.89 C770.86859,2082.81103 770.86859,2081.67897 770.59,2080.6 L766.36,2080.6 C766.36,2080.6 766.36,2083.42 766.36,2084.83 C766.36,2086.24 766.36,2084.83 763.07,2081.54 C759.78,2078.25 763.07,2086.71 763.07,2081.54 L763.07,2081.54 L763.07,2081.54 C763.07,2081.54 752.73,2086.24 756.02,2081.54 C749.44,2081.54 749.91,2084.36 753.67,2086.71 C751.3256,2086.48056 748.9644,2086.48056 746.62,2086.71 C746.62,2086.71 746.62,2089.06 746.62,2090 C746.62,2090.94 743.33,2085.77 740.98,2085.77 C738.63,2085.77 740.98,2094.23 738.16,2089.53 C734.4,2093.29 738.16,2089.53 738.16,2094.7 C738.16,2099.87 735.34,2094.7 734.4,2090.94 C733.46,2087.18 734.4,2090.94 730.17,2094.23 C725.94,2097.52 730.17,2094.23 730.17,2094.23 C727.48398,2094.29725 725.011614,2095.71004 723.59,2097.99 C727.35,2097.99 732.05,2093.76 735.81,2095.64 C729.457285,2098.3883 724.760057,2103.95539 723.12,2110.68 C721.032679,2111.1305 719.092791,2112.10044 717.48,2113.5 L720.3,2113.5 C720.3,2116.79 712.31,2120.08 709.96,2119.61 C701.03,2119.61 700.09,2126.66 698.21,2133.24 C705.26,2133.24 695.39,2137.47 702.44,2137.94 C702.44,2137.94 702.44,2137.94 702.44,2141.7 C702.44,2145.46 712.31,2141.7 717.01,2136.53 C721.71,2131.36 722.65,2148.28 725.47,2151.57 C728.29,2154.86 725.47,2154.39 725.47,2154.86 C725.47,2155.33 728.29,2154.86 730.17,2154.86 C733.049728,2153.92358 735.874232,2152.82517 738.63,2151.57 L735.34,2151.57 C735.34,2151.57 740.51,2144.52 740.98,2143.58 C741.45,2142.64 746.15,2138.41 740.98,2138.41 C735.81,2138.41 737.22,2130.42 740.98,2125.25 C744.74,2120.08 747.09,2122.43 749.44,2119.61 C751.79,2116.79 749.44,2112.56 754.14,2110.68 C758.84,2108.8 762.13,2110.68 762.6,2114.44 C763.07,2118.2 742.86,2124.31 752.26,2135.12 C761.66,2145.93 770.59,2135.12 778.58,2137.94 C773.88,2142.64 767.77,2140.76 762.6,2141.23 L753.67,2144.05 L753.67,2144.05 L749.44,2144.05 C749.44,2148.75 754.61,2144.05 756.02,2144.05 C757.43,2144.05 758.37,2144.05 760.25,2147.34 C754.61,2154.39 755.08,2147.34 751.79,2147.34 C748.5,2147.34 748.03,2157.68 748.03,2159.56 C748.03,2161.44 740.51,2159.56 743.33,2162.38 C738.16,2157.21 735.34,2162.38 729.7,2162.38 C724.06,2162.38 719.83,2157.68 719.36,2162.38 C717.690826,2162.99101 715.859174,2162.99101 714.19,2162.38 C714.19,2156.74 722.65,2162.38 721.71,2154.86 C721.71,2154.86 716.54,2154.86 716.07,2154.86 C715.866239,2153.7728 715.866239,2152.6572 716.07,2151.57 C716.07,2151.57 716.07,2151.57 716.07,2151.57 C716.07,2151.57 716.07,2145.46 711.37,2151.57 C706.67,2157.68 711.37,2157.68 711.37,2160.5 C711.37,2163.32 711.37,2163.79 707.14,2167.08 C703.785845,2168.87148 700.113481,2169.98916 696.33,2170.37 C700.09,2175.54 692.1,2175.07 689.28,2177.42 C686.46,2179.77 686.46,2183.53 685.52,2184 C684.58,2184.47 680.35,2179.77 678,2179.77 C682.7,2188.23 673.3,2179.77 670.48,2184.47 C667.66,2189.17 670.48,2184.47 670.48,2187.76 C670.48,2191.05 673.77,2191.05 675.65,2194.34 C685.05,2213.14 662.49,2201.39 653.09,2205.15 C653.09,2211.26 653.09,2218.31 653.09,2223.95 C653.09,2229.59 653.09,2223.95 656.85,2228.65 C660.61,2233.35 661.55,2228.65 663.9,2232.41 C666.25,2236.17 663.9,2232.41 663.9,2232.41 C668.947402,2230.83071 673.708128,2228.45035 678,2225.36 C678,2225.36 678,2225.36 681.29,2225.36 C684.58,2225.36 681.29,2225.36 681.29,2222.54 C681.29,2219.72 681.29,2218.78 681.29,2217.37 C681.29,2215.96 689.28,2213.61 690.69,2212.67 C692.1,2211.73 690.69,2208.91 690.69,2207.5 C690.69,2206.09 696.33,2207.5 698.68,2207.5 C701.03,2207.5 703.85,2201.86 706.2,2202.33 C708.55,2202.8 712.78,2208.91 715.13,2210.79 C717.48,2212.67 737.22,2225.36 717.48,2225.36 C722.65,2234.76 731.11,2225.36 733.46,2219.72 L730.64,2219.72 L730.64,2219.72 L736.75,2219.72 C733.892338,2215.06573 729.345014,2211.69734 724.06,2210.32 C724.06,2207.5 719.36,2203.74 717.01,2203.74 C717.01,2193.4 724.53,2203.74 729.23,2206.09 C733.93,2208.44 737.22,2210.32 739.1,2214.08 C740.98,2217.84 741.92,2222.07 743.33,2224.42 L740.51,2224.42 C740.51,2227.24 742.86,2228.65 744.74,2224.42 C744.74,2234.76 753.67,2224.42 757.43,2224.42 C761.19,2224.42 757.43,2224.42 754.61,2224.42 C754.61,2224.42 748.5,2218.31 749.44,2216.9 C750.38,2215.49 752.26,2216.9 754.61,2216.9 C756.96,2216.9 754.61,2216.9 754.61,2216.9 C762.13,2206.09 766.36,2234.29 767.3,2234.29 C768.24,2234.29 772,2226.77 772,2226.77 C774.449094,2227.52977 777.070906,2227.52977 779.52,2226.77 C777.17,2226.77 783.28,2226.77 783.28,2226.77 C783.28,2226.77 786.57,2229.59 790.33,2226.77 L790.33,2226.77 C797.38,2226.77 797.85,2230.53 795.5,2238.05 C794.253854,2241.36959 791.939035,2244.18044 788.92,2246.04 C786.1,2246.04 783.28,2246.04 780.93,2246.04 C778.58,2246.04 787.98,2260.14 792.68,2255.44 C797.980979,2263.22713 802.395042,2271.58233 805.84,2280.35 C808.66,2285.05 814.3,2288.81 817.12,2293.98 C819.94,2299.15 817.12,2306.2 825.11,2306.2 C829.951559,2305.14224 834.566634,2303.23256 838.74,2300.56 C842.441581,2298.87463 846.050098,2296.99192 849.55,2294.92 C854.25,2294.92 857.54,2294.92 860.83,2289.75 C864.12,2284.58 865.53,2283.17 867.88,2284.11 C870.23,2285.05 867.88,2279.41 871.17,2278 C874.46,2276.59 866,2273.77 866,2273.77 C866,2273.77 866,2268.6 861.77,2273.77 C857.54,2278.94 861.77,2267.66 858.95,2266.25 C856.13,2264.84 858.95,2266.25 858.95,2272.36 C858.95,2278.47 842.03,2272.36 854.25,2269.54 L844.38,2266.25 C841.839819,2264.01242 839.76386,2261.29771 838.27,2258.26 C838.27,2250.74 840.62,2253.09 844.85,2258.26 C849.123478,2261.4954 853.882437,2264.03351 858.95,2265.78 C858.95,2265.78 862.71,2265.78 864.12,2265.78 C865.53,2265.78 864.12,2268.6 866.94,2269.54 C871.459198,2270.20228 876.050802,2270.20228 880.57,2269.54 C886.262844,2268.88024 892.018822,2270.03143 897.02,2272.83 C900.31,2272.83 900.78,2277.06 905.95,2278 C896.55,2278 905.95,2282.7 909.24,2283.64 C912.53,2284.58 909.24,2278.94 914.41,2283.64 C919.58,2288.34 914.41,2288.81 914.41,2291.63 C915.547575,2296.61477 917.120271,2301.49012 919.11,2306.2 C919.11,2309.49 922.4,2320.3 925.69,2322.18 C928.98,2324.06 932.74,2322.18 934.62,2316.54 C935.336374,2313.7655 935.336374,2310.8545 934.62,2308.08 C934.62,2308.08 934.62,2303.85 934.62,2302.44 C934.62,2301.03 934.62,2302.44 939.32,2299.15 C944.850658,2292.46699 951.162331,2286.4709 958.12,2281.29 C961.878751,2278.30481 965.981255,2275.7802 970.34,2273.77 C972.970747,2277.79543 974.879339,2282.24881 975.98,2286.93 C981.62,2286.93 975.98,2291.63 979.27,2294.45 C982.56,2297.27 985.38,2292.1 985.85,2292.1 C986.32,2292.1 993.37,2304.79 993.37,2309.49 C993.37,2314.19 989.14,2315.13 991.02,2319.36 C992.9,2323.59 995.72,2324.06 997.13,2327.35 C998.54,2330.64 1002.77,2345.68 1010.29,2341.92 C1007,2339.57 1007,2331.58 1007,2328.29 C1007,2325 998.54,2324.06 997.6,2317.48 C996.66,2310.9 997.6,2309.02 997.6,2307.14 C997.6,2305.26 997.6,2307.14 1002.3,2307.14 C1004.84104,2308.15912 1006.98436,2309.97269 1008.41,2312.31 L1012.17,2314.66 C1012.17,2314.66 1012.17,2317.95 1012.17,2320.77 C1015.46,2316.07 1020.63,2315.13 1022.98,2311.37 C1025.33,2307.61 1022.98,2299.62 1022.98,2294.45 C1022.98,2289.28 1015.46,2277.53 1029.09,2277.53 C1029.09,2281.29 1023.92,2285.52 1026.27,2287.87 C1028.62,2290.22 1033.32,2278 1032.85,2278.47 C1032.38,2278.94 1040.84,2278.47 1043.66,2275.18 C1046.7152,2274.08023 1049.57217,2272.49302 1052.12,2270.48 C1056.82,2266.72 1065.75,2259.2 1066.69,2252.62 C1067.63,2246.04 1066.69,2252.62 1066.69,2247.92 C1066.69,2243.22 1066.69,2247.92 1066.69,2243.22 C1066.69,2238.52 1060.58,2234.76 1060.58,2231.94 C1060.58,2229.12 1066.22,2228.65 1068.1,2225.83 C1069.98,2223.01 1068.1,2225.83 1064.81,2221.6 C1061.52,2217.37 1064.81,2224.42 1060.11,2224.42 C1055.41,2224.42 1053.06,2224.42 1056.82,2216.9 L1063.4,2214.08 C1070.45,2211.26 1068.57,2210.32 1063.4,2217.84 C1063.4,2217.84 1071.39,2214.08 1073.74,2215.02 C1076.09,2215.96 1073.74,2217.84 1073.74,2222.07 C1081.26,2218.78 1079.38,2231 1078.44,2234.76 C1077.5,2238.52 1090.19,2231.94 1089.72,2226.3 C1089.25,2220.66 1083.61,2221.13 1085.02,2214.55 C1086.43,2207.97 1087.84,2214.55 1087.84,2214.55 C1087.62236,2212.51915 1087.62236,2210.47085 1087.84,2208.44 C1087.84,2208.44 1090.66,2203.74 1093.01,2202.8 L1101,2202.8 C1103.36699,2202.18621 1105.4954,2200.87642 1107.11,2199.04 C1111.33211,2195.37879 1114.9766,2191.10048 1117.92,2186.35 C1121.21,2182.12 1120.27,2178.36 1122.15,2174.13 C1128.26,2159.09 1125.44,2188.23 1125.44,2192.46 C1125.44,2196.69 1127.79,2192.46 1128.73,2189.64 C1129.67,2186.82 1128.73,2189.64 1132.02,2189.64 C1135.31,2189.64 1124.97,2178.83 1132.02,2178.83 L1127.32,2155.8 L1127.32,2155.8 C1127.32,2160.97 1127.32,2160.5 1127.32,2164.73 C1127.32,2168.96 1124.03,2158.15 1117.45,2155.8 C1117.45,2160.97 1114.16,2159.09 1112.28,2155.8 L1112.28,2158.62 C1109.46,2158.62 1112.28,2158.62 1109.93,2154.39 C1107.58,2150.16 1109.93,2154.39 1109.93,2150.16 C1109.93,2145.93 1115.1,2145.46 1117.92,2142.17 C1123.53035,2136.08652 1132.28264,2134.03811 1140.01,2137 L1140.95,2137.47 Z M669.07,2176.95 C672.205712,2176.61862 675.242669,2175.65958 678,2174.13 C680.82,2174.13 685.05,2174.13 687.4,2174.13 C690.984881,2172.27117 692.756286,2168.1379 691.63,2164.26 C691.63,2164.26 689.28,2164.26 688.81,2164.26 C688.34,2164.26 688.81,2160.97 688.81,2160.5 L678,2155.33 C678,2152.04 678,2152.51 678,2150.16 C678,2147.81 685.52,2140.76 674.24,2144.05 C674.24,2144.05 674.24,2141.23 677.06,2140.29 C679.88,2139.35 671.89,2140.29 670.48,2143.58 C669.07,2146.87 662.49,2143.58 670.48,2147.34 C678.47,2151.1 668.13,2151.1 668.13,2152.51 C668.13,2153.92 672.36,2152.51 672.83,2152.51 C672.83,2159.09 675.65,2155.33 678,2160.5 C680.35,2165.67 675.18,2160.5 672.36,2166.14 L675.65,2166.14 C675.65,2166.14 671.42,2168.96 672.83,2170.37 C674.24,2171.78 678.47,2170.37 679.88,2170.37 C681.29,2170.37 665.78,2176.48 668.13,2176.48 L669.07,2176.95 Z M666.25,2160.5 C673.3,2160.5 654.5,2150.16 658.73,2160.5 C655.44,2160.5 650.74,2166.14 656.38,2165.67 C649.33,2176.48 659.2,2169.43 665.78,2170.84 C672.36,2172.25 665.31,2162.85 665.31,2160.03 L666.25,2160.5 Z M840.62,2409.13 C840.62,2402.55 845.32,2389.86 837.8,2386.57 C837.169859,2389.85714 835.714256,2392.93007 833.57,2395.5 C830.75,2397.85 826.52,2395.5 823.7,2399.26 C820.88,2403.02 823.7,2408.19 823.7,2410.07 C823.7,2411.95 819,2414.77 819,2417.12 C819,2419.47 819,2430.75 826.52,2428.87 C834.04,2426.99 831.22,2425.58 832.63,2419 L832.63,2411.48 C832.63,2411.48 839.68,2409.6 839.68,2408.66 L840.62,2409.13 Z M785.63,2252.62 C782.34,2245.1 780.46,2247.92 773.88,2247.45 C767.3,2246.98 756.49,2242.75 747.09,2240.87 C747.09,2249.8 747.09,2247.92 740.98,2248.39 C740.98,2248.39 735.81,2248.39 736.28,2248.39 L731.58,2248.39 L731.58,2248.39 C728.76,2248.39 719.83,2245.57 718.42,2243.22 C717.01,2240.87 722.18,2238.05 716.07,2234.29 C716.07,2234.29 716.07,2234.29 719.83,2231.94 C723.59,2229.59 708.08,2231.94 703.38,2231.94 C698.116469,2230.78017 692.663531,2230.78017 687.4,2231.94 C683.802394,2234.46503 679.568758,2235.93052 675.18,2236.17 C668.6,2236.17 665.31,2231.47 665.31,2239.93 L659.2,2239.93 C661.55,2247.92 655.44,2242.75 654.5,2245.57 C653.56,2248.39 654.5,2254.5 651.21,2257.32 L643.69,2262.96 C643.69,2262.96 639.93,2269.07 637.58,2272.36 C635.23,2275.65 627.24,2282.7 628.65,2287.4 C630.06,2292.1 633.35,2287.4 634.29,2287.4 C635.23,2287.4 634.29,2287.4 634.29,2290.22 C634.982677,2294.26389 634.982677,2298.39611 634.29,2302.44 C633.284795,2307.12463 634.905057,2311.98542 638.52,2315.13 C643.22,2320.3 647.92,2324.53 653.09,2329.23 C658.26,2333.93 655.91,2334.87 660.14,2335.34 C664.37,2335.81 665.31,2335.34 669.54,2335.34 C673.77,2335.34 676.12,2335.34 678.94,2335.34 C681.76,2335.34 683.64,2335.34 688.34,2331.58 C692.676179,2330.63879 697.163821,2330.63879 701.5,2331.58 C704.79,2331.58 701.5,2335.81 709.02,2336.75 C716.54,2337.69 716.54,2336.75 717.01,2343.33 C716.924461,2347.52872 715.617926,2351.61164 713.25,2355.08 C723.59,2358.37 730.17,2379.52 728.76,2389.86 C727.35,2400.2 720.77,2400.67 725.94,2411.48 C728.899501,2417.28722 731.110478,2423.44637 732.52,2429.81 C732.52,2437.33 740.04,2442.5 742.39,2449.55 C744.74,2456.6 742.39,2457.54 742.39,2460.83 C742.39,2464.12 771.06,2460.83 777.64,2452.37 C780.548183,2449.40623 783.074439,2446.09052 785.16,2442.5 C785.16,2439.21 785.16,2434.98 785.16,2433.1 C785.16,2431.22 790.8,2430.75 792.68,2428.87 C794.56,2426.99 792.68,2420.41 792.68,2414.3 C792.68,2408.19 802.55,2406.78 805.37,2404.43 C810.987028,2399.13958 813.006594,2391.06132 810.54,2383.75 C810.54,2378.58 804.9,2371.53 806.78,2365.42 C811.378076,2356.90093 817.994515,2349.63899 826.05,2344.27 C830.704268,2340.2372 834.672604,2335.47519 837.8,2330.17 C840.021759,2327.65038 841.487877,2324.55524 842.03,2321.24 C842.03,2313.72 842.03,2315.6 837.33,2315.6 C832.63,2315.6 825.58,2318.89 819,2311.84 C812.42,2304.79 809.6,2303.85 805.84,2299.62 C802.109166,2293.24244 799.11337,2286.46248 796.91,2279.41 C794.472602,2271.09118 790.830665,2263.17392 786.1,2255.91 L785.63,2252.62 Z M453.81,2502.66 C453.81,2502.66 453.81,2502.66 451.46,2502.66 C449.11,2502.66 448.64,2506.42 448.64,2506.42 L455.22,2512.06 C444.88,2512.06 455.22,2520.99 451.46,2524.75 L454.28,2524.75 C454.28,2524.75 454.28,2524.75 454.28,2524.75 C454.28,2524.75 454.28,2524.75 457.1,2524.75 C459.304569,2528.3863 461.992429,2531.7066 465.09,2534.62 C470.97792,2536.94973 477.53208,2536.94973 483.42,2534.62 C483.42,2534.62 475.43,2530.39 474.02,2526.63 C472.61,2522.87 468.85,2513.94 474.02,2514.41 C479.19,2514.88 481.54,2506.42 481.07,2503.6 C480.6,2500.78 473.08,2503.6 475.43,2496.08 C477.78,2488.56 480.6,2496.08 481.54,2496.08 C482.48,2496.08 481.54,2493.26 481.54,2491.85 C481.54,2490.44 485.3,2484.8 484.83,2487.62 C484.83,2482.45 480.6,2487.62 482.01,2480.1 C489.53,2483.39 490.94,2480.1 490,2473.52 C496.11,2473.52 503.63,2473.52 506.45,2467.88 C509.27,2462.24 503.63,2462.71 502.69,2457.07 C509.74,2457.07 512.56,2460.36 517.73,2457.07 C522.9,2453.78 522.43,2445.32 525.25,2445.79 C528.07,2446.26 525.25,2445.79 525.25,2448.14 C533.24,2444.38 530.89,2432.16 535.59,2426.99 C538.518254,2423.60885 542.485452,2421.29465 546.87,2420.41 C553.92,2420.41 555.33,2420.41 559.09,2412.42 C562.85,2404.43 561.91,2392.68 565.67,2386.57 C569.43,2380.46 573.66,2379.05 575.54,2373.88 C576.258429,2371.90669 576.258429,2369.74331 575.54,2367.77 C573.19,2360.72 575.54,2367.77 568.96,2361.66 C565.494789,2358.67338 561.260903,2356.71928 556.74,2356.02 C553.45,2356.02 542.17,2356.02 546.87,2356.02 L540.29,2352.73 C534.18,2352.73 535.59,2352.73 531.83,2352.73 L531.83,2348.03 L526.66,2348.03 C526.66,2348.03 526.66,2351.32 522.9,2351.32 C519.14,2351.32 529.48,2342.39 522.9,2342.39 C522.9,2332.52 514.91,2332.05 508.8,2330.17 C502.69,2328.29 495.17,2320.77 495.17,2317.01 C495.17,2313.25 487.18,2317.01 491.88,2317.01 C488.59,2313.25 482.95,2317.01 481.07,2317.01 C479.19,2317.01 471.67,2311.84 466.03,2310.43 C460.39,2309.02 466.03,2313.25 461.8,2315.13 C457.57,2317.01 461.8,2319.83 461.8,2320.3 C460.215302,2319.05237 459.290319,2317.14689 459.290319,2315.13 C459.290319,2313.11311 460.215302,2311.20763 461.8,2309.96 C456.16,2309.96 440.65,2318.42 439.71,2325.47 C438.77,2332.52 443.47,2333.46 439.71,2338.63 C437.121111,2342.71507 433.571,2346.10381 429.37,2348.5 C429.37,2353.67 429.37,2354.61 432.66,2355.08 C432.66,2358.37 425.61,2360.72 428.43,2366.83 C431.25,2372.94 432.66,2366.83 433.6,2370.59 C435.02841,2372.67855 436.28583,2374.87903 437.36,2377.17 C438.822442,2382.39789 440.872167,2387.44336 443.47,2392.21 C447.7,2396.91 452.4,2397.85 457.1,2402.08 C461.8,2406.31 462.27,2422.29 460.86,2432.16 C459.45,2442.03 458.04,2442.97 457.57,2448.14 C457.514322,2454.16664 456.725184,2460.16409 455.22,2466 C453.096012,2471.59935 451.675153,2477.44066 450.99,2483.39 C450.99,2483.39 450.99,2488.09 450.99,2486.68 C450.99,2485.27 450.99,2489.03 450.99,2490.44 C450.99,2491.85 455.22,2486.68 457.57,2486.68 C455.912347,2491.20753 454.961218,2495.96318 454.75,2500.78 C454.75,2500.78 454.75,2500.78 454.75,2497.02 C454.75,2493.26 453.81,2501.25 453.81,2502.66 Z M461.8,2292.1 C467.44,2292.1 475.9,2292.1 481.54,2292.1 C478.72,2288.81 471.2,2292.1 466.5,2289.28 C461.8,2286.46 457.1,2285.05 456.63,2289.28 C456.597253,2290.58551 457.169348,2291.83295 458.180074,2292.65991 C459.1908,2293.48687 460.526827,2293.80061 461.8,2293.51 L461.8,2292.1 Z M446.29,2292.1 C444.254141,2290.9246 441.745859,2290.9246 439.71,2292.1 C439.71,2292.1 444.41,2296.33 446.29,2292.1 L446.29,2292.1 Z M452.4,2285.05 C452.4,2280.82 439.71,2278.47 435.48,2277.06 C431.25,2275.65 426.08,2273.77 422.79,2273.77 C419.5,2273.77 419.97,2276.59 422.79,2278.47 C425.61,2280.35 425.61,2278.47 427.49,2278.47 C429.37,2278.47 431.25,2278.47 432.66,2281.29 C439.026026,2283.34292 445.729935,2284.141 452.4,2283.64 L452.4,2285.05 Z M609.85,2106.45 C613.14,2106.45 614.08,2106.45 615.02,2109.27 L608.44,2109.27 L608.44,2109.27 C615.49,2109.27 608.44,2112.09 613.61,2113.03 L622.54,2113.03 C628.18,2113.03 628.65,2113.03 633.82,2108.8 C638.99,2104.57 639.93,2108.8 641.34,2105.51 C642.75,2102.22 638.52,2105.51 638.05,2105.51 C638.05,2097.52 628.18,2105.51 623.01,2105.51 L618.31,2105.51 C615.96,2105.51 618.31,2101.75 615.96,2105.51 C613.61,2109.27 608.44,2109.27 609.85,2108.8 L609.85,2106.45 Z M509.27,2171.78 C509.27,2171.78 500.34,2184.94 501.28,2185.88 C502.22,2186.82 506.45,2185.88 508.33,2185.88 C511.024156,2186.92715 513.556067,2188.35135 515.85,2190.11 C521.02,2182.12 515.85,2179.77 508.8,2177.42 C508.8,2177.42 513.5,2168.96 508.8,2171.31 L509.27,2171.78 Z M490,2179.77 C486.71,2179.77 485.3,2179.77 482.01,2179.77 C478.72,2179.77 490,2183.06 490,2179.77 C490,2176.48 490,2179.77 490,2179.77 Z M584,2091.41 C584,2091.41 584,2091.41 586.35,2091.41 C588.7,2091.41 592.46,2091.41 597.16,2089.06 C601.86,2086.71 611.73,2085.3 613.14,2081.54 C607.5,2085.77 594.34,2075.43 608.44,2075.9 C608.44,2075.9 615.02,2083.42 616.43,2075.9 C617.84,2068.38 611.26,2067.91 609.38,2066.97 C607.5,2066.03 616.9,2070.73 615.02,2066.97 C613.14,2063.21 612.2,2064.15 608.44,2066.97 C604.68,2069.79 608.44,2066.97 608.44,2064.62 L608.44,2064.62 C610.79,2064.62 616.43,2067.44 619.25,2064.62 C622.07,2061.8 615.49,2061.8 615.49,2059.92 C615.49,2058.04 624.89,2059.92 625.83,2059.92 C626.77,2059.92 618.31,2054.75 625.83,2054.28 C633.35,2053.81 617.84,2048.64 618.78,2045.82 C619.72,2043 623.01,2045.82 623.95,2045.82 C624.89,2045.82 623.95,2045.82 626.77,2051.46 C626.77,2038.77 631,2038.77 621.13,2038.77 C623.48,2038.77 621.13,2038.77 624.89,2038.77 C628.65,2038.77 617.37,2038.77 617.37,2038.77 C617.37,2038.77 631,2018.09 633.82,2015.27 C631.318909,2015.50645 628.801091,2015.50645 626.3,2015.27 C630.78729,2014.79966 635.117965,2013.3561 638.99,2011.04 C638.99,2011.04 646.98,2011.04 643.69,2006.81 C640.4,2002.58 636.64,2006.81 635.7,2006.81 L623.01,2006.81 C618.344454,2009.27538 613.468506,2011.32014 608.44,2012.92 C614.55,2005.4 617.84,2004.46 608.44,2003.05 C608.44,2007.28 605.15,2006.81 601.39,2007.28 C597.63,2007.75 602.8,2007.28 605.62,2005.87 C599.51,2001.64 588.23,2008.69 584,2007.28 C584,2002.11 610.79,2001.64 616.9,2001.17 L616.9,2001.17 C612.204138,2001.4489 607.495862,2001.4489 602.8,2001.17 C595.75,2001.17 588.7,2001.17 581.65,2001.17 C589.229024,1999.43845 597.100976,1999.43845 604.68,2001.17 C604.68,1995.53 571.31,1997.88 567.08,2001.17 C562.85,2004.46 567.08,2003.99 560.97,2004.46 C554.86,2004.93 554.86,2004.46 551.57,2004.46 C547.300908,2000.94947 542.334559,1998.38619 537,1996.94 C537,1999.29 540.29,1996.94 540.29,2001.17 C540.29,2005.4 537,1997.88 537,2001.64 C537,2005.4 547.34,2006.81 544.05,2006.81 C540.76,2006.81 532.3,2001.17 524.78,2001.17 C524.78,2001.17 529.48,2005.87 529.95,2007.75 C530.42,2009.63 522.9,2002.58 518.2,2002.11 C513.5,2001.64 518.2,2010.57 518.2,2008.22 C518.2,2005.87 518.2,2003.52 518.2,2002.11 C518.2,2000.7 505.51,2006.34 503.16,2005.4 C506.026003,2006.16749 508.731844,2007.44083 511.15,2009.16 C507.86,2009.16 505.51,2009.16 502.22,2009.16 C498.93,2009.16 502.22,2009.16 497.99,2009.16 C493.76,2009.16 497.99,2012.45 497.99,2012.92 C497.99,2013.39 490,2012.92 485.3,2017.62 C480.6,2022.32 478.72,2017.62 478.72,2021.85 C478.72,2026.08 482.95,2021.85 485.77,2021.85 C488.59,2021.85 485.77,2027.96 485.77,2028.43 C485.77,2028.9 480.6,2028.43 479.66,2028.43 C475.20368,2028.75461 470.79325,2029.54219 466.5,2030.78 C455.69,2037.36 475.9,2037.83 482.01,2037.83 C488.12,2037.83 463.21,2038.77 463.21,2038.77 C463.21,2038.77 468.85,2041.59 469.79,2042.06 L469.79,2042.06 C469.79,2042.06 474.96,2046.29 477.31,2045.35 C479.66,2044.41 477.31,2045.35 477.31,2045.35 C485.132866,2043.03881 493.457134,2043.03881 501.28,2045.35 C507.845676,2050.15149 512.105664,2057.47867 513.03,2065.56 L513.03,2065.56 C506.92,2076.84 521.96,2065.56 526.19,2077.78 C521.96,2077.78 518.2,2074.96 514.44,2077.78 C510.68,2080.6 514.44,2085.3 517.73,2085.3 C521.02,2085.3 524.31,2082.01 517.73,2081.07 C525.72,2081.07 523.84,2081.07 526.19,2089.06 C528.54,2097.05 519.61,2089.06 519.61,2092.82 C511.62,2092.82 519.61,2102.69 519.61,2104.1 C519.61,2105.51 522.43,2104.1 522.9,2104.1 C523.37,2104.1 520.08,2104.1 522.9,2106.92 C525.72,2109.74 522.9,2111.62 522.9,2110.68 L526.66,2110.68 C524.636563,2117.22695 526.883572,2124.34248 532.3,2128.54 C537.421847,2131.09918 543.02896,2132.54101 548.75,2132.77 C551.57,2132.77 551.1,2125.72 552.04,2123.37 C552.98,2121.02 552.04,2123.37 552.04,2119.61 C552.04,2115.85 555.33,2119.61 555.8,2119.61 C556.27,2119.61 555.8,2107.86 565.2,2106.92 C565.2,2103.16 565.2,2106.92 567.55,2104.57 C566.14,2113.03 584,2091.41 584,2091.41 Z M405.87,2038.77 C409.16,2044.41 425.14,2042.06 430.78,2041.12 C436.42,2040.18 443,2044.88 443,2038.77 L443,2038.77 L443,2036.42 C443,2038.77 443,2038.77 440.18,2033.6 C437.36,2028.43 449.11,2033.6 445.82,2029.84 C442.53,2026.08 450.52,2029.84 450.52,2029.84 C450.52,2029.84 443,2025.61 440.18,2027.49 L440.18,2027.49 C445.35,2023.73 450.99,2027.49 456.16,2024.2 L453.34,2024.2 C456.685206,2025.38271 460.334794,2025.38271 463.68,2024.2 C463.68,2024.2 463.68,2024.2 459.92,2021.38 C467.91,2021.38 476.84,2014.8 483.89,2012.92 C483.89,2012.92 475.43,2012.92 471.67,2012.92 C474.96,2009.16 492.82,2012.92 493.76,2007.28 C494.7,2001.64 477.78,1998.35 474.02,1999.29 C470.374221,1997.38947 466.372602,1996.26902 462.27,1996 C460.86,2001.17 443,1991.77 443,1999.76 C437.83,1999.76 427.02,1996.94 423.26,1999.76 C428.398048,1998.58122 433.667365,2001.1183 435.95,2005.87 C431.72,2005.87 426.08,2002.11 422.79,2001.64 C420.17538,2000.91961 417.41462,2000.91961 414.8,2001.64 C410.57,2003.52 403.05,2005.87 396,2006.81 L396,2006.81 C400.23,2006.81 400.23,2010.1 404.93,2011.51 C409.63,2012.92 411.51,2011.51 417.15,2011.51 C405.87,2018.09 423.26,2015.74 426.08,2014.8 C428.9,2013.86 436.89,2009.63 443.47,2010.1 C441.580441,2010.44882 439.805261,2011.25572 438.3,2012.45 L443,2012.45 C436.98387,2014.73258 430.631264,2016.0031 424.2,2016.21 L424.2,2016.21 C427.49,2016.21 429.37,2019.97 433.13,2019.97 C427.49,2019.97 419.5,2016.21 412.92,2015.27 C406.34,2014.33 423.26,2024.67 428.43,2024.67 C427.343616,2025.80656 426.396907,2027.06883 425.61,2028.43 C416.21,2019.03 402.11,2033.13 419.5,2028.43 L416.68,2028.43 C416.68,2031.72 422.32,2028.43 425.14,2028.43 C422.32,2036.89 412.92,2028.43 406.81,2028.43 C411.51,2038.77 409.16,2038.77 405.87,2038.77 Z M405.87,2028.43 C405.87,2028.43 405.87,2028.43 405.87,2024.67 C416.68,2024.67 413.86,2019.97 405.87,2015.74 C397.88,2011.51 389.89,2007.28 390.36,2010.57 C390.83,2013.86 393.18,2010.57 393.65,2010.57 C391.466694,2010.86661 389.253306,2010.86661 387.07,2010.57 C388.244994,2011.90816 389.054466,2013.52711 389.42,2015.27 C388.01993,2015.50665 386.59007,2015.50665 385.19,2015.27 C384.978578,2016.98685 384.978578,2018.72315 385.19,2020.44 C388.01,2024.67 396,2020.91 396,2024.67 C393.500504,2024.40186 390.979496,2024.40186 388.48,2024.67 C392.98544,2030.24484 400.449856,2032.48417 407.28,2030.31 L405.87,2028.43 Z M398.82,2035.48 L396,2038.77 C398.204422,2039.9398 400.845578,2039.9398 403.05,2038.77 C403.05,2034.54 401.64,2035.01 398.82,2035.48 Z M401.17,2055.22 C404.46,2055.22 440.65,2055.22 435.48,2049.58 C430.31,2043.94 418.09,2049.58 413.39,2049.58 C408.69,2049.58 403.05,2038.77 396,2042.53 C396,2047.7 396,2053.34 401.17,2055.22 L401.17,2055.22 Z M383.78,2050.99 C383.78,2050.99 394.12,2056.63 393.18,2050.99 C392.24,2045.35 385.19,2049.58 383.78,2051.93 L383.78,2050.99 Z M391.77,2043.94 C396,2041.12 389.89,2038.77 386.13,2038.77 C382.37,2038.77 388.01,2044.88 391.77,2044.88 L391.77,2043.94 Z M385.19,2038.77 C388.882453,2038.21265 392.505827,2037.26742 396,2035.95 L396,2035.95 C389.89,2034.07 386.13,2033.6 385.19,2038.77 Z M385.19,2034.54 C396,2031.25 380.49,2027.49 377.67,2027.96 C374.85,2028.43 381.43,2034.54 385.66,2033.13 L385.19,2034.54 Z M376.73,2020.91 C376.73,2018.56 376.73,2017.15 371.56,2018.09 L371.56,2018.09 C371.56,2018.09 374.38,2021.38 376.73,2020.91 Z M376.73,2035.01 C376.73,2026.55 363.1,2022.79 356.99,2025.14 C358.156258,2026.3853 359.109054,2027.81449 359.81,2029.37 L356.99,2029.37 C359.34,2032.66 369.68,2033.13 374.38,2035.01 L376.73,2035.01 Z M370.62,2035.01 C370.62,2035.01 367.8,2035.01 365.45,2035.01 C363.1,2035.01 365.45,2035.95 368.27,2035.01 L370.62,2035.01 Z M370.62,2049.58 C373.91,2049.58 375.79,2049.58 376.73,2052.87 C377.67,2056.16 384.25,2052.87 383.78,2046.29 C383.31,2039.71 378.14,2043.47 373.44,2041.59 C375.08787,2042.92502 376.515337,2044.51109 377.67,2046.29 C375.145869,2044.99434 372.458212,2044.04576 369.68,2043.47 C369.68,2043.47 369.68,2043.47 369.68,2047.23 C369.68,2050.99 365.45,2041.12 361.22,2041.12 C356.99,2041.12 362.16,2048.17 366.86,2049.58 L370.62,2049.58 Z M361.22,2049.58 C361.22,2049.58 364.51,2053.81 364.51,2049.58 C364.51,2045.35 357.93,2050.52 357.46,2050.52 L361.22,2049.58 Z M358.4,2038.77 C357.540164,2036.62773 355.842275,2034.92984 353.7,2034.07 C353.7,2038.77 355.58,2038.77 358.4,2038.77 Z M443,2097.05 C443,2097.05 451.93,2097.05 449.58,2093.29 C447.23,2089.53 443,2092.35 443,2097.05 Z M390.83,2069.32 C390.83,2069.32 393.18,2069.32 393.18,2065.56 C393.18,2061.8 399.76,2063.21 402.11,2059.92 C404.46,2056.63 391.77,2056.63 388.48,2059.92 C385.19,2063.21 384.72,2071.2 390.83,2069.32 Z M376.26,2074.49 C383.78,2074.49 385.66,2067.91 376.26,2064.62 C381.9,2064.62 376.26,2059.45 376.26,2058.51 C376.26,2057.57 371.09,2058.51 368.74,2058.51 C366.39,2058.51 368.74,2066.5 364.51,2063.68 C360.28,2060.86 373.44,2073.08 376.26,2074.49 Z M357.93,2064.15 C357.93,2059.92 353.7,2058.98 350.88,2061.33 C348.06,2063.68 355.58,2065.56 357.93,2064.15 Z M331.61,2030.78 L343.36,2030.78 C341.01,2026.55 334.9,2027.96 331.61,2030.78 Z M334.9,2038.77 C338.19,2038.77 342.42,2038.77 339.13,2035.48 C335.84,2032.19 339.13,2035.48 341.95,2035.48 C338.604794,2034.29729 334.955206,2034.29729 331.61,2035.48 C331.61,2035.48 333.02,2038.77 334.9,2038.77 Z M329.26,2035.01 C329.26,2035.01 329.26,2031.72 324.56,2032.19 C319.86,2032.66 326.91,2034.54 329.26,2035.01 Z M325.97,2043 C321.27,2043 316.57,2049.11 319.86,2051.93 C323.15,2054.75 333.49,2051.93 336.78,2051.93 C340.07,2051.93 327.85,2051.93 328.79,2054.28 C329.73,2056.63 334.9,2054.28 336.78,2054.28 C338.66,2054.28 355.58,2051.46 354.64,2045.82 C354.64,2048.17 344.77,2040.18 345.71,2040.65 C346.65,2041.12 339.13,2040.65 341.48,2046.29 C343.83,2051.93 343.83,2046.29 344.3,2046.29 C344.77,2046.29 328.32,2043.94 325.97,2043 L325.97,2043 Z M312.81,2047.23 L312.81,2047.23 C316.57,2047.23 316.1,2047.23 317.98,2044.41 L312.81,2047.23 Z M317.98,2043 C320.480639,2042.69872 322.630595,2041.08626 323.62,2038.77 C313.75,2038.77 310.46,2045.35 301.53,2046.29 C305.76,2052.87 311.87,2046.29 315.63,2043.47 C319.39,2040.65 317.98,2042.53 318.92,2043 L317.98,2043 Z M321.27,2085.77 C328.32,2085.77 328.32,2088.59 333.96,2090 C339.6,2091.41 343.83,2085.77 349,2085.77 C354.17,2085.77 371.09,2088.59 364.51,2083.42 C366.474245,2083.34251 368.330059,2082.49896 369.68,2081.07 C363.57,2076.84 361.22,2076.84 358.4,2071.2 C355.58,2065.56 351.35,2058.98 349,2064.15 C346.65,2069.32 354.17,2072.14 349,2072.14 C343.83,2072.14 349,2064.62 341.95,2064.62 L341.95,2067.91 L336.78,2067.91 C336.983761,2066.8228 336.983761,2065.7072 336.78,2064.62 C333.930073,2063.39157 330.699927,2063.39157 327.85,2064.62 C327.85,2058.51 323.62,2061.8 320.8,2064.62 C317.070602,2065.94621 314.136213,2068.8806 312.81,2072.61 C316.1,2072.61 319.86,2072.61 323.15,2072.61 C320.62893,2073.04763 318.227413,2074.00823 316.1,2075.43 C319.86,2077.78 331.61,2075.43 333.49,2077.78 C335.37,2080.13 320.8,2077.78 318.45,2081.07 L321.27,2085.77 Z M349,2091.88 C351.82,2091.88 353.7,2091.88 354.17,2088.12 C351.145126,2088.59146 348.258657,2089.71398 345.71,2091.41 L349,2091.88 Z M302,2074.49 C307.64,2074.49 309.99,2067.44 315.16,2065.09 C320.33,2062.74 325.03,2059.45 315.16,2057.57 C315.16,2057.57 299.18,2053.81 296.36,2057.57 C293.54,2061.33 296.36,2068.38 290.72,2072.14 C295.102586,2071.0796 299.66698,2072.98144 302,2076.84 L302,2074.49 Z M221.63,2129.48 C221.63,2124.31 229.62,2129.48 233.38,2131.83 C237.14,2134.18 242.31,2131.83 246.54,2131.83 C250.77,2131.83 260.17,2141.23 268.16,2142.64 C268.652011,2144.33614 269.448292,2145.9287 270.51,2147.34 C270.51,2147.34 274.74,2147.34 274.74,2150.16 L281.79,2161.44 C284.787486,2165.69052 288.835891,2169.09118 293.54,2171.31 C299.419379,2174.10437 302.8337,2180.36395 302,2186.82 C296.83,2180.71 291.66,2172.25 283.67,2173.66 C287.43,2177.89 293.07,2179.77 295.89,2185.88 C298.71,2191.99 295.89,2197.63 295.89,2202.8 C296.109355,2213.67811 300.096042,2224.14317 307.17,2232.41 C310.93,2236.17 316.57,2236.64 319.86,2241.81 C323.15,2246.98 325.03,2251.21 327.38,2255.44 C329.73,2259.67 327.38,2255.44 327.38,2260.61 L333.49,2265.31 C336.409204,2267.73438 338.944592,2270.58669 341.01,2273.77 C346.18,2268.6 326.44,2250.74 325.97,2243.22 C331.14,2243.22 337.72,2255.44 341.48,2259.67 C345.24,2263.9 351.35,2272.83 356.99,2278.94 C349,2284.11 379.55,2295.39 384.72,2295.86 C389.89,2296.33 388.01,2295.86 390.83,2295.86 C393.65,2295.86 395.53,2300.09 397.88,2301.5 C401.473428,2303.01202 405.277788,2303.96311 409.16,2304.32 C413.86,2307.14 415.74,2313.25 418.09,2315.6 C423.033934,2318.8503 428.414287,2321.38223 434.07,2323.12 C434.07,2315.13 442.06,2323.12 442.06,2319.83 C442.06,2316.54 430.78,2319.83 427.49,2315.6 C424.2,2311.37 427.49,2304.32 424.2,2298.21 C420.91,2292.1 411.51,2298.21 407.28,2294.92 C411.04,2290.69 416.68,2277.53 407.28,2278 C397.88,2278.47 403.52,2283.64 398.82,2287.4 C394.494372,2290.6119 388.575628,2290.6119 384.25,2287.4 C378.372629,2278.06471 378.372629,2266.18529 384.25,2256.85 C390.36,2247.92 399.76,2256.85 406.34,2256.85 C406.34,2251.21 411.04,2252.15 415.27,2252.15 C419.5,2252.15 424.2,2252.15 422.79,2252.15 C421.38,2252.15 430.78,2269.54 433.6,2269.54 C436.42,2269.54 430.78,2248.86 435.95,2242.75 C441.12,2236.64 445.82,2238.05 447.7,2233.82 C449.58,2229.59 447.7,2228.18 447.7,2223.48 C447.7,2218.78 447.7,2223.48 451.93,2223.48 C453.107413,2220.01838 454.684747,2216.70598 456.63,2213.61 C460.041654,2211.96127 463.688294,2210.85142 467.44,2210.32 C462.74,2200.92 481.54,2194.34 488.59,2195.75 C488.59,2195.75 481.54,2195.75 481.07,2199.51 C480.6,2203.27 485.3,2199.51 485.77,2199.51 C491.853204,2198.51673 497.094181,2194.67334 499.87,2189.17 C495.17,2189.17 493.76,2194.81 488.12,2191.99 C482.48,2189.17 488.12,2184 488.12,2181.18 C488.12,2178.36 471.2,2187.29 466.03,2190.58 C467.337048,2188.08935 469.089302,2185.85921 471.2,2184 L467.44,2184 C474.02,2184 477.31,2177.42 482.95,2176.01 C485.288848,2175.61806 487.640166,2175.30455 490,2175.07 C493.678066,2174.91323 497.247612,2173.77747 500.34,2171.78 C504.57,2171.78 511.62,2169.43 509.74,2163.79 C507.86,2158.15 499.87,2163.79 495.17,2163.79 C490.47,2163.79 501.75,2160.97 505.04,2158.15 C498.731777,2157.46832 493.135749,2153.79593 490,2148.28 C493.76,2148.28 483.42,2135.59 481.54,2131.36 C478.72,2134.65 478.72,2139.82 474.02,2140.76 C469.32,2141.7 470.26,2137 465.09,2140.76 C468.38,2129.95 459.45,2126.19 450.99,2123.84 C442.53,2121.49 436.42,2124.31 443,2132.77 L443,2132.77 C443,2132.77 443,2135.59 443,2137.47 C446.617733,2139.24879 448.595062,2143.2309 447.825592,2147.18817 C447.056122,2151.14544 443.730688,2154.09646 439.71,2154.39 C442.53,2157.68 445.35,2169.43 439.71,2170.37 C434.07,2171.31 431.72,2158.15 432.19,2153.45 C425.815947,2152.57026 419.626071,2150.66568 413.86,2147.81 L400.7,2145.93 C400.7,2145.93 397.88,2145.93 396,2145.93 C394.12,2145.93 396,2142.17 396,2140.76 C396,2139.35 390.83,2140.76 391.3,2132.3 C392.050831,2128.82113 393.667404,2125.58799 396,2122.9 C396,2122.9 403.05,2120.08 402.58,2116.79 C402.11,2113.5 394.12,2113.97 392.71,2113.03 C391.3,2112.09 404.46,2117.73 405.87,2113.03 C410.57,2116.32 412.92,2113.03 414.33,2108.8 C410.160018,2108.55172 406.119436,2107.25873 402.58,2105.04 C405.4,2105.04 422.32,2109.27 415.74,2101.75 C423.26,2101.75 415.74,2113.03 415.74,2114.44 C417.612242,2116.94417 420.607082,2118.35351 423.73,2118.2 L428.9,2118.2 C428.9,2118.2 432.19,2118.2 433.13,2118.2 C442.53,2118.2 424.2,2110.21 422.79,2106.92 C421.38,2103.63 422.79,2106.92 426.08,2104.57 C428.857711,2104.82109 431.491971,2103.29372 432.654036,2100.75831 C433.816102,2098.22289 433.253495,2095.23029 431.25,2093.29 C439.71,2093.29 431.25,2086.24 426.08,2084.36 C431.25,2084.36 436.89,2084.36 442.53,2084.36 C442.695005,2083.58536 442.695005,2082.78464 442.53,2082.01 C448.122626,2083.88043 453.250615,2086.92517 457.57,2090.94 C457.57,2090.94 464.15,2095.17 464.15,2098.46 C464.15,2101.75 456.16,2102.69 459.92,2108.33 C456.63,2108.33 445.35,2108.33 445.82,2112.09 C446.29,2115.85 454.75,2112.09 456.63,2112.09 C458.51,2112.09 463.68,2117.26 467.91,2120.55 C472.14,2123.84 478.72,2123.37 483.42,2126.19 C488.12,2129.01 477.31,2120.08 474.96,2116.32 L487.65,2122.9 L487.65,2117.73 C483.89,2113.5 479.19,2110.21 474.96,2105.04 C478.25,2100.81 479.19,2105.04 482.95,2105.04 C486.71,2105.04 485.77,2109.74 490.47,2108.8 L490,2102.69 C490,2098.93 490,2102.69 490,2098.46 C490,2094.23 464.15,2088.59 476.84,2085.77 L473.08,2085.77 L475.43,2085.77 C475.43,2085.77 472.61,2083.42 470.26,2082.95 L459.45,2080.13 L459.45,2080.13 C450.99,2080.13 450.52,2075.43 444.88,2073.55 C439.24,2071.67 432.19,2077.31 430.31,2076.37 C428.43,2075.43 430.31,2073.08 430.31,2070.26 C430.31,2067.44 427.49,2066.5 422.32,2067.44 C417.15,2068.38 414.8,2074.96 419.03,2080.13 C410.57,2080.13 411.98,2068.85 419.03,2066.03 C412.92,2066.03 406.81,2066.03 404.46,2073.08 C402.11,2080.13 407.75,2078.25 411.04,2082.95 C414.33,2087.65 407.28,2082.95 405.4,2082.95 C403.52,2082.95 416.21,2086.71 419.97,2088.12 C423.73,2089.53 416.68,2105.04 410.1,2101.75 C403.52,2098.46 410.1,2095.64 410.1,2095.64 C410.1,2095.64 405.4,2095.64 404.46,2095.64 C399.836567,2092.93819 396.715737,2088.25694 396,2082.95 C396,2079.19 396,2068.38 386.13,2074.02 C376.26,2079.66 394.12,2088.59 386.13,2086.71 C386.13,2090.47 390.36,2090.47 393.18,2086.71 C393.18,2091.88 386.13,2090 388.01,2096.58 C384.25,2096.58 385.19,2096.58 388.01,2091.41 C390.83,2086.24 388.01,2091.41 388.01,2088.59 L388.01,2088.59 C388.043788,2085.2935 385.632889,2082.48078 382.37,2082.01 L374.38,2085.77 L379.08,2089.06 C375.32,2096.11 367.8,2092.82 361.22,2089.06 C354.64,2085.3 356.52,2086.24 352.29,2089.06 C348.06,2091.88 349,2094.7 349,2100.81 C346.18,2091.41 333.49,2094.7 325.97,2093.76 C326.949043,2092.50112 328.247345,2091.5274 329.73,2090.94 C322.795791,2088.22931 315.520356,2086.48953 308.11,2085.77 C302.47,2085.77 297.3,2090.47 294.95,2085.77 C294.95,2090.94 292.6,2085.77 289.78,2085.77 C286.96,2085.77 289.78,2082.01 286.02,2081.54 C282.26,2081.07 286.02,2081.54 283.67,2081.54 C278.832868,2083.6051 274.124362,2085.95936 269.57,2088.59 C272.86,2084.83 277.56,2085.3 280.38,2081.54 C274.483859,2082.50405 268.670197,2083.91818 262.99,2085.77 C253.59,2085.77 249.83,2085.77 240.43,2082.95 C231.03,2080.13 226.8,2080.6 219.28,2080.13 C212.805965,2078.62584 206.186223,2077.83778 199.54,2077.78 L199.54,2077.78 C194.055276,2077.87509 188.636226,2078.99078 183.56,2081.07 C178.39,2080.6 177.92,2085.77 173.69,2085.77 C169.46,2085.77 163.35,2085.77 168.05,2091.88 C172.75,2097.99 177.92,2096.11 179.8,2101.28 C181.68,2106.45 172.75,2101.28 172.75,2098.46 C168.52,2101.28 164.29,2098.46 161,2104.1 C165.23,2104.1 165.23,2109.27 168.99,2110.21 C172.75,2111.15 178.39,2110.21 182.62,2110.21 C182.62,2121.96 168.99,2113.5 167.11,2124.31 C167.11,2127.13 173.22,2138.88 177.45,2131.83 C179.104897,2134.23626 179.104897,2137.41374 177.45,2139.82 C181.68,2139.82 186.38,2139.82 188.26,2139.82 L192.96,2139.82 C189.67,2153.92 174.16,2151.57 167.11,2160.03 C177.45,2162.38 194.84,2146.4 204.24,2141.23 C204.096291,2139.98079 204.096291,2138.71921 204.24,2137.47 C209.41,2137.47 211.76,2126.66 218.34,2130.89 C213.64,2130.89 210.82,2133.71 212.23,2138.41 C215.274369,2135.61168 219.003215,2133.66619 223.04,2132.77 L221.63,2129.48 Z M208,2143.11 L208,2140.29 C204.71,2140.29 200.01,2143.11 202.83,2147.81 C204.870006,2146.63162 206.633105,2145.0288 208,2143.11 Z" id="Shape"></path>
        </g>
    </g>
</svg>