<?xml version="1.0" encoding="UTF-8"?>
<svg width="321px" height="155px" viewBox="0 0 321 155" version="1.1" xmlns="http://www.w3.org/2000/svg" xmlns:xlink="http://www.w3.org/1999/xlink">
    <!-- Generator: Sketch 54.1 (76490) - https://sketchapp.com -->
    <title>mask</title>
    <desc>Created with Sketch.</desc>
    <g id="Page-1" stroke="none" stroke-width="1" fill="none" fill-rule="evenodd">
        <g id="privacy-expanded" transform="translate(-442.000000, -794.000000)" fill-rule="nonzero">
            <g id="privacy-large" transform="translate(420.000000, 536.000000)">
                <g id="mask" transform="translate(0.000000, 108.000000)">
                    <g id="lockedmonitor" transform="translate(-48.000000, 69.000000)">
                        <g id="clouds03" transform="translate(0.000000, 120.000000)">
                            <path d="M308.767477,78.8782591 C308.382269,78.8782591 308.011877,78.8782591 307.6563,78.8782591 C307.12594,73.1447619 303.600804,68.1284562 298.403226,65.7110375 C293.205649,63.2936189 287.12133,63.8405207 282.432595,67.1465915 C278.850704,61.5140063 272.192131,58.6769491 265.676054,60.0070338 C262.998793,49.8007433 253.345046,43.061504 242.899145,44.1065714 C232.453243,45.1516388 224.309406,53.6714496 223.684695,64.2080881 C222.946769,64.1254907 222.204826,64.0844589 221.462342,64.0851849 C213.753992,64.0966548 206.780068,68.6853722 203.683519,75.7833335 C197.042809,72.576388 189.126871,73.7818501 183.728345,78.8221655 C178.32982,83.8624809 176.548327,91.7109931 179.237405,98.6073665 C181.926483,105.50374 188.538397,110.04326 195.905284,110.050976 L196.083072,110.050976 C197.504616,115.877997 201.810251,120.558228 207.477227,122.436436 C213.144203,124.314643 219.373671,123.126066 223.962489,119.291061 C226.630781,126.687891 233.500663,131.7129 241.321131,131.988126 C249.141598,132.263351 256.344064,127.733588 259.520136,120.542439 C264.571375,127.025363 272.716725,130.25129 280.807993,128.973393 C288.899261,127.695495 295.668813,122.113978 298.500206,114.386106 C305.384387,118.81531 314.304397,118.368221 320.716393,113.272584 C327.128389,108.176948 329.621838,99.5537191 326.926581,91.7955627 C324.231323,84.0374062 316.94027,78.8509857 308.767477,78.8782591 Z" id="Path" fill="#FEFEFE"></path>
                            <path d="M308.767477,78.8782591 C308.382269,78.8782591 308.011877,78.8782591 307.6563,78.8782591 C307.12594,73.1447619 303.600804,68.1284562 298.403226,65.7110375 C293.205649,63.2936189 287.12133,63.8405207 282.432595,67.1465915 C278.850704,61.5140063 272.192131,58.6769491 265.676054,60.0070338 C262.998793,49.8007433 253.345046,43.061504 242.899145,44.1065714 C232.453243,45.1516388 224.309406,53.6714496 223.684695,64.2080881 C222.946769,64.1254907 222.204826,64.0844589 221.462342,64.0851849 C213.753992,64.0966548 206.780068,68.6853722 203.683519,75.7833335 C197.042809,72.576388 189.126871,73.7818501 183.728345,78.8221655 C178.32982,83.8624809 176.548327,91.7109931 179.237405,98.6073665 C181.926483,105.50374 188.538397,110.04326 195.905284,110.050976 L196.083072,110.050976 C197.504616,115.877997 201.810251,120.558228 207.477227,122.436436 C213.144203,124.314643 219.373671,123.126066 223.962489,119.291061 C226.630781,126.687891 233.500663,131.7129 241.321131,131.988126 C249.141598,132.263351 256.344064,127.733588 259.520136,120.542439 C264.571375,127.025363 272.716725,130.25129 280.807993,128.973393 C288.899261,127.695495 295.668813,122.113978 298.500206,114.386106 C305.384387,118.81531 314.304397,118.368221 320.716393,113.272584 C327.128389,108.176948 329.621838,99.5537191 326.926581,91.7955627 C324.231323,84.0374062 316.94027,78.8509857 308.767477,78.8782591 Z" id="Path" fill="#FEFEFE"></path>
                            <path d="M308.721412,79.1199774 C308.336533,79.1199774 307.966457,79.1199774 307.611185,79.1199774 C307.081278,73.4089656 303.559155,68.4123325 298.366019,66.0043944 C293.172882,63.5964563 287.093763,64.1412134 282.409035,67.4343185 C279.469258,62.7980869 274.366708,59.992856 268.886472,60.0000137 C267.827866,60.0012024 266.771883,60.1055659 265.733428,60.3116312 C266.366257,60.6232488 281.143376,67.9685201 276.835696,79.8099877 C276.835696,79.8099877 297.130643,71.7413185 300.63896,88.0567241 C300.63896,88.0567241 311.630206,87.1218714 308.199605,97.1826672 C304.136175,109.102039 294.166337,101.634347 294.166337,101.634347 C294.03311,106.764907 274.737367,126.886499 260.382134,108.211703 C260.382134,108.211703 243.273538,136.279543 224,119.340902 C226.666012,126.708724 233.530023,131.714026 241.343807,131.988172 C249.157591,132.262318 256.353902,127.75032 259.527259,120.587372 C264.574182,127.044873 272.712571,130.258148 280.796924,128.985262 C288.881278,127.712376 295.645045,122.152748 298.474018,114.455184 C305.350969,118.8972 314.283348,118.469835 320.707002,113.391457 C327.130656,108.313079 329.626987,99.7051961 326.920451,91.9661548 C324.213916,84.2271136 316.902224,79.0660012 308.721412,79.1199774 L308.721412,79.1199774 Z" id="Path" fill="#D9F7FF"></path>
                            <path d="M141.161261,64.6460644 C139.827807,60.8008247 136.983877,57.667251 133.287792,55.9707108 C129.591707,54.2741706 125.363911,54.1617512 121.583064,55.6594756 C118.652881,48.0754269 111.061035,43.3494431 102.970149,44.072789 C94.8792628,44.7961349 88.2441737,50.794043 86.7029123,58.7778502 C86.008751,58.6785103 85.3084887,58.6279886 84.6072712,58.6266563 C76.6892451,58.6194813 70.2099091,64.9340698 70.0049802,72.8576604 C69.8000514,80.781251 75.9442959,87.4230027 83.8520852,87.8259827 C85.5165894,93.2449597 90.0074219,97.3193995 95.5578749,98.4464043 C101.108328,99.5734091 106.830163,97.5726245 110.472391,93.2311655 C113.391543,97.267645 118.240219,99.438457 123.191846,98.9258227 C128.143473,98.4131883 132.44572,95.2949952 134.477865,90.7459154 C139.243311,92.2501992 144.449047,90.9903143 148.001668,87.4729037 C151.55429,83.9554931 152.870041,78.7585253 151.419815,73.9718796 C149.969588,69.1852339 145.991679,65.595435 141.085742,64.6460644 L141.161261,64.6460644 Z" id="Path" fill="#FEFEFE"></path>
                            <path d="M141.179244,64.6460644 C139.852624,60.8008247 137.02327,57.667251 133.346128,55.9707108 C129.668986,54.2741706 125.462857,54.1617512 121.701388,55.6594756 C118.786222,48.0754269 111.233285,43.3494431 103.183866,44.072789 C95.1344459,44.7961349 88.5333624,50.794043 87,58.7778502 C87,58.7778502 110.243826,40.8235718 117.832113,64.9862507 C117.832113,64.9862507 134.38923,56.2264528 136.680742,70.9867595 C136.680742,70.9867595 143.048142,74.483119 140.512452,80.7482172 C136.812223,89.8576511 125.711535,82.1562106 125.711535,82.1562106 C125.711535,82.1562106 128.688623,93.268964 110.685224,93.2311655 C113.589415,97.267645 118.413241,99.438457 123.33949,98.9258227 C128.265739,98.4131883 132.545938,95.2949952 134.567667,90.7459154 C139.30869,92.2501992 144.487747,90.9903143 148.02216,87.4729037 C151.556574,83.9554931 152.865582,78.7585253 151.422788,73.9718796 C149.979994,69.1852339 146.022473,65.595435 141.141679,64.6460644 L141.179244,64.6460644 Z" id="Path" fill="#D9F7FF"></path>
                            <g id="Group-2" transform="translate(258.000000, 34.000000)">
                                <path d="M128.437397,37.1629159 C126.030675,30.2414844 120.897729,24.6010519 114.226747,21.5472795 C107.555764,18.4935072 99.9251073,18.2911521 93.1011406,20.987056 C87.8125167,7.3357684 74.110161,-1.17100242 59.5070981,0.131020181 C44.9040352,1.43304278 32.9285087,12.2292773 30.1467197,26.6001304 C28.8938433,26.4213186 27.6299553,26.3303795 26.3643432,26.3279813 C12.0732717,26.3150664 0.378860293,37.6813256 0.00898870414,51.9437887 C-0.360882884,66.2062518 10.7287292,78.1614049 25.0013246,78.8867689 C28.0055515,88.6409275 36.1109565,95.974919 46.1288473,98.0035277 C56.1467381,100.032136 66.4739519,96.4307241 73.0477297,88.6160979 C78.3164441,95.8817611 87.0677124,99.7892226 96.0047949,98.8664808 C104.941877,97.9437389 112.70691,92.3309913 116.374683,84.1426477 C124.975732,86.8503586 134.371451,84.5825657 140.783499,78.2512267 C147.195547,71.9198876 149.570319,62.5653455 146.952836,53.9493832 C144.335354,45.333421 137.155714,38.8717829 128.301096,37.1629159 L128.437397,37.1629159 Z" id="Path-Copy-3" fill="#FEFEFE"></path>
                                <path d="M128.437397,37.1629159 C126.030675,30.2414844 120.897729,24.6010519 114.226747,21.5472795 C107.555764,18.4935072 99.9251073,18.2911521 93.1011406,20.987056 C87.8125167,7.3357684 74.110161,-1.17100242 59.5070981,0.131020181 C44.9040352,1.43304278 32.9285087,12.2292773 30.1467197,26.6001304 C28.8938433,26.4213186 27.6299553,26.3303795 26.3643432,26.3279813 C12.0732717,26.3150664 0.378860293,37.6813256 0.00898870414,51.9437887 C-0.360882884,66.2062518 10.7287292,78.1614049 25.0013246,78.8867689 C28.0055515,88.6409275 36.1109565,95.974919 46.1288473,98.0035277 C56.1467381,100.032136 66.4739519,96.4307241 73.0477297,88.6160979 C78.3164441,95.8817611 87.0677124,99.7892226 96.0047949,98.8664808 C104.941877,97.9437389 112.70691,92.3309913 116.374683,84.1426477 C124.975732,86.8503586 134.371451,84.5825657 140.783499,78.2512267 C147.195547,71.9198876 149.570319,62.5653455 146.952836,53.9493832 C144.335354,45.333421 137.155714,38.8717829 128.301096,37.1629159 L128.437397,37.1629159 Z" id="Path-Copy-2" fill="#FEFEFE"></path>
                                <path d="M128.52264,37.1629159 C126.134724,30.2414844 121.041887,24.6010519 114.42303,21.5472795 C107.804174,18.4935072 100.233143,18.2911521 93.4624987,20.987056 C88.2151998,7.3357684 74.6199135,-1.17100242 60.1309581,0.131020181 C45.6420027,1.43304278 33.7600522,12.2292773 31,26.6001304 C31,26.6001304 72.8388861,-5.71757071 86.4978033,37.7752513 C86.4978033,37.7752513 116.300614,22.007615 120.425336,48.5761672 C120.425336,48.5761672 131.886656,54.8696142 127.322413,66.146791 C120.662001,82.543772 100.680763,68.6811791 100.680763,68.6811791 C100.680763,68.6811791 106.039521,88.6841352 73.6334023,88.6160979 C78.8609474,95.8817611 87.5438338,99.7892226 96.4110824,98.8664808 C105.278331,97.9437389 112.982688,92.3309913 116.621801,84.1426477 C125.155642,86.8503586 134.477944,84.5825657 140.839889,78.2512267 C147.201833,71.9198876 149.558048,62.5653455 146.961019,53.9493832 C144.36399,45.333421 137.240451,38.8717829 128.455022,37.1629159 L128.52264,37.1629159 Z" id="Path-Copy" fill="#D9F7FF"></path>
                            </g>
                            <g id="Group" transform="translate(325.000000, 20.000000)">
                                <path d="M78.0623421,22.5066397 C75.7690747,15.9488201 69.5575078,11.5514372 62.5783009,11.5449518 C60.5171653,11.5424263 58.4744942,11.9313867 56.5599755,12.6909465 C53.3232423,4.43206573 44.9926304,-0.707447623 36.1175704,0.07914599 C27.2425103,0.865739603 19.9563022,7.3893665 18.2380171,16.0874088 C17.4883954,15.9844239 16.7326605,15.931711 15.9759281,15.929627 C7.30572812,15.961434 0.231308055,22.8439058 0.00553783044,31.4666971 C-0.220232394,40.0894885 6.48443126,47.3290401 15.1412089,47.8098693 C16.9771869,53.7124853 21.9048055,58.1477117 27.9915036,59.3760986 C34.0782017,60.6044855 40.3535343,58.4301825 44.3563808,53.7059287 C47.5625538,58.1106128 52.8872206,60.4789772 58.3245626,59.9188517 C63.7619047,59.3587261 68.4858269,55.9552105 70.7168131,50.9904197 C75.950146,52.6453653 81.6743201,51.2814651 85.5862604,47.4474732 C89.4982006,43.6134813 90.9547108,37.9397779 89.3697758,32.7091315 C87.7848407,27.4784851 83.4190536,23.5509122 78.0289533,22.5066397 L78.0623421,22.5066397 Z" id="Path" fill="#FEFEFE"></path>
                                <path d="M78.0623421,22.5066397 C75.7690747,15.9488201 69.5575078,11.5514372 62.5783009,11.5449518 C60.5171653,11.5424263 58.4744942,11.9313867 56.5599755,12.6909465 C53.3232423,4.43206573 44.9926304,-0.707447623 36.1175704,0.07914599 C27.2425103,0.865739603 19.9563022,7.3893665 18.2380171,16.0874088 C17.4883954,15.9844239 16.7326605,15.931711 15.9759281,15.929627 C7.30572812,15.961434 0.231308055,22.8439058 0.00553783044,31.4666971 C-0.220232394,40.0894885 6.48443126,47.3290401 15.1412089,47.8098693 C16.9771869,53.7124853 21.9048055,58.1477117 27.9915036,59.3760986 C34.0782017,60.6044855 40.3535343,58.4301825 44.3563808,53.7059287 C47.5625538,58.1106128 52.8872206,60.4789772 58.3245626,59.9188517 C63.7619047,59.3587261 68.4858269,55.9552105 70.7168131,50.9904197 C75.950146,52.6453653 81.6743201,51.2814651 85.5862604,47.4474732 C89.4982006,43.6134813 90.9547108,37.9397779 89.3697758,32.7091315 C87.7848407,27.4784851 83.4190536,23.5509122 78.0289533,22.5066397 L78.0623421,22.5066397 Z" id="Path" fill="#FEFEFE"></path>
                                <path d="M77.9948339,22.5066397 C75.6950304,15.9488201 69.4657594,11.5514372 62.4666608,11.5449518 C60.3996505,11.5424263 58.3511575,11.9313867 56.4311822,12.6909465 C53.1852237,4.43206573 44.8308683,-0.707447623 35.9305129,0.07914599 C27.0301575,0.865739603 19.7231825,7.3893665 18,16.0874088 C18,16.0874088 43.7407722,-3.46923891 52.1452389,22.8720293 C52.1452389,22.8720293 70.4693203,13.3137696 73.0140991,29.4241291 C73.0140991,29.4241291 80.0708376,33.235807 77.2498164,40.0785576 C73.1564058,50.0437285 60.867803,41.6148548 60.867803,41.6148548 C60.867803,41.6148548 64.1659703,53.739146 44.2262892,53.7059287 C47.4416002,58.1106128 52.7814432,60.4789772 58.2342825,59.9188517 C63.6871219,59.3587261 68.4245081,55.9552105 70.661853,50.9904197 C75.9101017,52.6453653 81.6505905,51.2814651 85.5736805,47.4474732 C89.4967704,43.6134813 90.9574319,37.9397779 89.3679795,32.7091315 C87.7785272,27.4784851 83.4002968,23.5509122 77.9948339,22.5066397 L77.9948339,22.5066397 Z" id="Path" fill="#D9F7FF"></path>
                            </g>
                        </g>
                        <g id="email" transform="translate(234.000000, 163.000000) rotate(-11.000000) translate(-234.000000, -163.000000) translate(192.000000, 121.000000)">
                            <polygon id="Path" fill="#995F13" points="0 34.7832794 42.0015302 0 84 34.7832794 84 84 0 84"></polygon>
                            <rect id="Rectangle" fill="#F1F2F2" x="12.8333333" y="7" width="58.3333333" height="57.1666667" rx="2.89152027"></rect>
                            <path d="M70.3956875,7.00000537 L13.6043187,7.00000537 C13.3995918,6.99929218 13.2030131,7.06966234 13.0582482,7.19548467 C12.9134834,7.32130699 12.832519,7.49216324 12.8333395,7.67010145 L12.8333333,8.16666667 C12.8325227,7.98919208 12.9130663,7.81874291 13.0571655,7.69299819 C13.2012648,7.56725346 13.397052,7.49656917 13.601247,7.49657059 L70.3956875,7.49657059 C70.8214875,7.49657059 71.1666667,7.79658282 71.1666667,8.16666667 L71.1666667,7.67010145 C71.1666667,7.3000176 70.8214875,7.00000537 70.3956875,7.00000537 L70.3956875,7.00000537 Z" id="Path" fill="#FFFFFF"></path>
                            <rect id="Rectangle" fill="#D1D3D4" x="38.5" y="14" width="25.6666667" height="3.5"></rect>
                            <rect id="Rectangle" fill="#D1D3D4" x="38.5" y="19.8333333" width="25.6666667" height="3.5"></rect>
                            <rect id="Rectangle" fill="#EA6552" x="19.8333333" y="14" width="15.1666667" height="15.1666667"></rect>
                            <rect id="Rectangle" fill="#D1D3D4" x="38.5" y="26.8333333" width="25.6666667" height="3.5"></rect>
                            <rect id="Rectangle" fill="#D1D3D4" x="19.8333333" y="32.6666667" width="43.1666667" height="3.5"></rect>
                            <rect id="Rectangle" fill="#D1D3D4" x="19.8333333" y="44.3333333" width="43.1666667" height="3.5"></rect>
                            <rect id="Rectangle" fill="#D1D3D4" x="19.8333333" y="38.5" width="43.1666667" height="3.5"></rect>
                            <rect id="Rectangle" fill="#D1D3D4" x="19.8333333" y="50.1666667" width="43.1666667" height="3.5"></rect>
                            <rect id="Rectangle" fill="#D1D3D4" x="19.8333333" y="56" width="43.1666667" height="3.5"></rect>
                            <polygon id="Path" fill="#FACB34" points="0 35 35 59.5015213 0 84"></polygon>
                            <polygon id="Path" fill="#F8DB1D" points="0 35 0 35.4807203 34.3142079 59.5015213 0 83.5192797 0 84 35 59.5015213"></polygon>
                            <polygon id="Path" fill="#FACB34" points="84 35 49 59.5015213 84 84"></polygon>
                            <polygon id="Path" fill="#F8DB1D" points="84 35 84 35.4807203 49.6858524 59.5015213 84 83.5192797 84 84 49 59.5015213"></polygon>
                            <polygon id="Path" fill="#F8A81D" points="49.199694 59.5212806 34.8309105 59.5212806 34.8309105 59.5 0 84 84 84"></polygon>
                        </g>
                    </g>
                    <g id="files" transform="translate(258.494578, 273.338973) rotate(5.000000) translate(-258.494578, -273.338973) translate(220.494578, 222.672306)">
                        <path d="M46.3517425,0.590429376 L24.6567784,0.590429376 C21.7615065,0.590429376 19.4144249,2.92049527 19.4144249,5.7947772 L19.4144249,72.5179656 C19.4368402,75.3780396 21.7757363,77.6864007 24.6567784,77.6918787 L70.3459844,77.6918787 C73.2429085,77.6862835 75.5883434,75.3533135 75.5883379,72.4773859 L75.5883379,29.6556468 L46.3517425,0.590429376 Z" id="Path" fill="#F4BC1E"></path>
                        <path d="M45.977477,0.435930123 L45.977477,23.8758472 C45.977477,26.746493 48.3974785,29.0736113 51.3827017,29.0736113 L75.7166074,29.0736113 L45.977477,0.435930123 Z" id="Path" fill="#F28920"></path>
                        <path d="M29.7145531,19.4903089 C28.6117312,18.4084274 27.1184443,17.8022565 25.5626285,17.8049157 L18.9683953,17.804907 L18.9683953,71.0653464 C18.9907169,73.8936126 21.3198338,76.1763015 24.1888299,76.1817186 L60.8234678,76.1817186 L60.8234589,52.5862141 C60.8261563,51.0524421 60.2112734,49.5803129 59.1138429,48.4931164 L29.7145531,19.4903089 Z" id="Path" fill="#F28920" opacity="0.6"></path>
                        <path d="M27.27225,23.262285 L5.62997329,23.262285 C2.73462928,23.2678772 0.390473736,25.5996187 0.390479215,28.474032 L0.390479215,95.1519477 C0.390473736,98.026361 2.73462928,100.358103 5.62997329,100.363695 L51.2942579,100.363695 C52.6901027,100.369087 54.0306401,99.8223749 55.0195736,98.8443977 C56.0085071,97.8664205 56.5644028,96.5377097 56.5643923,95.1519477 L56.5643923,52.312198 L27.27225,23.262285 Z" id="Path" fill="#60ADF4"></path>
                        <path d="M25.8562734,23.2037834 L25.8562734,46.6436925 C25.8562707,48.0239584 26.4257814,49.3475467 27.4392273,50.3226041 C28.4526733,51.2976614 29.8268231,51.8441092 31.2586747,51.8414549 L55.5954038,51.8414645 L25.8562734,23.2037834 Z" id="Path" fill="#2B94E2"></path>
                        <path d="M41.5488849,58.5629476 L14.0207357,58.5629476 C13.1083691,58.5685313 12.3701352,59.3026839 12.3645205,60.2100064 L12.3645205,60.2100064 C12.364503,61.1213216 13.1043718,61.86167 14.0207357,61.8672955 L41.5488849,61.8672955 C42.4652489,61.86167 43.2051176,61.1213216 43.2051002,60.2100064 L43.2051002,60.2100064 C43.1994855,59.3026839 42.4612515,58.5685313 41.5488849,58.5629476 L41.5488849,58.5629476 Z" id="Path" fill="#FFFFFF"></path>
                        <path d="M41.4116033,69.6315245 L13.8834541,69.6315245 C12.9710875,69.6371082 12.2328536,70.3712608 12.2272388,71.2785834 L12.2272388,71.2785834 C12.2272214,72.1898985 12.9670902,72.930247 13.8834541,72.9358724 L41.4116033,72.9358724 C42.3279672,72.930247 43.067836,72.1898985 43.0678186,71.2785834 L43.0678186,71.2785834 C43.0622038,70.3712608 42.3239699,69.6371082 41.4116033,69.6315245 Z" id="Path" fill="#FFFFFF"></path>
                        <path d="M41.3703193,81.7973594 L13.8421701,81.7973594 C12.9298035,81.8029604 12.1915696,82.539393 12.1859548,83.4495333 L12.1859548,83.4495333 C12.1915696,84.3596736 12.9298035,85.0961062 13.8421701,85.1017072 L41.3703193,85.1017072 C42.2850217,85.1017072 43.0265346,84.3620037 43.0265346,83.4495333 L43.0265346,83.4495333 C43.0265346,83.0113495 42.8520409,82.5911126 42.5414403,82.2812699 C42.2308397,81.9714272 41.8095749,81.7973594 41.3703193,81.7973594 Z" id="Path" fill="#FFFFFF"></path>
                    </g>
                    <g id="creditcards" transform="translate(257.000000, 150.000000)">
                        <path d="M93.9504288,16.1047827 C94.1841403,14.014072 93.5852103,11.9152911 92.2857381,10.271345 C90.9862659,8.62739884 89.0930044,7.57333923 87.0235295,7.34164848 L21.0166223,1.0473849 C18.9484175,0.81881815 16.8744033,1.42318792 15.2442062,2.72947258 C13.6198751,4.08599491 12.4788161,4.77782129 12.2506043,6.86686567 L8.04882238,44.7002732 C7.5698029,49.0522029 10.6696449,52.9737745 14.9757217,53.4634074 L81.0900227,60.9514106 C83.1568416,61.1837312 85.2303252,60.5767354 86.8541939,59.2639956 C88.4780626,57.9512558 89.5192532,56.0403405 89.7486468,53.9517555 L93.9504288,16.1047827 Z" id="Path" fill="#77B7AF"></path>
                        <path d="M92.9514331,16.170433 C93.181341,14.1265243 92.58882,12.0750816 91.3050224,10.4701839 C90.0212248,8.86528613 88.1520342,7.83930041 86.1111887,7.6193246 L21.1490251,1.04776409 C19.1077606,0.820370372 17.0595652,1.41092518 15.4510613,2.69065422 C13.8518686,4.03728547 12.413939,5.06072522 12.1854829,7.10760472 L8.04639594,44.0591663 C7.58298056,48.3120519 10.6433863,52.1379184 14.8866403,52.6102747 L80.211646,59.949415 C82.2507977,60.1840691 84.2993317,59.5961104 85.9052993,58.3152549 C87.5112669,57.0343993 88.5426954,55.165903 88.7720304,53.1219946 L92.9514331,16.170433 Z" id="Path" fill="#96D6D0"></path>
                        <path d="M20.7501269,1.05515111 C18.6768834,0.805537405 16.5915263,1.40992474 14.9631196,2.73236692 C13.2998951,3.9148648 12.1736468,5.72201112 11.83573,7.75048841 L8,42.4850868 C13.7378422,43.4931986 19.5507222,44.0000343 25.3743867,43.9999914 C58.6797496,44.0135173 85.7971578,28.1611227 87,8.35915544 L86.2916596,8.25094796 L20.7501269,1.05515111 Z" id="Path" fill="#A8E2D9"></path>
                        <polygon id="Path" fill="#CCFFF8" points="20 41.8034398 22.2597403 42 23 37.1965602 20.7272727 37"></polygon>
                        <polygon id="Path" fill="#CCFFF8" points="26 37.1847291 23.7636364 37 23 41.8152709 25.2363636 42"></polygon>
                        <polygon id="Path" fill="#CCFFF8" points="27.8115942 37 27 41.8152709 29.4057971 42 30 37.1724138"></polygon>
                        <polygon id="Path" fill="#CCFFF8" points="18 36.2640587 15.5853659 36 15 41.7506112 17.3170732 42"></polygon>
                        <polygon id="Path" fill="#CCFFF8" points="41.4473684 44 42 38.276699 39.1842105 38 39 39.8932039 39.8421053 39.9805825 39.4736842 43.7961165"></polygon>
                        <polygon id="Path" fill="#CCFFF8" points="36 42.8518519 37.5260116 43 38 38.1481481 36.4739884 38"></polygon>
                        <polygon id="Path" fill="#CCFFF8" points="43.5366492 38 43 43.5744681 47.3717277 44 48 38.4397163"></polygon>
                        <polygon id="Path" fill="#CCFFF8" points="35 38.1719902 32.6307692 38 32 42.8280098 34.3538462 43"></polygon>
                        <path d="M12.5039756,7.98978039 C12.7322451,5.90093302 13.77074,3.98994863 15.3904109,2.67831201 C17.0100817,1.36667539 19.0778711,0.762138735 21.1377094,0.998038035 L86.9198105,8.47757637 C86.9198105,8.22012849 86.9198105,7.96268062 87,7.69168285 L86.2916596,7.58328374 L20.4694637,0.0495458549 C18.4033784,-0.185896545 16.3300253,0.424118027 14.7092205,1.74430408 C13.0884156,3.06449014 12.0541259,4.98572843 11.83573,7.08193788 L8,41.878051 L8.74843512,42 L12.5039756,7.98978039 Z" id="Path" fill="#CCFFF8"></path>
                        <path d="M68.3016026,32.2646507 C65.7460731,28.7313869 60.8278306,27.9437579 57.3065797,30.5038594 L3.247717,69.9184949 C-0.2672198,72.487349 -1.05076334,77.4312354 1.49605893,80.9708463 L23.7016935,111.730515 C24.9268191,113.430471 26.7739171,114.571196 28.8361824,114.901456 C30.8984477,115.231716 33.0067356,114.724425 34.6967164,113.491307 L88.7421048,74.0766712 C90.4362396,72.8474321 91.5734142,70.9904099 91.9021348,68.9162975 C92.2308554,66.8421851 91.7240359,64.7218865 90.4937629,63.0243198 L68.3016026,32.2646507 Z" id="Path" fill="#84AECE"></path>
                        <path d="M67.8478495,34.1638449 C65.3525307,30.7450893 60.5797391,29.9788134 57.1459572,32.4456466 L4.15821249,70.970874 C0.744477356,73.4706647 -0.0201152799,78.2658219 2.4459097,81.7096134 L24.1573739,111.80493 C25.3575059,113.46683 27.1668722,114.581751 29.1868101,114.90404 C31.2067479,115.226328 33.2715069,114.729538 34.9261531,113.523129 L87.8470109,74.9979013 C91.2540361,72.4939909 92.0176827,67.7047665 89.5593137,64.2591619 L67.8478495,34.1638449 Z" id="Path" fill="#50738E"></path>
                        <path d="M67.1072962,34.1740815 C65.9176928,32.5196458 64.1177678,31.4103872 62.1079776,31.0930991 C60.0981875,30.775811 58.0452429,31.2768123 56.4058935,32.4846376 L4.1429182,70.5373507 C0.743708653,73.0087451 -0.0164854849,77.772658 2.44407052,81.183529 L23.9538899,110.829247 C25.1432495,112.484606 26.9444486,113.593583 28.9552208,113.908506 C30.9659931,114.22343 33.0188394,113.718068 34.6552926,112.505283 L86.8246307,74.4659782 C88.4772743,73.2756105 89.5865941,71.4724165 89.9056675,69.4577678 C90.2247408,67.4431192 89.727087,65.3842167 88.5234783,63.7393501 L67.1072962,34.1740815 Z" id="Path" fill="#688BAA"></path>
                        <path d="M53.8155248,62.2059248 C66.3884805,61.7810418 78.9461466,63.4280724 91,67.0829432 C90.8525129,65.8145237 90.3923017,64.6043609 89.6619476,63.5644258 L67.8918357,33.2019299 C65.3959277,29.7420208 60.6220093,28.9665208 57.1874167,31.4630487 L4.18716259,70.4520255 C2.12788766,71.9686772 0.936698954,74.4179518 1.00259796,77 C15.5070856,68.305594 33.7982614,62.8444203 53.8155248,62.2059248 Z" id="Path" fill="#50738E"></path>
                        <polygon id="Path" fill="#343F44" points="87 58.5763436 78.6155656 47 13 95.4236564 21.3844344 107"></polygon>
                        <path d="M70.1606597,71 L87,58.5945946 L78.5870495,47 L65,57.0135135 C67.5266171,61.3333783 69.2737294,66.0684246 70.1606597,71 L70.1606597,71 Z" id="Path" fill="#242F33"></path>
                        <path d="M26.4791509,85 L12,95.4409063 L20.5428355,107 L30,100.169626 C28.0102982,95.3320879 26.8215072,90.210166 26.4791509,85 L26.4791509,85 Z" id="Path" fill="#242F33"></path>
                        <polygon id="Path" fill="#C5EDD2" points="59.6425581 48 28 71.1714704 31.3441188 76 63 52.814851"></polygon>
                        <polygon id="Rectangle" fill="#89AFCC" transform="translate(45.438362, 71.334334) rotate(-36.200000) translate(-45.438362, -71.334334) " points="4.10153694 71.4219235 86.7751881 71.2467296 86.775188 71.246744 4.10153691 71.4219379"></polygon>
                        <path d="M29.9862519,24.5702802 C30.0518415,23.98251 29.8809782,23.3927784 29.5115059,22.9317028 C29.1420336,22.4706271 28.6044466,22.1762622 28.0178128,22.1138056 L17.5286474,21.0097721 C17.119295,20.9634169 16.708464,21.0832351 16.3877924,21.3425008 C16.0671209,21.6017665 15.8632842,21.9789123 15.8217491,22.389814 L15.0095959,30.2008511 C14.9634278,30.6025787 15.0851921,31.0055451 15.3459708,31.3140488 C15.6067495,31.6225525 15.9832755,31.8090685 16.3861268,31.8293006 L27.3983739,32.9885358 C27.8735191,33.0426319 28.350495,32.9038196 28.7228945,32.6030659 C29.0952941,32.3023123 29.332134,31.8646397 29.3805783,31.3876872 L29.9862519,24.5702802 Z" id="Path" fill="#80BCB5"></path>
                        <path d="M28.9902994,25.0962296 C29.0422771,24.5653515 28.8838234,24.0354214 28.5522562,23.6312448 C28.1946695,23.2065598 27.6959202,22.9419478 27.1584824,22.8917763 L18.4772623,22.0127854 C17.6218941,21.9026237 16.8342706,22.515857 16.6852673,23.408009 L16.0082914,29.3935185 C15.9660087,29.7894393 16.0867728,30.1854739 16.3401424,30.4817929 C16.6024136,30.7934624 16.9680165,30.9880989 17.3622432,31.0259301 L26.7204392,31.9886345 C27.5083267,32.0888874 28.2301996,31.5151947 28.3531457,30.6910765 L28.9902994,25.0962296 Z" id="Path" fill="#FFE255"></path>
                        <path d="M86.9890386,16.4525081 C87.0597414,15.6921257 86.7858471,14.9399459 86.2416457,14.3999875 C85.6178053,13.788038 84.7943281,13.4170803 83.9193891,13.3538641 L69.7990018,12.0296572 C68.515479,11.8327425 67.2910524,12.6350111 66.9695859,13.8835468 L66.0086521,22.1863236 C65.9540297,22.7518918 66.1600687,23.3116403 66.5691968,23.7091615 C67.014035,24.158036 67.6054773,24.4350166 68.2374845,24.4904435 L83.4522686,25.9603131 C84.6762265,26.1888964 85.8606235,25.4074237 86.1215289,24.199118 L86.9890386,16.4525081 Z" id="Path" fill="#CCFFF8"></path>
                        <path d="M28.4359788,30.2902736 L28.5185185,29.606383 L25.1343915,29.2781155 L25.2582011,25.7902736 L28.9174603,26.0775076 L29,25.4072948 L29,25.4072948 L25.1756614,25.0653495 L25.3407407,23.1231003 L24.6253968,23.1231003 L24.4465608,26.2142857 L22.5343915,26.2142857 L22.8095238,23 L22.0529101,23 L21.8190476,25.5030395 L16.5227513,24.8601824 L16.426455,25.5440729 L21.7915344,26.2006079 L21.5026455,28.4164134 L16,28.1018237 L16,28.7857143 L21.3513228,29.100304 L21.1037037,31.6306991 L21.8603175,31.6990881 L22.2455026,28.5258359 L24.3089947,28.5942249 L24.1026455,31.9179331 L24.8730159,32 L25.0380952,30.1534954 L28.4359788,30.2902736 Z M24.3777778,27.7051672 L22.3693122,27.7051672 L22.4793651,26.8297872 L24.4328042,26.8981763 L24.3777778,27.7051672 Z" id="Shape" fill="#80BCB5"></path>
                    </g>
                </g>
            </g>
        </g>
    </g>
</svg>