<?xml version="1.0" encoding="UTF-8"?>
<svg width="35px" height="39px" viewBox="0 0 35 39" version="1.1" xmlns="http://www.w3.org/2000/svg" xmlns:xlink="http://www.w3.org/1999/xlink">
    <!-- Generator: Sketch 54.1 (76490) - https://sketchapp.com -->
    <title>Icon</title>
    <desc>Created with Sketch.</desc>
    <g id="Page-1" stroke="none" stroke-width="1" fill="none" fill-rule="evenodd">
        <g id="final" transform="translate(-577.000000, -555.000000)" fill="#4A4A4A">
            <g id="call-outs" transform="translate(200.000000, 536.000000)">
                <g id="privacy" transform="translate(280.000000, 0.000000)">
                    <path d="M125.809258,23.8165 C125.653671,23.8165 125.498083,23.7775 125.361944,23.6995 C121.627847,21.769 118.399409,20.95 114.529173,20.95 C110.678385,20.95 107.022081,21.8665 103.696401,23.6995 C103.229639,23.953 102.646186,23.7775 102.373908,23.3095 C102.121079,22.8415 102.296114,22.237 102.762877,21.9835 C106.380283,20.014 110.347762,19 114.529173,19 C118.671687,19 122.289093,19.9165 126.256572,21.964 C126.742782,22.2175 126.917818,22.8025 126.664989,23.2705 C126.489953,23.6215 126.15933,23.8165 125.809258,23.8165 L125.809258,23.8165 Z M97.9785645,34.054 C97.7840802,34.054 97.589596,33.9955 97.4145602,33.8785 C96.9672465,33.5665 96.8700044,32.962 97.1811791,32.5135 C99.106573,29.7835 101.557074,27.6385 104.474338,26.137 C110.581143,22.978 118.399409,22.9585 124.525662,26.1175 C127.442926,27.619 129.893427,29.7445 131.818821,32.455 C132.129996,32.884 132.032754,33.508 131.58544,33.82 C131.138126,34.132 130.535225,34.0345 130.22405,33.586 C128.473692,31.129 126.256572,29.1985 123.631035,27.853 C118.049337,24.9865 110.911766,24.9865 105.349517,27.8725 C102.704531,29.2375 100.487411,31.1875 98.737053,33.6445 C98.5814656,33.9175 98.2897392,34.054 97.9785645,34.054 L97.9785645,34.054 Z M110.133829,57.5905 C109.880999,57.5905 109.62817,57.493 109.453134,57.298 C107.761121,55.6015 106.847045,54.5095 105.544001,52.15 C104.20206,49.7515 103.501917,46.8265 103.501917,43.687 C103.501917,37.8955 108.441816,33.1765 114.509724,33.1765 C120.577632,33.1765 125.517532,37.8955 125.517532,43.687 C125.517532,44.233 125.089666,44.662 124.545111,44.662 C124.000555,44.662 123.572689,44.233 123.572689,43.687 C123.572689,38.968 119.507969,35.1265 114.509724,35.1265 C109.511479,35.1265 105.446759,38.968 105.446759,43.687 C105.446759,46.495 106.069109,49.0885 107.255462,51.1945 C108.500161,53.437 109.355892,54.3925 110.853421,55.9135 C111.222941,56.3035 111.222941,56.908 110.853421,57.298 C110.639488,57.493 110.386658,57.5905 110.133829,57.5905 L110.133829,57.5905 Z M124.078348,53.983 C121.763986,53.983 119.721902,53.398 118.049337,52.2475 C115.151522,50.278 113.420613,47.08 113.420613,43.687 C113.420613,43.141 113.848478,42.712 114.393034,42.712 C114.93759,42.712 115.365455,43.141 115.365455,43.687 C115.365455,46.4365 116.765741,49.03 119.138449,50.629 C120.519287,51.565 122.133506,52.0135 124.078348,52.0135 C124.545111,52.0135 125.323048,51.955 126.100984,51.8185 C126.626092,51.721 127.131751,52.072 127.228993,52.618 C127.326235,53.1445 126.976163,53.6515 126.431608,53.749 C125.323048,53.9635 124.350626,53.983 124.078348,53.983 L124.078348,53.983 Z M120.169215,58 C120.091422,58 119.99418,57.9805 119.916386,57.961 C116.824087,57.103 114.801451,55.9525 112.681572,53.866 C109.958793,51.1555 108.461265,47.548 108.461265,43.687 C108.461265,40.528 111.145147,37.954 114.451379,37.954 C117.757611,37.954 120.441493,40.528 120.441493,43.687 C120.441493,45.7735 122.250197,47.47 124.486765,47.47 C126.723334,47.47 128.532037,45.7735 128.532037,43.687 C128.532037,36.3355 122.2113,30.3685 114.431931,30.3685 C108.908578,30.3685 103.851988,33.4495 101.576523,38.227 C100.818034,39.8065 100.429066,41.659 100.429066,43.687 C100.429066,45.208 100.565205,47.6065 101.73211,50.7265 C101.926594,51.2335 101.673765,51.799 101.168106,51.9745 C100.662447,52.1695 100.098443,51.8965 99.9234068,51.409 C98.9704341,48.8545 98.5036719,46.3195 98.5036719,43.687 C98.5036719,41.347 98.9509856,39.2215 99.8261647,37.369 C102.412805,31.9285 108.15009,28.399 114.431931,28.399 C123.280963,28.399 130.47688,35.2435 130.47688,43.6675 C130.47688,46.8265 127.792997,49.4005 124.486765,49.4005 C121.180533,49.4005 118.496651,46.8265 118.496651,43.6675 C118.496651,41.581 116.687948,39.8845 114.451379,39.8845 C112.21481,39.8845 110.406107,41.581 110.406107,43.6675 C110.406107,47.002 111.689703,50.122 114.042962,52.462 C115.890562,54.295 117.660369,55.309 120.402596,56.0695 C120.927704,56.206 121.21943,56.752 121.083291,57.259 C120.986049,57.7075 120.577632,58 120.169215,58 L120.169215,58 Z" id="Icon"></path>
                </g>
            </g>
        </g>
    </g>
</svg>