<?xml version="1.0" encoding="UTF-8"?>
<svg width="51px" height="50px" viewBox="0 0 51 50" version="1.1" xmlns="http://www.w3.org/2000/svg" xmlns:xlink="http://www.w3.org/1999/xlink">
    <!-- Generator: Sketch 54.1 (76490) - https://sketchapp.com -->
    <title>safari</title>
    <desc>Created with Sketch.</desc>
    <g id="Page-1" stroke="none" stroke-width="1" fill="none" fill-rule="evenodd">
        <g id="linkedin-banner" transform="translate(-693.000000, -372.000000)">
            <g id="logos" transform="translate(416.000000, 362.000000)">
                <g id="safari" transform="translate(277.177826, 10.067416)">
                    <g id="img">
                        <ellipse id="Oval-1" fill="#56AFEF" cx="25.3453919" cy="24.8938453" rx="25.3453919" ry="24.8938453"></ellipse>
                        <path d="M16.2171157,20.580862 L17.9591267,23.1354956 C17.8171751,23.6981289 17.7417743,24.287192 17.7417743,24.8938453 C17.7417743,28.8552749 20.9569046,32.0666481 24.9229687,32.0666481 C28.8890329,32.0666481 32.1041631,28.8552749 32.1041631,24.8938453 C32.1041631,20.9324156 28.8890329,17.7210424 24.9229687,17.7210424 C24.3310569,17.7210424 23.7558712,17.7925719 23.2056033,17.927449 L20.6616926,16.1702259 C21.4744127,15.7734163 22.350783,15.4865768 23.2713777,15.3291107 L24.9229687,6.75087329 L26.5745597,15.3291107 C30.6169559,16.0205556 33.8066393,19.2065117 34.4988932,23.2441842 L43.0871663,24.8938453 L34.4988932,26.5435063 C33.8066393,30.5811788 30.6169559,33.7671349 26.5745597,34.4585799 L24.9229687,43.0368172 L23.2713777,34.4585799 C19.2289816,33.7671349 16.0392981,30.5811788 15.3470443,26.5435063 L6.75877118,24.8938453 L15.3470443,23.2441842 C15.508371,22.3032224 15.8053337,21.4085175 16.2171157,20.580862 Z" id="Oval-2" fill="#FFFFFF"></path>
                        <polygon id="Triangle-5" fill="#F54747" transform="translate(16.900363, 16.851830) rotate(-45.000000) translate(-16.900363, -16.851830) " points="16.887035 5.45195724 20.6999502 28.2517036 13.1007752 28.247261"></polygon>
                        <polygon id="Triangle-6" fill="#F8D8D8" transform="translate(32.941449, 32.893008) scale(-1, -1) rotate(-45.000000) translate(-32.941449, -32.893008) " points="32.9281218 21.4931347 36.741037 44.292881 29.141862 44.2884385"></polygon>
                        <ellipse id="Oval-4" fill="#FFFFFF" cx="24.9229687" cy="24.8938453" rx="3.80180879" ry="3.79736623"></ellipse>
                    </g>
                </g>
            </g>
        </g>
    </g>
</svg>