<svg width="291" height="142" viewBox="0 0 291 142" fill="none" xmlns="http://www.w3.org/2000/svg">
<g clip-path="url(#clip0)">
<path opacity="0.35" d="M563.608 130.022L552.845 84.5719C554.102 83.8771 554.754 82.4412 554.452 81.0378C554.149 79.6343 552.963 78.5948 551.532 78.4792C550.101 78.3635 548.763 79.1991 548.239 80.5358L487.38 73.1525C487.198 71.3549 485.592 70.0457 483.794 70.2285C481.997 70.4113 480.688 72.0167 480.87 73.8143C480.907 74.3002 481.053 74.7714 481.299 75.1923L439.857 106.841C439.067 106.093 437.957 105.789 436.897 106.03C435.837 106.271 434.967 107.025 434.578 108.04L360.2 92.6659C360.208 92.5394 360.208 92.4126 360.2 92.2861C360.113 91.0251 359.305 89.928 358.126 89.4723C356.947 89.0165 355.611 89.2845 354.699 90.1596L322.208 64.4455C323.141 63.0145 322.809 61.1052 321.448 60.0732C320.086 59.0412 318.158 59.2377 317.032 60.5233L262.336 20.7155C262.951 19.4906 262.733 18.0118 261.791 17.0168C260.848 16.0217 259.383 15.7236 258.127 16.2712C256.87 16.8187 256.092 18.0946 256.179 19.4623C256.228 20.1227 256.48 20.7518 256.9 21.2634L226.645 54.3118C225.712 53.6725 224.515 53.5627 223.482 54.0217C222.449 54.4807 221.728 55.4428 221.578 56.5632L114.502 57.3118V57.7892C114.405 56.6263 113.696 55.6035 112.64 55.106C111.584 54.6084 110.344 54.7118 109.385 55.3772C108.426 56.0426 107.895 57.1688 107.992 58.3317C108.026 58.707 108.123 59.0739 108.28 59.4167L79.9011 79.76C79.2455 79.1096 78.3445 78.7683 77.4226 78.8211C76.5006 78.8739 75.6444 79.3158 75.0673 80.0367L39.7499 59.2485C40.3513 57.7383 39.7462 56.016 38.3325 55.2136C36.9188 54.4113 35.1298 54.7749 34.1414 56.0654C33.1531 57.356 33.2684 59.1778 34.4116 60.3335L5.01302 100.152C4.46379 99.8549 3.83958 99.7248 3.21731 99.7779C1.41959 99.7989 -0.0207472 101.273 0.000226174 103.071C0.0211996 104.868 1.49554 106.309 3.29326 106.288L12.6841 208.921C11.3205 209.229 10.3057 210.373 10.163 211.764C10.0203 213.155 10.7814 214.481 12.0541 215.06C13.3268 215.638 14.8267 215.339 15.7806 214.317C16.7345 213.296 16.9293 211.779 16.2647 210.549L54.7829 180.804C55.6946 181.683 57.0331 181.953 58.2143 181.497C59.3954 181.041 60.2049 179.941 60.2894 178.678L121.593 173.795C121.904 175.247 123.158 176.304 124.641 176.366C126.125 176.427 127.462 175.477 127.892 174.056L175.844 181.878C175.844 181.981 175.844 182.079 175.844 182.182C175.844 183.98 177.301 185.437 179.099 185.437C180.897 185.437 182.354 183.98 182.354 182.182L299.629 242.724C299.142 244.196 299.762 245.807 301.109 246.574C302.456 247.341 304.158 247.051 305.175 245.881C306.193 244.711 306.244 242.986 305.298 241.758L380.43 162.441C381.656 163.305 383.314 163.22 384.445 162.235L419.567 192.381C419.191 192.975 419.017 193.676 419.073 194.377C419.156 195.89 420.273 197.146 421.766 197.405C423.26 197.664 424.734 196.859 425.323 195.462L465.892 206.746C465.867 206.968 465.867 207.192 465.892 207.413C465.988 208.576 466.698 209.599 467.754 210.096C468.81 210.594 470.05 210.491 471.009 209.825C471.968 209.16 472.499 208.034 472.402 206.871C472.391 206.756 472.375 206.642 472.353 206.529L543.964 181.754C544.624 182.973 545.983 183.641 547.351 183.418C548.719 183.195 549.796 182.13 550.034 180.764C550.272 179.399 549.619 178.032 548.407 177.359L563.055 136.445C564.286 136.712 565.561 136.244 566.328 135.244C567.095 134.245 567.216 132.892 566.638 131.772C566.061 130.653 564.889 129.966 563.63 130.011L563.608 130.022ZM225.522 60.2141L227.719 65.9537L203.496 102.3L223.845 60.1436C224.243 60.2676 224.661 60.3155 225.077 60.2847C225.227 60.2722 225.375 60.2486 225.522 60.2141ZM111.117 61.2991L117.6 94.0492C116.853 94.3141 116.228 94.8426 115.842 95.5356L93.4693 87.1379L109.745 60.9465C110.17 61.1675 110.638 61.2952 111.117 61.3208V61.2991ZM37.6396 61.1689L50.4482 89.2645L6.50492 101.693C6.33943 101.332 6.11172 101.004 5.83221 100.722L35.1874 60.9085C35.7377 61.2028 36.3611 61.3328 36.9831 61.2828C37.2051 61.2658 37.4249 61.2276 37.6396 61.1689ZM440.421 187.027L512.141 156.848C512.231 156.992 512.33 157.13 512.439 157.26L470.888 204.397C469.551 203.531 467.783 203.761 466.711 204.94L440.421 187.027ZM486.74 75.5286L535.664 112.353L515.916 152.041C515.505 151.908 515.072 151.857 514.642 151.889C514.503 151.903 514.365 151.924 514.229 151.955L486.127 76.147C486.353 75.969 486.554 75.7609 486.724 75.5286H486.74ZM518.206 154.895C518.186 154.676 518.146 154.46 518.086 154.249L560.353 135.007L525.177 162.587L517.761 156.772C518.088 156.203 518.235 155.549 518.184 154.895H518.206ZM524.396 163.2L472.95 203.54L513.166 157.895C514.428 158.719 516.092 158.569 517.186 157.531L524.396 163.2ZM439.455 186.381L430.813 180.5C431.066 179.978 431.174 179.397 431.128 178.819V178.683L507.925 157.575L439.455 186.381ZM438.403 186.826L425.1 192.424C424.803 191.934 424.382 191.53 423.88 191.253L427.194 182.28C427.501 182.341 427.815 182.361 428.127 182.339C428.958 182.281 429.735 181.906 430.297 181.292L438.403 186.826ZM420.163 191.649L385.074 161.502V161.464L424.677 178.282C424.581 178.635 424.548 179.002 424.579 179.367C424.665 180.464 425.3 181.444 426.267 181.971L422.946 190.949C421.947 190.731 420.904 191.001 420.136 191.676L420.163 191.649ZM318.405 65.9428L310.37 118.939H310.099C309.848 118.961 309.6 119.012 309.361 119.091L290.069 80.0747L316.794 64.8361C317.205 65.3614 317.767 65.7477 318.405 65.9428ZM6.34217 104.611L64.9333 126.311C64.8697 126.618 64.8496 126.932 64.8736 127.244C64.9339 128.092 65.3233 128.882 65.9586 129.447L45.4897 161.372L5.74541 105.398C5.98455 105.169 6.18596 104.904 6.34217 104.611ZM15.5648 209.686L45.506 163.086L54.7286 176.106C53.6514 177.135 53.41 178.764 54.1427 180.061L15.6842 209.779L15.5648 209.686ZM58.575 175.58C58.4404 175.507 58.3008 175.443 58.1573 175.39L67.9225 130.26C68.0797 130.269 68.2372 130.269 68.3945 130.26C69.1827 130.198 69.9213 129.851 70.4723 129.284L84.8379 141.007L58.575 175.58ZM86.1237 140.861L117.128 100.017C117.545 100.244 118.006 100.377 118.479 100.407L124.013 169.878C123.469 170.006 122.967 170.269 122.553 170.643L86.1237 140.861ZM379.025 160.032C379.025 160.092 379.025 160.152 379.025 160.211L304.11 181.911C303.91 181.472 303.615 181.083 303.247 180.772L332.038 134.117L379.171 158.725C379.043 159.144 379 159.585 379.047 160.021L379.025 160.032ZM240.321 106.651C240.482 107.546 241.009 108.333 241.775 108.821L223.487 129.929L202.601 110.4C202.93 109.977 203.15 109.48 203.241 108.951L240.321 106.651ZM299.672 180.359L270.062 139.618L307.565 123.886C307.98 124.576 308.635 125.088 309.405 125.324L309.253 126.333L301.186 179.98C301.097 179.974 301.008 179.974 300.92 179.98C300.482 180.021 300.058 180.15 299.672 180.359ZM269.487 138.81L246.582 107.286C246.648 107.132 246.701 106.972 246.739 106.809L307.11 121.89C307.091 122.081 307.091 122.274 307.11 122.465C307.127 122.648 307.157 122.829 307.202 123.007L269.487 138.81ZM268.575 139.19L246.989 148.233C246.49 147.443 245.676 146.906 244.754 146.758L245.009 131.747L245.421 108.751C245.661 108.589 245.878 108.395 246.067 108.176L268.575 139.19ZM224.214 130.559L242.708 109.201C243.062 109.296 243.428 109.331 243.793 109.304C243.997 109.287 244.199 109.251 244.396 109.196L244.021 131.557L243.761 146.747C243.192 146.822 242.653 147.047 242.198 147.398L224.214 130.559ZM313.007 124.13L331.224 133.651L302.471 180.267C302.364 180.219 302.253 180.179 302.14 180.148L310.354 125.486H310.62C311.577 125.408 312.45 124.912 313.007 124.13ZM298.636 181.211L247.276 151.146C247.526 150.496 247.56 149.783 247.374 149.112L269.15 139.987L298.891 180.929C298.8 181.018 298.715 181.112 298.636 181.211ZM240.961 150.24C240.977 150.469 241.019 150.694 241.086 150.913L181.779 180.061C181.713 179.967 181.643 179.876 181.567 179.79L223.585 131.286L241.558 148.103C241.113 148.722 240.901 149.48 240.961 150.24ZM180.862 179.16C180.735 179.078 180.603 179.004 180.466 178.938L199.714 111.626C199.909 111.642 200.105 111.642 200.3 111.626C200.885 111.579 201.447 111.377 201.928 111.04L222.88 130.624L180.862 179.16ZM55.5424 175.531L46.0919 162.218L66.8049 129.978L66.9785 130.049L64.6186 140.996L57.2405 175.173C57.0834 175.16 56.9255 175.16 56.7685 175.173C56.3402 175.21 55.9234 175.332 55.5424 175.531ZM85.3805 140.269L71.0311 128.53C71.4633 127.687 71.5108 126.698 71.1613 125.817L116.135 99.2354L116.342 99.4633L85.3805 140.269ZM202.237 105.946L228.137 67.0603L241.954 103.196C241.045 103.712 240.439 104.635 240.327 105.675L203.3 107.964C203.201 107.185 202.823 106.468 202.237 105.946ZM228.82 66.073L258.072 22.1585C258.181 22.2133 258.293 22.2605 258.409 22.2995L243.669 102.772C243.544 102.772 243.424 102.772 243.3 102.772C243.15 102.785 243.001 102.808 242.855 102.843L228.82 66.073ZM246.848 105.783C246.82 105.468 246.749 105.157 246.636 104.861L289.261 80.5521L308.499 119.546C307.983 119.904 307.582 120.403 307.343 120.984L246.821 105.843L246.848 105.783ZM313.652 121.944C313.622 121.569 313.528 121.203 313.376 120.859L354.558 94.7382C354.692 94.8828 354.839 95.0153 354.997 95.1342L331.734 132.821L313.452 123.279C313.6 122.85 313.659 122.396 313.625 121.944H313.652ZM357.824 95.6767L380.723 156.902C380.296 157.13 379.925 157.451 379.638 157.841L332.564 133.266L355.795 95.617C356.235 95.7788 356.705 95.8436 357.173 95.8069C357.393 95.7849 357.611 95.7413 357.824 95.6767ZM379.73 161.763L304.598 241.096C304.158 240.798 303.651 240.611 303.122 240.554L301.744 186.506C303.418 186.229 304.598 184.713 304.457 183.023C304.457 182.963 304.457 182.904 304.457 182.844L379.372 161.144C379.467 161.369 379.587 161.582 379.73 161.779V161.763ZM301.419 240.782L265.543 183.278L297.941 183.717C298.134 185.194 299.305 186.351 300.784 186.527L302.162 240.576C301.907 240.613 301.657 240.682 301.419 240.782ZM264.951 182.291L246.354 152.454C246.523 152.308 246.677 152.146 246.815 151.971L298.158 182.025C298.07 182.249 298.007 182.482 297.968 182.719L264.951 182.291ZM263.807 182.291L182.284 181.206C182.284 181.119 182.24 181.032 182.213 180.951L241.504 151.814C242.158 152.811 243.305 153.371 244.493 153.273C244.853 153.242 245.204 153.152 245.535 153.007L263.807 182.291ZM177.607 179.003L155.25 147.609L198.109 110.98C198.326 111.144 198.563 111.281 198.814 111.387L179.517 178.678C179.288 178.653 179.057 178.653 178.828 178.678C178.404 178.707 177.99 178.818 177.607 179.003ZM154.686 146.823L120.969 99.4741C121.377 99.0826 121.675 98.5905 121.832 98.0474L123.546 98.2915L196.785 108.653C196.838 109.241 197.05 109.804 197.398 110.28L154.686 146.823ZM153.954 147.452L126.904 170.584C126.366 170.116 125.69 169.838 124.978 169.792L119.434 100.32C119.695 100.261 119.949 100.17 120.188 100.049L153.954 147.452ZM121.495 172.83L60.2188 177.712C60.0831 177.127 59.7905 176.591 59.3725 176.16L85.5703 141.62L121.951 171.376C121.684 171.817 121.526 172.315 121.49 172.83H121.495ZM13.6444 208.851L4.2535 106.212C4.49725 106.153 4.73376 106.067 4.95877 105.957L44.9309 162.246L14.7836 209.155C14.4255 208.985 14.0394 208.882 13.6444 208.851ZM50.8334 90.1541L66.3926 124.25C65.9418 124.547 65.5696 124.949 65.3076 125.421L6.7165 103.722C6.78291 103.415 6.80303 103.101 6.77618 102.789C6.77885 102.736 6.77885 102.684 6.77618 102.631L50.8334 90.1541ZM51.772 89.8883L74.6225 83.4273C75 84.2735 75.7202 84.9187 76.6026 85.2012L67.9605 123.718H67.8899C67.673 123.735 67.4584 123.775 67.2498 123.837L51.772 89.8883ZM80.6172 83.3513L92.0371 87.637L69.4524 123.984C69.2766 123.911 69.0952 123.853 68.9099 123.81L77.552 85.3694C77.655 85.3748 77.7583 85.3748 77.8613 85.3694C79.0874 85.2714 80.1537 84.4907 80.6172 83.3513ZM92.9756 87.9842L115.522 96.447C115.456 96.7588 115.436 97.0787 115.463 97.3964C115.488 97.7275 115.563 98.053 115.685 98.362L70.5754 124.808C70.4819 124.698 70.3784 124.596 70.2661 124.505L92.9756 87.9842ZM196.937 107.411C196.937 107.508 196.883 107.606 196.861 107.704L140.277 99.702L121.989 97.1143C121.989 97.0329 121.989 96.957 121.989 96.8756C121.856 95.1115 120.338 93.7767 118.571 93.8702L112.104 61.2123C112.737 61.0398 113.303 60.6829 113.732 60.187L196.937 107.411ZM228.061 56.7639C228.011 56.1148 227.765 55.4961 227.355 54.99L255.566 24.1603L228.37 64.9718L226.433 59.8724C227.535 59.2423 228.171 58.0288 228.061 56.7639ZM260.421 22.3158L288.822 79.6895L246.148 104.026C245.758 103.523 245.23 103.146 244.629 102.941L259.331 22.4731C259.45 22.4731 259.575 22.4731 259.7 22.4731C259.951 22.4518 260.199 22.3989 260.438 22.3158H260.421ZM261.75 21.4966L316.49 61.3045C316.203 61.8496 316.077 62.4647 316.126 63.0785C316.154 63.3942 316.225 63.7046 316.338 64.0007L289.663 79.1904L261.3 21.8981C261.468 21.7793 261.624 21.6449 261.767 21.4966H261.75ZM321.589 65.1996L354.08 90.9136C353.75 91.487 353.602 92.1475 353.657 92.8069C353.691 93.2097 353.798 93.603 353.972 93.9678L312.833 120.089C312.432 119.623 311.907 119.281 311.32 119.101L319.36 66.1056C319.448 66.111 319.537 66.111 319.625 66.1056C320.37 66.0399 321.069 65.72 321.606 65.1996H321.589ZM398.691 144.121L384.369 157.228C383.718 156.694 382.886 156.434 382.047 156.501C381.904 156.514 381.763 156.536 381.624 156.566L358.702 95.2969L358.762 95.2535L398.691 144.121ZM399.298 144.87L425.447 176.877C425.311 177.03 425.187 177.196 425.079 177.37L385.475 160.58C385.572 160.227 385.605 159.86 385.573 159.495C385.531 158.934 385.344 158.394 385.03 157.927L399.298 144.87ZM400.009 144.219L435.516 111.734C435.858 112.02 436.255 112.232 436.683 112.358L436.184 115.939L427.835 175.808H427.607C427.108 175.849 426.625 176.005 426.196 176.264L400.009 144.219ZM440.182 111.252L457.987 121.841L428.957 175.998L428.789 175.965L437.171 115.874L437.638 112.521C437.719 112.526 437.8 112.526 437.882 112.521C438.793 112.44 439.628 111.979 440.182 111.252ZM458.812 122.335L511.886 153.913C511.689 154.386 511.607 154.899 511.647 155.41V155.546L430.813 177.755C430.584 177.24 430.228 176.792 429.777 176.453L458.812 122.335ZM459.268 121.488L483.274 76.6895C483.934 76.876 484.637 76.8418 485.275 76.5919L513.345 152.264C512.979 152.468 512.653 152.739 512.385 153.061L459.268 121.488ZM549.552 84.458L536.109 111.479L487.18 74.6769C487.244 74.5006 487.293 74.3191 487.326 74.1344L548.028 81.496C548.014 81.653 548.014 81.8109 548.028 81.968C548.117 82.9941 548.686 83.9176 549.563 84.458H549.552ZM536.456 112.944L561.107 131.481C560.695 132.089 560.503 132.821 560.565 133.553C560.57 133.646 560.581 133.738 560.598 133.83L517.663 153.36C517.433 153.005 517.136 152.697 516.79 152.454L536.456 112.944ZM547.48 177.05C546.442 176.833 545.364 177.141 544.599 177.875L525.931 163.227L561.357 135.452C561.585 135.713 561.852 135.936 562.149 136.114L547.48 177.05ZM472.017 205.628L471.951 205.525L525.155 163.813L544.002 178.634C543.674 179.204 543.527 179.861 543.579 180.517C543.579 180.632 543.595 180.746 543.628 180.858L472.017 205.628ZM425.534 194.524C425.556 194.304 425.556 194.082 425.534 193.862C425.518 193.679 425.485 193.497 425.437 193.319L439.314 187.482L466.136 205.732C466.119 205.759 466.105 205.788 466.092 205.818L425.534 194.524ZM184.383 182.166L264.403 183.251L300.605 241.297C300.402 241.467 300.22 241.66 300.063 241.872L184.383 182.166ZM128.022 173.101C128.027 172.998 128.027 172.895 128.022 172.792C127.981 172.268 127.813 171.761 127.533 171.316L154.518 148.238L176.831 179.562C176.442 179.94 176.152 180.407 175.985 180.923L128.022 173.101ZM74.5682 80.8776C74.3773 81.3484 74.2993 81.8575 74.3404 82.364C74.3377 82.4164 74.3377 82.4689 74.3404 82.5213L51.3434 89.0312L38.4805 60.8217C38.7819 60.6191 39.0477 60.368 39.2671 60.0785L74.5682 80.8776ZM108.795 60.263C108.849 60.3226 108.904 60.3823 108.963 60.4366L92.5524 86.8504L80.8559 82.4562C80.8723 82.2613 80.8723 82.0653 80.8559 81.8703C80.8205 81.4116 80.6874 80.9658 80.4653 80.5629L108.795 60.263ZM221.588 57.5505C221.725 58.4459 222.228 59.244 222.977 59.753L201.016 105.279C200.619 105.152 200.201 105.104 199.785 105.138C198.791 105.215 197.888 105.742 197.333 106.57L114.237 59.3733C114.396 59.0076 114.488 58.6161 114.508 58.2178V58.272L221.588 57.5505ZM434.366 109.006C434.353 109.175 434.353 109.346 434.366 109.516C434.416 110.061 434.603 110.586 434.909 111.04L399.429 143.503L359.473 94.5917C359.71 94.295 359.894 93.959 360.015 93.5989L434.366 109.006ZM481.885 75.968C482.039 76.1133 482.208 76.2424 482.389 76.3532L458.448 121.022L440.67 110.443C440.85 109.983 440.922 109.487 440.882 108.995C440.846 108.511 440.699 108.041 440.453 107.622L481.885 75.968ZM551.939 84.8974L562.675 130.228C562.342 130.356 562.032 130.54 561.759 130.77L536.906 112.076L550.469 84.854C550.822 84.9502 551.189 84.9869 551.554 84.9625C551.684 84.9408 551.814 84.9191 551.939 84.8974Z" fill="white"/>
<path d="M167.394 114.553L161.113 150.581H161.117H207.786L201.504 114.553H167.394Z" fill="#B1B1B1"/>
<path d="M105.433 8.78524V99.3565L113.298 107.184H258.058L265.923 99.3565V8.78524C265.923 4.34004 262.301 0.736481 257.835 0.736481H113.521C109.054 0.736481 105.433 4.34004 105.433 8.78524Z" fill="#3C3C3B"/>
<path d="M105.433 98.9953L105.433 114.605C105.432 116.763 106.284 118.833 107.801 120.359C109.318 121.885 111.376 122.742 113.521 122.741H257.852C262.313 122.734 265.925 119.092 265.923 114.605V98.9953H105.433Z" fill="#D9D9D9"/>
<path d="M257.096 8.28705H113.802V91.807H257.096V8.28705Z" fill="#666666"/>
<path d="M191.409 110.459C191.409 113.624 188.843 116.191 185.678 116.191C182.512 116.191 179.946 113.624 179.946 110.459C179.946 107.293 182.512 104.727 185.678 104.727C188.843 104.727 191.409 107.293 191.409 110.459Z" fill="#3C3C3B"/>
<path d="M258.003 16.0586H114.005L113.896 10.0953C113.876 8.9909 114.754 8.07921 115.859 8.05896C115.871 8.05874 115.883 8.05862 115.896 8.05862H256.113C257.218 8.05862 258.113 8.95405 258.113 10.0586C258.113 10.0708 258.113 10.0831 258.113 10.0953L258.003 16.0586Z" fill="#C6C6C6"/>
<path d="M120.254 12.0117C120.259 12.6195 119.897 13.1702 119.337 13.4063C118.777 13.6424 118.13 13.5172 117.698 13.0892C117.267 12.6612 117.136 12.015 117.367 11.453C117.599 10.891 118.147 10.5242 118.754 10.5241C119.578 10.5241 120.248 11.1881 120.254 12.0117Z" fill="#FFE269"/>
<path d="M124.254 12.0117C124.259 12.6198 123.897 13.1707 123.336 13.4066C122.776 13.6425 122.128 13.5167 121.697 13.0881C121.266 12.6594 121.136 12.0128 121.368 11.4509C121.601 10.8889 122.149 10.5229 122.757 10.5241C123.581 10.5241 124.249 11.1886 124.254 12.0117Z" fill="#6EAA6F"/>
<path d="M128.254 12.0117C128.259 12.6195 127.897 13.1702 127.337 13.4063C126.777 13.6424 126.13 13.5172 125.698 13.0892C125.267 12.6612 125.136 12.015 125.367 11.453C125.599 10.891 126.147 10.5242 126.754 10.5241C127.578 10.5241 128.248 11.1881 128.254 12.0117Z" fill="#E6332A"/>
<path d="M256.059 92.5931L115.95 92.5945C114.845 92.5945 113.95 91.6991 113.95 90.5945C113.95 90.5941 113.95 90.5936 113.95 90.5931L114.005 15.5931H258.005L258.059 90.5931C258.06 91.6977 257.165 92.5938 256.061 92.5945C256.06 92.5945 256.06 92.5945 256.059 92.5945V92.5931Z" fill="white"/>
<rect x="122.23" y="22.2997" width="90.2192" height="15.7897" rx="4" fill="#E6E6E6"/>
<rect x="122.23" y="41.6052" width="90.2192" height="23.6726" rx="4" fill="#E6E6E6"/>
<rect x="216.968" y="22.2997" width="31.7026" height="35.7002" rx="4" fill="#E6E6E6"/>
<rect x="216.968" y="62" width="31.7026" height="22" rx="4" fill="#E6E6E6"/>
<rect x="122.23" y="69.0109" width="90.2192" height="14.9891" rx="4" fill="#E6E6E6"/>
<path fill-rule="evenodd" clip-rule="evenodd" d="M184.449 77.3333C197.336 77.3333 207.782 66.8866 207.782 54C207.782 41.1133 197.336 30.6667 184.449 30.6667C171.562 30.6667 161.116 41.1133 161.116 54C161.116 66.8866 171.562 77.3333 184.449 77.3333Z" fill="#10B501"/>
<path d="M179.715 60.8824L196.589 44.2778L198.846 46.4942L179.715 65.2778L170.838 56.5622L173.057 54.3457L179.715 60.8824Z" fill="white"/>
</g>
<defs>
<clipPath id="clip0">
<rect width="291" height="142" fill="white"/>
</clipPath>
</defs>
</svg>
