<?xml version="1.0" encoding="UTF-8"?>
<svg width="40px" height="40px" viewBox="0 0 40 40" version="1.1" xmlns="http://www.w3.org/2000/svg" xmlns:xlink="http://www.w3.org/1999/xlink">
    <!-- Generator: Sketch 54.1 (76490) - https://sketchapp.com -->
    <title>Icon</title>
    <desc>Created with Sketch.</desc>
    <g id="Page-1" stroke="none" stroke-width="1" fill="none" fill-rule="evenodd">
        <g id="final" transform="translate(-295.000000, -556.000000)" fill="#4A4A4A">
            <g id="call-outs" transform="translate(200.000000, 536.000000)">
                <g id="speed">
                    <path d="M114.98,20 C103.94,20 95,28.96 95,40 C95,51.04 103.94,60 114.98,60 C126.04,60 135,51.04 135,40 C135,28.96 126.04,20 114.98,20 L114.98,20 Z M115,56 C106.16,56 99,48.84 99,40 C99,31.16 106.16,24 115,24 C123.84,24 131,31.16 131,40 C131,48.84 123.84,56 115,56 Z M116,30 L113,30 L113,42 L123.5,48.3 L125,45.84 L116,40.5 L116,30 Z" id="Icon"></path>
                </g>
            </g>
        </g>
    </g>
</svg>