<?xml version="1.0" encoding="UTF-8"?>
<svg width="139px" height="24px" viewBox="0 0 139 24" version="1.1" xmlns="http://www.w3.org/2000/svg" xmlns:xlink="http://www.w3.org/1999/xlink">
    <!-- Generator: Sketch 54.1 (76490) - https://sketchapp.com -->
    <title>stars copy</title>
    <desc>Created with Sketch.</desc>
    <g id="Page-1" stroke="none" stroke-width="1" fill="none" fill-rule="evenodd">
        <g id="focus-expanded" transform="translate(-299.000000, -1406.000000)" fill="#FFCA00">
            <g id="accolades" transform="translate(0.000000, 1337.000000)">
                <g id="review-01" transform="translate(152.000000, 68.000000)">
                    <g id="stars-copy" transform="translate(147.000000, 1.000000)">
                        <polygon id="Star" points="12.9302326 19.5 5.33003255 23.5172209 6.78154159 15.0086105 0.632850627 8.98277907 9.13013255 7.74138954 12.9302326 0 16.7303326 7.74138954 25.2276145 8.98277907 19.0789235 15.0086105 20.5304326 23.5172209"></polygon>
                        <polygon id="Star-Copy" points="41.2151163 19.5 33.6149163 23.5172209 35.0664253 15.0086105 28.9177343 8.98277907 37.4150163 7.74138954 41.2151163 0 45.0152163 7.74138954 53.5124982 8.98277907 47.3638072 15.0086105 48.8153163 23.5172209"></polygon>
                        <polygon id="Star-Copy-3" points="69.5 19.5 61.8998 23.5172209 63.351309 15.0086105 57.2026181 8.98277907 65.6999 7.74138954 69.5 0 73.3001 7.74138954 81.7973819 8.98277907 75.648691 15.0086105 77.1002 23.5172209"></polygon>
                        <polygon id="Star-Copy-2" points="97.7848837 19.5 90.1846837 23.5172209 91.6361928 15.0086105 85.4875018 8.98277907 93.9847837 7.74138954 97.7848837 0 101.584984 7.74138954 110.082266 8.98277907 103.933575 15.0086105 105.385084 23.5172209"></polygon>
                        <polygon id="Star-Copy-4" points="126.069767 19.5 118.469567 23.5172209 119.921076 15.0086105 113.772386 8.98277907 122.269667 7.74138954 126.069767 0 129.869867 7.74138954 138.367149 8.98277907 132.218458 15.0086105 133.669967 23.5172209"></polygon>
                    </g>
                </g>
            </g>
        </g>
    </g>
</svg>